<?xml version="1.0" encoding="utf-8"?>
<!-- Generator: Adobe Illustrator 27.5.0, SVG Export Plug-In . SVG Version: 6.00 Build 0)  -->
<svg version="1.1" xmlns="http://www.w3.org/2000/svg" xmlns:xlink="http://www.w3.org/1999/xlink" x="0px" y="0px"
	 viewBox="0 0 500 500" style="enable-background:new 0 0 500 500;" xml:space="preserve">
<g id="Background_Complete">
	<rect x="416.779" y="398.494" style="fill:#EBEBEB;" width="33.122" height="0.25"/>
	<rect x="322.527" y="401.208" style="fill:#EBEBEB;" width="8.693" height="0.25"/>
	<rect x="396.586" y="389.208" style="fill:#EBEBEB;" width="19.192" height="0.25"/>
	<rect x="52.459" y="390.888" style="fill:#EBEBEB;" width="43.193" height="0.25"/>
	<rect x="104.556" y="390.888" style="fill:#EBEBEB;" width="6.333" height="0.25"/>
	<rect x="131.471" y="395.111" style="fill:#EBEBEB;" width="93.676" height="0.25"/>
	<path style="fill:#EBEBEB;" d="M237.014,337.8H43.915c-3.147,0-5.708-2.561-5.708-5.708V60.66c0-3.147,2.561-5.708,5.708-5.708
		h193.099c3.146,0,5.707,2.561,5.707,5.708v271.432C242.721,335.239,240.16,337.8,237.014,337.8z M43.915,55.203
		c-3.01,0-5.458,2.448-5.458,5.458v271.432c0,3.01,2.448,5.458,5.458,5.458h193.099c3.009,0,5.457-2.448,5.457-5.458V60.66
		c0-3.009-2.448-5.458-5.457-5.458H43.915z"/>
	<path style="fill:#EBEBEB;" d="M453.31,338.058H260.212c-3.147,0-5.707-2.56-5.707-5.708V60.919c0-3.147,2.561-5.708,5.707-5.708
		H453.31c3.148,0,5.708,2.561,5.708,5.708V332.35C459.019,335.498,456.458,338.058,453.31,338.058z M260.212,55.461
		c-3.009,0-5.457,2.448-5.457,5.458V332.35c0,3.01,2.448,5.458,5.457,5.458H453.31c3.01,0,5.458-2.448,5.458-5.458V60.919
		c0-3.009-2.448-5.458-5.458-5.458H260.212z"/>
	<rect y="382.398" style="fill:#EBEBEB;" width="500" height="0.25"/>
	<g>
		<g>
			<path style="fill:#E6E6E6;" d="M75.655,148.004h90.693c11.618,0,14.422-16.267,3.448-20.084c-0.14-0.049-0.281-0.096-0.423-0.142
				c12.137-10.113-14.495-31.435-43.422-1.913c2.254-9.843-23.457-6.287-31.324,7.144C91.833,124.19,67.312,139.51,75.655,148.004z"
				/>
			<path style="fill:#EBEBEB;" d="M318.231,107.453h54.376c0,0,12.752-4.803,11.103-17.522c-1.649-12.72-20.901-2.121-20.901-2.121
				s5.836-17.747-12.808-12.712c-18.643,5.035-20.46,22.63-20.46,22.63S305.055,93.452,318.231,107.453z"/>
			<path style="fill:#EBEBEB;" d="M368.189,143.232h35.9c0,0,8.419-3.171,7.33-11.568c-1.089-8.398-13.799-1.401-13.799-1.401
				s3.853-11.717-8.456-8.392c-12.308,3.324-13.508,14.94-13.508,14.94S359.49,133.989,368.189,143.232z"/>
		</g>
		<g>
			<path style="fill:#EBEBEB;" d="M361.29,325.214l-0.102-10.622l-0.004-0.644l-0.092-9.464l-0.004-0.606l-0.086-9.002l-0.01-0.586
				l-0.078-8.572l-0.008-0.555l-0.078-8.179l-0.005-0.521l-0.079-7.817l-0.001-0.497l-0.073-7.468l-0.005-0.483l-0.057-6.179
				c-0.306,0.189-0.652,0.355-1.035,0.477l0.039,5.219l-6.618,0.033l5.332-4.886c-0.512,0.1-1.076,0.177-1.662,0.199l-4.401,4.017
				l0.076-4.715c-0.395-0.166-0.749-0.366-1.031-0.599l-0.113,6.478l-0.002,0.483l-0.127,7.468l-0.008,0.508l-0.143,7.795
				l-0.003,0.532l-0.138,8.168l-0.009,0.555l-0.153,8.572l-0.006,0.586l-0.152,8.981l-0.014,0.616l-0.169,9.453l-0.011,0.644
				l-0.182,10.612l-0.921,45.806l12.767,0.15L361.29,325.214z M359.962,323.228l-7.688-8.307h7.636L359.962,323.228z
				 M359.84,313.931l-7.614,0.01l7.558-7.936L359.84,313.931z M359.922,302.26l-7.317-7.5l7.272-0.021L359.922,302.26z
				 M359.833,293.731l-7.247,0.021l7.207-7.216L359.833,293.731z M359.778,283.804l-6.975-6.811l6.934-0.021L359.778,283.804z
				 M359.726,275.929l-6.921,0.032l6.869-6.578L359.726,275.929z M359.61,260.777l0.037,6.229l-6.667-6.196L359.61,260.777z
				 M352.093,262.199l6.666,6.223l-6.758,0.022L352.093,262.199z M351.987,269.501l6.764-0.032l-6.857,6.545L351.987,269.501z
				 M351.845,278.606l6.975,6.822l-7.065,0.021L351.845,278.606z M351.754,286.473l7.09-0.021l-7.194,7.176L351.754,286.473z
				 M351.615,296.401l7.324,7.527l-7.431,0.01L351.615,296.401z M351.535,304.938l7.456-0.01l-7.56,7.903L351.535,304.938z
				 M351.492,315.395l7.691,8.348h-7.812L351.492,315.395z"/>
			<g>
				<g>
					<path style="fill:#EBEBEB;" d="M360.534,252.945l-0.518,0.011l-0.361-0.333l-3.051,2.794c0.586-0.022,1.149-0.1,1.661-0.199
						l1.241-1.141l0.005,0.775c0.382-0.122,0.728-0.288,1.034-0.476L360.534,252.945z M351.273,253.001l-0.02,1.121
						c0.281,0.233,0.635,0.432,1.029,0.598l0.022-1.719H351.273z"/>
				</g>
				<path style="fill:#EBEBEB;" d="M362.032,252.111c0.085,0.534-0.107,1.056-0.536,1.522l-0.357,0.333
					c-0.174,0.144-0.382,0.288-0.596,0.41c-0.306,0.188-0.652,0.355-1.034,0.476c-0.389,0.155-0.804,0.277-1.246,0.365
					c-0.512,0.1-1.075,0.177-1.661,0.199c-0.069,0.011-0.148,0.011-0.215,0.011l-0.539,0.011c-1.383-0.022-2.619-0.288-3.567-0.719
					c-0.394-0.166-0.748-0.366-1.029-0.598c-0.03-0.022-0.059-0.044-0.089-0.066l-0.332-0.322c-0.41-0.444-0.583-0.955-0.486-1.478
					l0.76-4.255l-2.011,0.034l6.995-3.554l7.287,3.319l-2.045,0.034L362.032,252.111z"/>
			</g>
		</g>
		<g>
			<g>
				<polygon style="fill:#EBEBEB;" points="394.118,257.452 394.388,371.02 402.631,371.02 450.53,371.02 458.773,371.02 
					459.135,257.452 				"/>
				<polygon style="fill:#EBEBEB;" points="406.688,243 406.719,268.323 411.821,268.323 441.468,268.323 446.57,268.323 
					446.623,243 				"/>
				<polygon style="fill:#FAFAFA;" points="406.643,268.323 398.223,268.323 398.207,260.735 406.633,260.735 				"/>
				<rect x="414.373" y="260.735" style="fill:#FAFAFA;" width="8.422" height="7.588"/>
				<rect x="430.53" y="260.735" style="fill:#FAFAFA;" width="8.423" height="7.588"/>
				<polygon style="fill:#F0F0F0;" points="455.099,268.323 446.68,268.323 446.696,260.735 455.122,260.735 				"/>
				<polygon style="fill:#F0F0F0;" points="406.532,282.147 398.307,282.147 398.292,274.746 406.522,274.746 				"/>
				<rect x="414.434" y="274.746" style="fill:#F0F0F0;" width="8.227" height="7.401"/>
				<rect x="430.568" y="274.746" style="fill:#FAFAFA;" width="8.227" height="7.401"/>
				<polygon style="fill:#FAFAFA;" points="454.919,282.147 446.694,282.147 446.71,274.746 454.94,274.746 				"/>
				<polygon style="fill:#F0F0F0;" points="406.464,295.634 398.428,295.634 398.414,288.412 406.453,288.412 				"/>
				<rect x="414.536" y="288.412" style="fill:#FAFAFA;" width="8.038" height="7.222"/>
				<rect x="430.651" y="288.412" style="fill:#FAFAFA;" width="8.038" height="7.222"/>
				<rect x="414.164" y="249.715" style="fill:#FAFAFA;" width="8.585" height="7.736"/>
				<rect x="430.326" y="249.715" style="fill:#F0F0F0;" width="8.585" height="7.736"/>
				<polygon style="fill:#F0F0F0;" points="454.794,295.634 446.758,295.634 446.775,288.412 454.814,288.412 				"/>
				<polygon style="fill:#FAFAFA;" points="406.437,308.797 398.587,308.797 398.574,301.749 406.426,301.749 				"/>
				<rect x="414.681" y="301.749" style="fill:#F0F0F0;" width="7.851" height="7.048"/>
				<polygon style="fill:#F0F0F0;" points="438.629,308.797 430.778,308.797 430.785,301.749 438.638,301.749 				"/>
				<polygon style="fill:#FAFAFA;" points="454.724,308.797 446.874,308.797 446.891,301.749 454.744,301.749 				"/>
				<polygon style="fill:#F0F0F0;" points="406.791,323.597 398.042,323.597 398.023,315.755 406.781,315.755 				"/>
				<polygon style="fill:#FAFAFA;" points="422.854,323.597 414.105,323.597 414.097,315.755 422.855,315.755 				"/>
				<polygon style="fill:#FAFAFA;" points="438.917,323.597 430.168,323.597 430.171,315.755 438.929,315.755 				"/>
				<polygon style="fill:#F0F0F0;" points="454.98,323.597 446.231,323.597 446.245,315.755 455.004,315.755 				"/>
				<polygon style="fill:#F0F0F0;" points="406.838,336.1 398.29,336.1 398.274,328.441 406.829,328.441 				"/>
				<rect x="414.345" y="328.441" style="fill:#FAFAFA;" width="8.552" height="7.659"/>
				<rect x="430.408" y="328.441" style="fill:#F0F0F0;" width="8.552" height="7.659"/>
				<polygon style="fill:#FAFAFA;" points="455.011,336.1 446.463,336.1 446.479,328.441 455.035,328.441 				"/>
				<polygon style="fill:#FAFAFA;" points="406.659,350.166 398.322,350.166 398.306,342.711 406.648,342.711 				"/>
				<rect x="414.348" y="342.711" style="fill:#FAFAFA;" width="8.339" height="7.455"/>
				<rect x="430.381" y="342.711" style="fill:#F0F0F0;" width="8.339" height="7.455"/>
				<polygon style="fill:#F0F0F0;" points="454.743,350.166 446.406,350.166 446.422,342.711 454.764,342.711 				"/>
				<polygon style="fill:#F0F0F0;" points="406.66,362.96 398.522,362.96 398.508,355.688 406.65,355.688 				"/>
				<polygon style="fill:#FAFAFA;" points="454.713,362.96 446.576,362.96 446.592,355.688 454.734,355.688 				"/>
				<polygon style="fill:#F5F5F5;" points="438.762,355.688 414.46,355.688 414.507,357.516 415.179,357.516 415.19,371.02 
					417.619,371.02 417.612,357.516 435.646,357.516 435.627,371.02 438.056,371.02 438.079,357.516 438.811,357.516 				"/>
				<polygon style="fill:#E6E6E6;" points="426.734,371.02 417.73,371.02 417.725,357.516 426.742,357.516 				"/>
				<polygon style="fill:#EBEBEB;" points="435.518,371.02 426.514,371.02 426.519,357.516 435.536,357.516 				"/>
			</g>
			<g>
				<polygon style="fill:#F5F5F5;" points="394.211,293.581 394.394,371.02 384.058,371.02 323.997,371.02 313.661,371.02 
					312.921,293.581 				"/>
				<polygon style="fill:#E6E6E6;" points="378.76,310.794 388.839,310.794 388.811,301.749 378.727,301.749 				"/>
				<polygon style="fill:#E6E6E6;" points="358.65,310.794 368.728,310.794 368.685,301.749 358.601,301.749 				"/>
				<polygon style="fill:#E6E6E6;" points="338.54,310.794 348.618,310.794 348.559,301.749 338.475,301.749 				"/>
				<polygon style="fill:#E6E6E6;" points="318.43,310.794 328.508,310.794 328.433,301.749 318.349,301.749 				"/>
				<polygon style="fill:#E6E6E6;" points="378.378,328.441 389.238,328.441 389.211,318.709 378.338,318.709 				"/>
				<polygon style="fill:#E6E6E6;" points="358.306,328.441 369.166,328.441 369.122,318.709 358.249,318.709 				"/>
				<polygon style="fill:#E6E6E6;" points="338.234,328.441 349.094,328.441 349.033,318.709 338.16,318.709 				"/>
				<polygon style="fill:#E6E6E6;" points="318.162,328.441 329.021,328.441 328.944,318.709 318.071,318.709 				"/>
				<polygon style="fill:#E6E6E6;" points="378.661,344.585 389.203,344.585 389.177,335.148 378.625,335.148 				"/>
				<polygon style="fill:#E6E6E6;" points="358.608,344.585 369.15,344.585 369.107,335.148 358.555,335.148 				"/>
				<polygon style="fill:#E6E6E6;" points="338.555,344.585 349.097,344.585 349.037,335.148 338.485,335.148 				"/>
				<polygon style="fill:#E6E6E6;" points="318.502,344.585 329.043,344.585 328.967,335.148 318.415,335.148 				"/>
				<polygon style="fill:#E6E6E6;" points="378.888,361.152 389.112,361.152 389.086,352.013 378.854,352.013 				"/>
				<polygon style="fill:#E6E6E6;" points="318.811,361.152 329.036,361.152 328.961,352.013 318.729,352.013 				"/>
				<polygon style="fill:#F5F5F5;" points="338.085,352.013 369.706,352.013 369.717,354.772 367.696,354.772 367.776,371.02 
					364.853,371.02 364.769,354.772 343.07,354.772 343.181,371.02 340.258,371.02 340.143,354.772 338.107,354.772 				"/>
				<polygon style="fill:#E6E6E6;" points="354.087,371.02 364.923,371.02 364.841,354.772 353.992,354.772 				"/>
				<polygon style="fill:#EBEBEB;" points="343.109,371.02 353.945,371.02 353.847,354.772 342.997,354.772 				"/>
			</g>
			<g>
				<path style="fill:#EBEBEB;" d="M152.096,227.295c0-1.215,0-2.43,0-3.646c0-0.56-0.87-0.561-0.87,0c0,1.334,0,2.668,0,4.002
					c0,0.253,0.2,0.411,0.435,0.435c1.373,0.138,2.376,1.845,1.236,2.985c-1.093,1.093-2.837,0.233-2.985-1.236
					c-0.056-0.552-0.926-0.557-0.87,0c0.218,2.161,2.746,3.594,4.47,1.851C155.112,230.07,154.014,227.779,152.096,227.295z"/>
				<path style="fill:#F0F0F0;" d="M88.002,201.123v7.902l-8.312-8.312l-0.41,0.41H78.7v9.302v0.58v8.722v0.58v8.722v0.58v8.722
					v0.58v8.722v0.58v8.722v0.58v8.722v0.58v9.302h10.462v-9.302v-0.58v-8.722v-0.58v-8.722v-0.58v-8.722v-0.58v-8.722v-0.58v-8.722
					v-0.58v-8.722v-0.58v-9.302H88.002z M79.859,258.335l7.322,7.322h-7.322V258.335z M79.859,239.731l7.322,7.322h-7.322V239.731z
					 M79.859,221.127l7.322,7.322h-7.322V221.127z M79.859,202.523l7.322,7.322h-7.322V202.523z M87.182,211.005l-7.322,7.322
					v-7.322H87.182z M88.002,211.825v7.322h-7.322L88.002,211.825z M87.182,229.609l-7.322,7.322v-7.322H87.182z M88.002,230.429
					v7.322h-7.322L88.002,230.429z M87.182,248.213l-7.322,7.322v-7.322H87.182z M88.002,249.033v7.322h-7.322L88.002,249.033z
					 M87.182,266.817l-7.322,7.322v-7.322H87.182z M80.679,274.96l7.322-7.322v7.322H80.679z M88.002,264.837l-7.322-7.322h7.322
					V264.837z M88.002,246.233l-7.322-7.322h7.322V246.233z M88.002,227.629l-7.322-7.322h7.322V227.629z"/>
				<path style="fill:#F0F0F0;" d="M79.863,176.421v6.977v0.58v6.976h1.16v-5.577l5.987,5.986l0.41-0.41h0.58v-6.976v-0.58v-6.977
					H79.863z M86.019,177.581l-4.997,4.997v-4.997H86.019z M86.839,189.554l-4.997-4.997h4.997V189.554z M81.842,183.397
					l4.997-4.997v4.997H81.842z"/>
				<rect x="46.813" y="201.123" style="fill:#E6E6E6;" width="13.953" height="13.953"/>
				<g>
					<polygon style="fill:#E6E6E6;" points="151.847,221.249 151.074,221.249 151.074,194.425 86.103,172.88 81.805,172.88 
						47.016,194.475 46.609,193.818 81.585,172.107 86.228,172.107 86.288,172.127 151.847,193.867 					"/>
				</g>
				<path style="fill:#F0F0F0;" d="M143.904,201.726h0.797l8.16-8.16h-8.376h-0.58h-6.396h-0.58h-6.397h-0.58h-6.396h-0.58h-6.397
					h-0.58h-6.396h-0.58h-6.397h-0.58h-6.396h-0.58h-6.397h-0.58h-6.397h-0.58h-6.397h-0.58h-6.397h-0.58h-6.397h-0.58h-6.397h-0.58
					h-6.976v8.136h6.976h0.58h6.397h0.58h6.397h0.58h6.397h0.58h6.397h0.58h6.397h0.58h6.397h0.58h6.396h0.58h6.397h0.58h6.396h0.58
					h6.397h0.58h6.396h0.58h6.397h0.58h6.396V201.726z M145.064,194.726h4.997l-4.997,4.997V194.726z M47.393,200.543v-4.997
					l4.997,4.997H47.393z M53.209,199.723l-4.997-4.997h4.997V199.723z M54.369,194.726h4.997l-4.997,4.997V194.726z
					 M60.186,200.543h-4.997l4.997-4.997V200.543z M61.346,200.543v-4.997l4.997,4.997H61.346z M67.162,199.723l-4.997-4.997h4.997
					V199.723z M68.322,194.726h4.997l-4.997,4.997V194.726z M74.139,200.543h-4.997l4.997-4.997V200.543z M75.299,200.543v-4.997
					l4.997,4.997H75.299z M81.115,199.723l-4.997-4.997h4.997V199.723z M82.275,194.726h4.997l-4.997,4.997V194.726z
					 M88.092,200.543h-4.997l4.997-4.997V200.543z M89.252,200.543v-4.997l4.997,4.997H89.252z M95.068,199.723l-4.997-4.997h4.997
					V199.723z M96.228,194.726h4.997l-4.997,4.997V194.726z M102.045,200.543h-4.997l4.997-4.997V200.543z M103.205,200.543v-4.997
					l4.997,4.997H103.205z M109.022,199.723l-4.997-4.997h4.997V199.723z M110.181,194.726h4.997l-4.997,4.997V194.726z
					 M115.998,200.543h-4.997l4.997-4.997V200.543z M117.158,200.543v-4.997l4.997,4.997H117.158z M122.975,199.723l-4.997-4.997
					h4.997V199.723z M124.134,194.726h4.997l-4.997,4.997V194.726z M129.951,200.543h-4.997l4.997-4.997V200.543z M131.111,194.726
					h4.997l-4.997,4.997V194.726z M136.928,200.543h-4.997l4.997-4.997V200.543z M138.088,200.543v-4.997l4.997,4.997H138.088z
					 M138.908,194.726h4.997v4.997L138.908,194.726z"/>
				<g>
					<path style="fill:#F0F0F0;" d="M94.319,204.291H72.863l0.785-9.029c0.212-2.438,2.253-4.309,4.7-4.309h10.222
						c2.395,0,4.41,1.795,4.686,4.174L94.319,204.291z"/>
					<rect x="76.323" y="194.703" style="fill:#FAFAFA;" width="4.12" height="4.12"/>
					<rect x="81.532" y="194.703" style="fill:#FAFAFA;" width="4.12" height="4.12"/>
					<rect x="86.74" y="194.703" style="fill:#FAFAFA;" width="4.12" height="4.12"/>
				</g>
				<path style="fill:#E6E6E6;" d="M86.74,174.191c0,1.552-1.258,2.81-2.81,2.81c-1.552,0-2.81-1.258-2.81-2.81
					s1.258-2.809,2.81-2.809C85.482,171.381,86.74,172.639,86.74,174.191z"/>
				<path style="fill:#E6E6E6;" d="M151.66,226.049L151.66,226.049c-1.326,0-2.4-1.074-2.4-2.4v-2.4h4.8v2.4
					C154.061,224.975,152.986,226.049,151.66,226.049z"/>
			</g>
			<g>
				<g>
					<polygon style="fill:#F5F5F5;" points="38.04,257.452 39.903,371.02 48.146,371.02 96.045,371.02 104.288,371.02 
						103.057,257.452 					"/>
					<polygon style="fill:#E6E6E6;" points="42.101,260.735 42.325,274.556 42.386,278.353 42.447,282.147 50.882,282.147 
						50.824,278.353 50.765,274.556 50.553,260.735 					"/>
					<polygon style="fill:#E6E6E6;" points="58.263,260.735 58.467,274.556 58.523,278.353 58.579,282.147 67.013,282.147 
						66.96,278.353 66.908,274.556 66.715,260.735 					"/>
					<polygon style="fill:#E6E6E6;" points="74.424,260.735 74.609,274.556 74.659,278.353 74.71,282.147 83.145,282.147 
						83.097,278.353 83.049,274.556 82.876,260.735 					"/>
					<polygon style="fill:#E6E6E6;" points="90.586,260.735 90.751,274.556 90.821,280.422 90.841,282.147 99.276,282.147 
						99.257,280.422 99.192,274.556 99.038,260.735 					"/>
					<polygon style="fill:#E6E6E6;" points="42.613,288.412 42.835,302.216 42.896,306.008 42.958,309.797 51.404,309.797 
						51.347,306.008 51.289,302.216 51.078,288.412 					"/>
					<polygon style="fill:#E6E6E6;" points="58.729,288.412 58.932,302.216 59.011,307.562 59.044,309.797 67.49,309.797 
						67.459,307.562 67.385,302.216 67.194,288.412 					"/>
					<polygon style="fill:#E6E6E6;" points="74.845,288.412 75.029,302.216 75.079,306.008 75.129,309.797 83.576,309.797 
						83.529,306.008 83.482,302.216 83.31,288.412 					"/>
					<polygon style="fill:#E6E6E6;" points="90.961,288.412 91.125,302.216 91.17,306.008 91.215,309.797 99.662,309.797 
						99.621,306.008 99.579,302.216 99.427,288.412 					"/>
					<polygon style="fill:#E6E6E6;" points="43.093,315.755 43.314,329.5 43.375,333.276 43.436,337.049 51.869,337.049 
						51.812,333.276 51.754,329.5 51.545,315.755 					"/>
					<polygon style="fill:#E6E6E6;" points="59.167,315.755 59.369,329.5 59.425,333.276 59.48,337.049 67.913,337.049 
						67.861,333.276 67.809,329.5 67.619,315.755 					"/>
					<polygon style="fill:#E6E6E6;" points="75.241,315.755 75.424,329.5 75.474,333.276 75.524,337.049 83.957,337.049 
						83.911,333.276 83.864,329.5 83.693,315.755 					"/>
					<polygon style="fill:#E6E6E6;" points="91.316,315.755 91.479,329.5 91.541,334.716 91.568,337.049 100.002,337.049 
						99.976,334.716 99.919,329.5 99.768,315.755 					"/>
					<polygon style="fill:#E6E6E6;" points="96.005,342.711 91.834,342.711 84.018,342.711 75.675,342.711 67.859,342.711 
						59.517,342.711 43.358,342.711 43.479,350.166 59.626,350.166 67.963,350.166 75.773,350.166 84.11,350.166 91.921,350.166 
						96.089,350.166 100.257,350.166 100.176,342.711 					"/>
					<polygon style="fill:#FAFAFA;" points="84.013,355.688 59.711,355.688 59.687,357.516 60.418,357.516 60.62,371.02 
						63.049,371.02 62.851,357.516 80.885,357.516 81.057,371.02 83.485,371.02 83.318,357.516 83.991,357.516 					"/>
					<polygon style="fill:#E6E6E6;" points="72.162,371.02 63.158,371.02 62.962,357.516 71.979,357.516 					"/>
					<polygon style="fill:#E6E6E6;" points="80.946,371.02 71.942,371.02 71.756,357.516 80.773,357.516 					"/>
				</g>
			</g>
			<g>
				<polygon style="fill:#E6E6E6;" points="164.378,263.999 165.11,371.02 157.343,371.02 112.209,371.02 104.442,371.02 
					103.11,263.999 				"/>
				<polygon style="fill:#F0F0F0;" points="142.737,344.585 146.048,344.585 160.895,344.585 160.92,348.011 160.945,351.435 
					161.037,363.862 153.352,363.862 153.25,351.09 145.746,351.09 142.795,351.09 138.47,351.09 138.411,344.585 				"/>
				<polygon style="fill:#F0F0F0;" points="113.445,344.585 116.404,344.585 130.501,344.585 130.568,351.09 115.982,351.09 
					116.126,363.862 108.443,363.862 108.295,351.435 108.236,346.48 108.214,344.585 				"/>
				<polygon style="fill:#F5F5F5;" points="124.178,356.603 145.089,356.603 145.106,358.427 145.336,358.427 145.443,371.02 
					143.177,371.02 143.067,358.427 126.25,358.427 126.383,371.02 124.118,371.02 123.982,358.427 124.196,358.427 				"/>
				<polygon style="fill:#EBEBEB;" points="134.691,371.02 143.089,371.02 142.977,358.427 134.569,358.427 				"/>
				<polygon style="fill:#E0E0E0;" points="126.47,371.02 134.867,371.02 134.747,358.427 126.339,358.427 				"/>
				<polygon style="fill:#F0F0F0;" points="137.307,268.323 160.621,268.323 160.764,288.413 137.497,288.413 				"/>
				<polygon style="fill:#F0F0F0;" points="107.086,268.323 130.4,268.323 130.595,288.413 107.329,288.413 				"/>
				<polygon style="fill:#F0F0F0;" points="137.957,293.581 160.27,293.581 160.416,312.784 138.131,312.784 				"/>
				<polygon style="fill:#F0F0F0;" points="107.787,293.581 130.1,293.581 130.296,312.784 108.012,312.784 				"/>
				<polygon style="fill:#F0F0F0;" points="138.186,319.69 160.626,319.69 160.769,338.943 138.361,338.943 				"/>
				<polygon style="fill:#F0F0F0;" points="108.106,319.69 130.546,319.69 130.74,338.943 108.332,338.943 				"/>
			</g>
		</g>
	</g>
</g>
<g id="Background_Simple">
	<g>
		<path style="fill:#407BFF;" d="M134.019,151.811c-20.461,10.64-36.367,28.486-48.884,47.856
			c-17.789,27.528-29.8,60.527-24.719,92.906c5.081,32.38,30.885,62.752,63.558,65.34c41.857,3.315,75.928-36.282,117.688-40.646
			c15.907-1.662,31.84,1.947,47.801,2.966c47.211,3.014,95.329-18.278,124.85-55.244c19.334-24.21,30.878-56.15,24.829-86.537
			c-6.287-31.581-31.244-57.654-61.108-69.696c-29.865-12.042-63.857-11.194-94.811-2.321
			c-28.669,8.218-51.541,23.966-77.234,38.112c-10.368,5.708-22.129-1.958-33.712-2.105
			C159.026,142.274,145.751,145.71,134.019,151.811z"/>
		<path style="opacity:0.9;fill:#FFFFFF;" d="M134.019,151.811c-20.461,10.64-36.367,28.486-48.884,47.856
			c-17.789,27.528-29.8,60.527-24.719,92.906c5.081,32.38,30.885,62.752,63.558,65.34c41.857,3.315,75.928-36.282,117.688-40.646
			c15.907-1.662,31.84,1.947,47.801,2.966c47.211,3.014,95.329-18.278,124.85-55.244c19.334-24.21,30.878-56.15,24.829-86.537
			c-6.287-31.581-31.244-57.654-61.108-69.696c-29.865-12.042-63.857-11.194-94.811-2.321
			c-28.669,8.218-51.541,23.966-77.234,38.112c-10.368,5.708-22.129-1.958-33.712-2.105
			C159.026,142.274,145.751,145.71,134.019,151.811z"/>
	</g>
</g>
<g id="Shadow">
	<ellipse id="_x3C_Path_x3E__359_" style="fill:#F5F5F5;" cx="250" cy="415.693" rx="193.889" ry="11.323"/>
</g>
<g id="Company">
	<g>
		<g>
			<g>
				<g>
					<g>
						<polygon style="fill:#407BFF;" points="160.832,84.619 164.557,89.438 335.418,89.438 339.176,84.619 						"/>
					</g>
				</g>
				<g style="opacity:0.4;">
					<g>
						<polygon points="160.832,84.619 164.557,89.438 335.418,89.438 339.176,84.619 						"/>
					</g>
				</g>
			</g>
			<g>
				<g>
					<rect x="164.209" y="78.407" style="fill:#407BFF;" width="171.254" height="303.581"/>
				</g>
				<g style="opacity:0.4;">
					<rect x="164.209" y="78.407" style="fill:#FFFFFF;" width="171.254" height="303.581"/>
				</g>
			</g>
			<g style="opacity:0.8;">
				<g>
					<path style="fill:#F0F0F0;" d="M171.153,85.881c0.197,1.973-1.177,3.565-3.068,3.565c-1.891,0-3.597-1.592-3.812-3.565
						c-0.215-1.983,1.156-3.597,3.065-3.597C169.247,82.284,170.955,83.898,171.153,85.881z"/>
				</g>
				<g>
					<path style="fill:#F0F0F0;" d="M177.457,85.881c0.181,1.973-1.205,3.565-3.096,3.565c-1.891,0-3.585-1.592-3.783-3.565
						c-0.2-1.983,1.185-3.597,3.093-3.597C175.579,82.284,177.274,83.898,177.457,85.881z"/>
				</g>
				<g>
					<path style="fill:#F0F0F0;" d="M183.76,85.881c0.166,1.973-1.234,3.565-3.125,3.565c-1.891,0-3.572-1.592-3.755-3.565
						c-0.184-1.983,1.214-3.597,3.122-3.597C181.911,82.284,183.594,83.898,183.76,85.881z"/>
				</g>
				<g>
					<path style="fill:#F0F0F0;" d="M190.064,85.881c0.15,1.973-1.262,3.565-3.153,3.565c-1.891,0-3.559-1.592-3.726-3.565
						c-0.168-1.983,1.242-3.597,3.151-3.597C188.244,82.284,189.913,83.898,190.064,85.881z"/>
				</g>
				<g>
					<path style="fill:#F0F0F0;" d="M196.368,85.881c0.134,1.973-1.291,3.565-3.182,3.565c-1.891,0-3.547-1.592-3.698-3.565
						c-0.152-1.983,1.271-3.597,3.179-3.597C194.576,82.284,196.233,83.898,196.368,85.881z"/>
				</g>
				<g>
					<path style="fill:#F0F0F0;" d="M202.672,85.881c0.118,1.973-1.319,3.565-3.21,3.565c-1.891,0-3.534-1.592-3.669-3.565
						c-0.136-1.983,1.299-3.597,3.208-3.597C200.908,82.284,202.552,83.898,202.672,85.881z"/>
				</g>
				<g>
					<path style="fill:#F0F0F0;" d="M208.975,85.881c0.103,1.973-1.347,3.565-3.238,3.565c-1.891,0-3.521-1.592-3.641-3.565
						c-0.121-1.983,1.328-3.597,3.237-3.597C207.241,82.284,208.872,83.898,208.975,85.881z"/>
				</g>
				<g>
					<path style="fill:#F0F0F0;" d="M215.279,85.881c0.087,1.973-1.376,3.565-3.267,3.565c-1.891,0-3.508-1.592-3.613-3.565
						c-0.105-1.983,1.357-3.597,3.265-3.597C213.573,82.284,215.191,83.898,215.279,85.881z"/>
				</g>
				<g>
					<path style="fill:#F0F0F0;" d="M221.583,85.881c0.071,1.973-1.404,3.565-3.295,3.565c-1.891,0-3.496-1.592-3.584-3.565
						c-0.089-1.983,1.386-3.597,3.294-3.597S221.511,83.898,221.583,85.881z"/>
				</g>
				<g>
					<path style="fill:#F0F0F0;" d="M227.886,85.881c0.056,1.973-1.433,3.565-3.324,3.565c-1.891,0-3.483-1.592-3.556-3.565
						c-0.073-1.983,1.414-3.597,3.323-3.597C226.238,82.284,227.83,83.898,227.886,85.881z"/>
				</g>
				<g>
					<path style="fill:#F0F0F0;" d="M234.19,85.881c0.04,1.973-1.461,3.565-3.352,3.565c-1.891,0-3.47-1.592-3.527-3.565
						c-0.057-1.983,1.443-3.597,3.351-3.597C232.57,82.284,234.15,83.898,234.19,85.881z"/>
				</g>
				<g>
					<path style="fill:#F0F0F0;" d="M240.494,85.881c0.024,1.973-1.489,3.565-3.38,3.565c-1.891,0-3.458-1.592-3.499-3.565
						c-0.042-1.983,1.471-3.597,3.38-3.597C238.903,82.284,240.469,83.898,240.494,85.881z"/>
				</g>
				<g>
					<path style="fill:#F0F0F0;" d="M246.797,85.881c0.008,1.973-1.518,3.565-3.409,3.565c-1.891,0-3.445-1.592-3.471-3.565
						c-0.026-1.983,1.5-3.597,3.409-3.597C245.235,82.284,246.789,83.898,246.797,85.881z"/>
				</g>
				<g>
					<path style="fill:#F0F0F0;" d="M253.101,85.881c-0.007,1.973-1.546,3.565-3.438,3.565c-1.891,0-3.432-1.592-3.442-3.565
						c-0.01-1.983,1.529-3.597,3.437-3.597C251.567,82.284,253.109,83.898,253.101,85.881z"/>
				</g>
				<g>
					<path style="fill:#F0F0F0;" d="M259.405,85.881c-0.023,1.973-1.575,3.565-3.466,3.565c-1.891,0-3.42-1.592-3.414-3.565
						c0.006-1.983,1.558-3.597,3.466-3.597C257.9,82.284,259.428,83.898,259.405,85.881z"/>
				</g>
				<g>
					<path style="fill:#F0F0F0;" d="M265.708,85.881c-0.039,1.973-1.603,3.565-3.494,3.565c-1.891,0-3.407-1.592-3.385-3.565
						c0.022-1.983,1.586-3.597,3.495-3.597C264.232,82.284,265.747,83.898,265.708,85.881z"/>
				</g>
				<g>
					<path style="fill:#F0F0F0;" d="M272.012,85.881c-0.054,1.973-1.631,3.565-3.523,3.565c-1.891,0-3.394-1.592-3.357-3.565
						c0.037-1.983,1.615-3.597,3.523-3.597C270.564,82.284,272.067,83.898,272.012,85.881z"/>
				</g>
				<g>
					<path style="fill:#F0F0F0;" d="M278.316,85.881c-0.07,1.973-1.66,3.565-3.551,3.565c-1.891,0-3.382-1.592-3.329-3.565
						c0.053-1.983,1.644-3.597,3.552-3.597C276.897,82.284,278.386,83.898,278.316,85.881z"/>
				</g>
				<g>
					<path style="fill:#F0F0F0;" d="M284.62,85.881c-0.086,1.973-1.688,3.565-3.579,3.565c-1.891,0-3.369-1.592-3.3-3.565
						c0.069-1.983,1.672-3.597,3.581-3.597C283.229,82.284,284.706,83.898,284.62,85.881z"/>
				</g>
				<g>
					<path style="fill:#F0F0F0;" d="M290.923,85.881c-0.102,1.973-1.717,3.565-3.608,3.565c-1.891,0-3.356-1.592-3.272-3.565
						c0.085-1.983,1.701-3.597,3.609-3.597C289.561,82.284,291.025,83.898,290.923,85.881z"/>
				</g>
				<g>
					<path style="fill:#F0F0F0;" d="M297.227,85.881c-0.117,1.973-1.745,3.565-3.636,3.565c-1.891,0-3.344-1.592-3.243-3.565
						c0.101-1.983,1.729-3.597,3.638-3.597C295.894,82.284,297.345,83.898,297.227,85.881z"/>
				</g>
				<g>
					<path style="fill:#F0F0F0;" d="M303.531,85.881c-0.133,1.973-1.773,3.565-3.665,3.565s-3.331-1.592-3.215-3.565
						c0.116-1.983,1.758-3.597,3.667-3.597C302.226,82.284,303.664,83.898,303.531,85.881z"/>
				</g>
				<g>
					<path style="fill:#F0F0F0;" d="M309.834,85.881c-0.149,1.973-1.802,3.565-3.693,3.565c-1.891,0-3.318-1.592-3.187-3.565
						c0.132-1.983,1.787-3.597,3.695-3.597C308.559,82.284,309.984,83.898,309.834,85.881z"/>
				</g>
				<g>
					<path style="fill:#F0F0F0;" d="M316.138,85.881c-0.164,1.973-1.83,3.565-3.722,3.565c-1.891,0-3.305-1.592-3.158-3.565
						c0.148-1.983,1.816-3.597,3.724-3.597C314.891,82.284,316.303,83.898,316.138,85.881z"/>
				</g>
				<g>
					<path style="fill:#F0F0F0;" d="M322.442,85.881c-0.18,1.973-1.859,3.565-3.75,3.565c-1.891,0-3.293-1.592-3.13-3.565
						c0.164-1.983,1.844-3.597,3.753-3.597C321.223,82.284,322.623,83.898,322.442,85.881z"/>
				</g>
				<g>
					<path style="fill:#F0F0F0;" d="M328.746,85.881c-0.196,1.973-1.887,3.565-3.778,3.565c-1.891,0-3.28-1.592-3.101-3.565
						c0.18-1.983,1.873-3.597,3.781-3.597C327.556,82.284,328.942,83.898,328.746,85.881z"/>
				</g>
				<g>
					<path style="fill:#F0F0F0;" d="M335.049,85.881c-0.212,1.973-1.915,3.565-3.807,3.565c-1.891,0-3.267-1.592-3.073-3.565
						c0.195-1.983,1.902-3.597,3.81-3.597C333.888,82.284,335.262,83.898,335.049,85.881z"/>
				</g>
			</g>
			<g>
				<polygon style="fill:#407BFF;" points="160.819,79.741 339.186,79.741 339.176,84.619 160.832,84.619 				"/>
			</g>
			<g>
				<g>
					<polygon style="fill:#407BFF;" points="160.806,74.861 164.532,79.74 335.439,79.74 339.197,74.861 					"/>
				</g>
				<g style="opacity:0.4;">
					<polygon points="160.806,74.861 164.532,79.74 335.439,79.74 339.197,74.861 					"/>
				</g>
			</g>
			<g>
				<polygon style="fill:#407BFF;" points="160.793,69.964 339.207,69.964 339.197,74.861 160.806,74.861 				"/>
			</g>
			<g style="enable-background:new    ;">
				<polygon style="fill:#407BFF;" points="164.519,74.861 335.449,74.861 335.439,79.74 164.532,79.74 				"/>
			</g>
			<g style="opacity:0.8;">
				<polygon style="fill:#FFFFFF;" points="164.519,74.861 335.449,74.861 335.439,79.74 164.532,79.74 				"/>
			</g>
			<g style="opacity:0.7;">
				<rect x="164.256" y="175.813" style="fill:#FFFFFF;" width="171.245" height="2.15"/>
			</g>
			<g style="opacity:0.8;">
				<rect x="164.613" y="282.517" style="fill:#FFFFFF;" width="170.882" height="2.14"/>
			</g>
			<g>
				<g>
					<rect x="199.754" y="98.786" style="fill:#407BFF;" width="21.168" height="22.867"/>
					<rect x="240.411" y="98.786" style="fill:#407BFF;" width="21.168" height="22.867"/>
					<rect x="281.069" y="98.786" style="fill:#407BFF;" width="21.168" height="22.867"/>
				</g>
				<g>
					<rect x="199.754" y="133.028" style="fill:#407BFF;" width="21.168" height="22.867"/>
					<rect x="240.411" y="133.028" style="fill:#407BFF;" width="21.168" height="22.867"/>
					<rect x="281.069" y="133.028" style="fill:#407BFF;" width="21.168" height="22.867"/>
				</g>
				<g>
					<g>
						<rect x="199.754" y="298.987" style="fill:#407BFF;" width="21.168" height="22.867"/>
						<rect x="240.411" y="298.987" style="fill:#407BFF;" width="21.168" height="22.867"/>
						<rect x="281.069" y="298.987" style="fill:#407BFF;" width="21.168" height="22.867"/>
					</g>
					<rect x="177.074" y="347.135" style="fill:#407BFF;" width="21.168" height="22.867"/>
					<rect x="301.453" y="347.135" style="fill:#407BFF;" width="21.168" height="22.867"/>
				</g>
				<g>
					<rect x="199.754" y="195.978" style="fill:#407BFF;" width="21.168" height="22.867"/>
					<rect x="240.411" y="195.978" style="fill:#407BFF;" width="21.168" height="22.867"/>
					<rect x="281.069" y="195.978" style="fill:#407BFF;" width="21.168" height="22.867"/>
				</g>
				<g>
					<rect x="199.754" y="230.221" style="fill:#407BFF;" width="21.168" height="22.867"/>
					<rect x="240.411" y="230.221" style="fill:#407BFF;" width="21.168" height="22.867"/>
					<rect x="281.069" y="230.221" style="fill:#407BFF;" width="21.168" height="22.867"/>
				</g>
			</g>
		</g>
		<g>
			<g style="opacity:0.8;enable-background:new    ;">
				<polygon style="fill:#FFFFFF;" points="225.347,349.819 247.256,349.819 247.171,372.567 225.197,372.567 				"/>
			</g>
			<g style="opacity:0.8;enable-background:new    ;">
				<polygon style="fill:#FFFFFF;" points="251.486,349.819 274.304,349.819 273.222,372.567 251.248,372.567 				"/>
			</g>
			<g>
				<g>
					<polygon style="fill:#407BFF;" points="277.793,377.152 219.98,377.152 219.745,372.567 278.007,372.567 					"/>
					<g style="opacity:0.1;">
						<polygon style="fill:#FFFFFF;" points="277.793,377.152 219.98,377.152 219.745,372.567 278.007,372.567 						"/>
					</g>
				</g>
			</g>
			<g>
				<polygon style="fill:#407BFF;" points="280.121,381.988 217.935,381.988 217.686,377.478 280.352,377.478 				"/>
			</g>
			<g style="opacity:0.4;">
				<polygon style="fill:#FFFFFF;" points="282.179,341.762 215.715,341.762 215.431,336.607 282.442,336.607 				"/>
			</g>
			<g>
				<polygon style="fill:#263238;" points="215.715,341.762 225.347,349.819 274.304,349.819 282.179,341.762 				"/>
			</g>
			<g>
				<path style="fill:#407BFF;" d="M220.223,345.533l3.397,27.035h2.701l-1.087-27.035l0,0
					C223.677,344.716,221.707,344.716,220.223,345.533L220.223,345.533z"/>
			</g>
			<g>
				<path style="fill:#407BFF;" d="M278.616,345.533l-3.328,27.035h-2.701l1.018-27.035l0,0
					C275.091,344.529,277.215,344.529,278.616,345.533L278.616,345.533z"/>
			</g>
		</g>
		<g>
			<path style="fill:#263238;" d="M193.445,62.543c0-4.42,3.382-7.554,7.99-7.554c2.677,0,4.835,0.975,6.246,2.739l-2.615,2.366
				c-0.913-1.1-2.034-1.702-3.424-1.702c-2.386,0-4.046,1.66-4.046,4.15c0,2.49,1.66,4.15,4.046,4.15
				c1.391,0,2.511-0.602,3.424-1.702l2.615,2.366c-1.411,1.764-3.569,2.739-6.246,2.739
				C196.827,70.097,193.445,66.964,193.445,62.543z"/>
			<path style="fill:#263238;" d="M208.445,62.543c0-4.358,3.424-7.554,8.073-7.554c4.648,0,8.072,3.196,8.072,7.554
				c0,4.358-3.424,7.554-8.072,7.554C211.869,70.097,208.445,66.901,208.445,62.543z M220.439,62.543c0-2.511-1.723-4.15-3.922-4.15
				c-2.2,0-3.922,1.639-3.922,4.15c0,2.511,1.722,4.15,3.922,4.15C218.717,66.694,220.439,65.055,220.439,62.543z"/>
			<path style="fill:#263238;" d="M239.858,69.807l-0.042-7.699l-3.735,6.268h-1.826l-3.714-6.06v7.491h-3.798V55.28h3.383
				l5.104,8.384l4.98-8.384h3.383l0.042,14.526H239.858z"/>
			<path style="fill:#263238;" d="M259.63,60.655c0,3.299-2.49,5.353-6.454,5.353h-2.532v3.798h-4.109V55.28h6.641
				C257.14,55.28,259.63,57.335,259.63,60.655z M255.48,60.655c0-1.349-0.851-2.138-2.552-2.138h-2.283v4.254h2.283
				C254.629,62.771,255.48,61.983,255.48,60.655z"/>
			<path style="fill:#263238;" d="M270.625,66.984h-6.143l-1.141,2.822h-4.192l6.412-14.526h4.047l6.433,14.526h-4.275
				L270.625,66.984z M269.422,63.955l-1.868-4.648l-1.867,4.648H269.422z"/>
			<path style="fill:#263238;" d="M291.02,55.28v14.526h-3.382l-6.413-7.74v7.74h-4.026V55.28h3.383l6.412,7.74v-7.74H291.02z"/>
			<path style="fill:#263238;" d="M301.703,64.598v5.209h-4.108v-5.271l-5.541-9.255h4.337l3.445,5.769l3.444-5.769h3.984
				L301.703,64.598z"/>
		</g>
	</g>
</g>
<g id="Character_2">
	<g>
		<g>
			<g>
				<path style="fill:#FFB573;" d="M362.184,231.126c-5.378,7.247-7.452,10.571-9.537,12.629c-2.263,2.234-25.443,0.53-28.243-0.645
					c-2.149-0.902-0.667-3.682,0.346-3.542c3.815,0.528,18.157-1.983,22.409-3.84c0.746-0.327,8.015-9.155,8.015-9.155
					L362.184,231.126z"/>
			</g>
			<g>
				<g>
					<path style="fill:#407BFF;" d="M353.357,226.342c4.546-8.331,13.497-14.446,16.203-14.79c3.899-0.506,5.21,0.265,4.067,3.402
						c-1.939,5.322-5.51,10.929-10.539,17.71L353.357,226.342z"/>
				</g>
				<g style="opacity:0.1;">
					<path d="M353.357,226.342c4.546-8.331,13.497-14.446,16.203-14.79c3.899-0.506,5.21,0.265,4.067,3.402
						c-1.939,5.322-5.51,10.929-10.539,17.71L353.357,226.342z"/>
				</g>
			</g>
		</g>
		<path style="fill:#407BFF;" d="M369.56,211.551c2.235-0.803,3.168-1.099,6.701-2.014c4.15-0.997,8.362-1.691,12.605-2.078
			c2.686-0.303,5.333-0.396,7.443-0.411c0.252-0.001,0.504,0.027,0.751,0.082c1.905,0.428,3.138,2.389,2.754,4.383
			c-4.173,22.046-4.372,31.827-3.771,43.182l-25.379,0.906c-0.65,0.023-1.217-0.462-1.349-1.138
			c-1.122-5.724-4.638-18.438-4.638-18.438c-3.169-3.041-3.694-6.807-4.01-8.986c-0.173-1.191,2.488-2.476,5.37-8.781
			C366.036,218.259,368.256,212.028,369.56,211.551z"/>
		<path style="fill:#263238;" d="M385.602,255.064l-9.254,0.337c-1.381-10.983-1.115-20.714-0.638-31.65
			C378.685,234.732,381.506,244.322,385.602,255.064z"/>
		<g>
			<g>
				<g>
					<g>
						<path style="fill:#FFB573;" d="M388.282,339.655c-0.231-0.507-0.463-1.035-0.686-1.573
							c-9.98-23.849-17.613-72.049-17.613-72.049l17.802-9.079c0,0,5.068,42.372,12.001,69.942c1.064,4.203,2.154,8.046,3.283,11.33
							l-12.147,5.583L388.282,339.655z"/>
					</g>
				</g>
				<g style="opacity:0.8;enable-background:new    ;">
					<g>
						<path style="fill:#263238;" d="M388.282,339.655c-0.231-0.507-0.463-1.035-0.686-1.573
							c-9.98-23.849-17.613-72.049-17.613-72.049l17.802-9.079c0,0,5.068,42.372,12.001,69.942c1.064,4.203,2.154,8.046,3.283,11.33
							l-12.147,5.583L388.282,339.655z"/>
					</g>
				</g>
			</g>
			<g>
				<path style="fill:#FFB573;" d="M371.306,259.776c0,0-8.139,56.997-6.212,80.317c2.034,24.566,9.297,66.638,9.297,66.638
					l6.005-0.409c0,0,3.587-31.666-1.486-65.881c13.749-35.389,15.289-79.761,15.289-79.761L371.306,259.776z"/>
				<path style="opacity:0.8;fill:#263238;enable-background:new    ;" d="M371.306,259.776c0,0-8.139,56.997-6.212,80.317
					c2.034,24.566,9.297,66.638,9.297,66.638l6.005-0.409c0,0,3.587-31.666-1.486-65.881c13.749-35.389,15.289-79.761,15.289-79.761
					L371.306,259.776z"/>
			</g>
			<path style="fill:#263238;" d="M381.165,408.198c0.419,0.788,0.651,1.673,0.677,2.577c0.159,3.297,0.391,12.061,0.391,12.061
				l-0.726,0.049c0,0-0.441-4.296-0.937-6.447c-0.495-2.149-0.828-0.298-1.93,2.049c-1.103,2.349-4.189,4.758-8.89,5.2
				c-5.515,0.515-7.764,0.408-6.246-1.133c1.517-1.539,5.118-2.71,5.118-2.71s4.797-8.22,4.52-13.754
				c-0.3-5.91,6.523-0.359,7.848-1.187C381.455,404.975,380.9,407.718,381.165,408.198z"/>
			<g>
				<path style="fill:#263238;" d="M400.191,328.976c-3.496,0.758-6.587,3.322-15.764,4.245c-0.181,0.012-0.362,0.033-0.551,0.046
					c-0.385,0.043-0.786,0.07-1.204,0.09c-2.467,0.135-16.547-0.525-19.164-2.054c2.273-23.454,6.742-73.28,6.742-73.28
					l10.762-1.308l13.867-0.422c0,0,15.297,15.802,11.781,30.136C401.4,307.879,404.033,311.21,400.191,328.976z"/>
			</g>
		</g>
		<path style="fill:#FFB573;" d="M395.914,243.438c-0.727-0.851-1.215-1.758-1.042-2.84c0,0-0.027-1.576-0.055-3.975
			c-0.082-7.022-0.14-21.015,0.595-22.867c1.598-4.013,4.335-6.187,5.77-3.842c1.676,2.739,1.798,23.525,1.798,23.525
			C402.587,247.185,397.555,245.356,395.914,243.438z"/>
		<g>
			<path style="fill:#407BFF;" d="M392.584,206.646l-0.839,1.516c-3.241,5.881-10.743,13.446-13.678,14.191
				c-0.686-1.592-1.738-2.993-3.067-4.087c-1.57,0.774-2.756,2.169-3.28,3.858c-2.515-4.084-2.293-9.242-1.657-11.797l0,0
				c1.477-0.448,3.053-0.903,4.557-1.276c4.152-0.967,8.364-1.644,12.608-2.025C389.084,206.777,390.926,206.659,392.584,206.646z"
				/>
			<path style="opacity:0.8;fill:#FFFFFF;" d="M392.584,206.646l-0.839,1.516c-3.241,5.881-10.743,13.446-13.678,14.191
				c-0.686-1.592-1.389-4.339-1.389-4.339c-1.57,0.774-2.723,2.988-3.246,4.678c-2.517-4.085-4.005-9.809-3.369-12.364l0,0
				c1.477-0.448,3.053-0.903,4.557-1.276c4.152-0.967,8.364-1.644,12.608-2.025C389.084,206.777,390.926,206.659,392.584,206.646z"
				/>
		</g>
		<g>
			<g>
				<path style="fill:#FFB573;" d="M373.276,235.258l-3.474-4.715l-3.11,6.16c0,0,3.177,1.775,5.814,1.178L373.276,235.258z"/>
				<polygon style="fill:#FFB573;" points="364.285,229.086 362.805,234.067 366.687,236.672 369.802,230.543 				"/>
			</g>
		</g>
		<g>
			<path style="fill:#407BFF;" d="M396.022,257.614l-12.855,0.345l-1.076,0.026l-2.778,0.07l-1.067,0.033l-7.544,0.197
				c-0.234-0.024-0.441-0.113-0.451-0.263l-0.296-2.42c-0.026-0.164,0.181-0.313,0.444-0.323l7.461-0.295l0.896-0.037l3.685-0.14
				l0.873-0.036l12.376-0.487c0.169-0.019,0.337,0.048,0.448,0.191l0.306,2.745C396.542,257.404,396.323,257.602,396.022,257.614z"
				/>
			<path style="opacity:0.2;fill:#FFFFFF;" d="M396.022,257.614l-12.855,0.345l-1.076,0.026l-2.778,0.07l-1.067,0.033l-7.544,0.197
				c-0.234-0.024-0.441-0.113-0.451-0.263l-0.296-2.42c-0.026-0.164,0.181-0.313,0.444-0.323l7.461-0.295l0.896-0.037l3.685-0.14
				l0.873-0.036l12.376-0.487c0.169-0.019,0.337,0.048,0.448,0.191l0.306,2.745C396.542,257.404,396.323,257.602,396.022,257.614z"
				/>
		</g>
		<g>
			<path style="fill:#263238;" d="M374.257,258.512l0.825-0.012c0.168,0.018,0.287-0.097,0.281-0.208l-0.461-3.428
				c0.01-0.099-0.16-0.191-0.329-0.191l-0.825,0.021c-0.168-0.018-0.287,0.097-0.28,0.199l0.459,3.437
				C373.978,258.436,374.086,258.521,374.257,258.512z"/>
			<path style="fill:#263238;" d="M388.579,258.305l0.782-0.02c0.16,0.017,0.272-0.092,0.264-0.188l-0.461-3.446
				c0.009-0.094-0.16-0.182-0.314-0.172l-0.781,0.02c-0.16-0.017-0.271,0.083-0.264,0.188l0.461,3.429
				C388.28,258.229,388.417,258.305,388.579,258.305z"/>
		</g>
		<g>
			<g>
				<path style="fill:#407BFF;" d="M392.841,273.112l-1.983-0.709l8.903-26.632c1.415-4.234,0.878-8.267-4.369-10.121
					c-4.907-1.733-8.769,0.74-10.199,4.96l-8.992,26.55l-1.975-0.706l9.003-26.539c1.664-4.906,4.863-8.236,12.581-5.511
					c7.732,2.73,7.564,7.139,5.921,12.064L392.841,273.112z"/>
			</g>
			<path style="fill:#407BFF;" d="M397.868,289.539l-38.989-14.011l8.844-25.822c0.867-2.53,3.577-3.865,6.055-2.985l28.419,10.1
				c3.21,1.141,4.935,4.722,3.849,8.004L397.868,289.539z"/>
			<path style="opacity:0.4;fill:#FFFFFF;" d="M393.548,287.986l-30.383-10.918c-2.367-0.851-3.61-3.513-2.777-5.944l7.336-21.418
				c0.867-2.53,3.577-3.865,6.055-2.985l28.419,10.1c3.21,1.141,4.935,4.722,3.849,8.004l-6.709,20.272
				C398.526,287.549,395.933,288.844,393.548,287.986z"/>
			<g style="opacity:0.3;">
				<path style="fill:#FFFFFF;" d="M392.841,273.112l-1.568,1.37l-0.415-2.079l8.903-26.632c1.415-4.234,0.878-8.267-4.369-10.121
					c-4.907-1.733-8.769,0.74-10.199,4.96l-8.992,26.55l-1.617,1.349l-0.358-2.055l9.003-26.539
					c1.664-4.906,4.863-8.236,12.581-5.511c7.732,2.73,7.564,7.139,5.921,12.064L392.841,273.112z"/>
			</g>
			<polygon style="fill:#407BFF;" points="380.238,257.083 376.985,255.924 377.403,254.694 380.655,255.852 			"/>
			<polygon style="fill:#407BFF;" points="377.536,265.065 374.277,263.901 374.697,262.665 377.954,263.828 			"/>
			<polygon style="fill:#407BFF;" points="396.95,263.039 393.685,261.875 394.098,260.64 397.362,261.803 			"/>
			<polygon style="fill:#407BFF;" points="394.279,271.049 391.008,269.88 391.423,268.639 394.693,269.807 			"/>
			<polygon style="fill:#FFFFFF;" points="390.499,261.526 383.516,259.037 384.405,256.403 391.383,258.888 			"/>
		</g>
		<path style="fill:#FFB573;" d="M398.917,244.673c-3.124,1.796-15.788-0.234-26.497-6.676c-0.505-0.304-1.031-0.262-1.194-0.385
			c-0.663-0.494,1.032-1.618,2.031-2.137c0.55-0.286,24.184,2.701,25.814,2.928C400.887,243.217,399.222,243.158,398.917,244.673z"
			/>
		<g>
			<path style="fill:#FFB573;enable-background:new    ;" d="M388.827,341.588c1.728,4.908,7.496,7.068,11.528,4.023
				c0.167-0.126,0.326-0.258,0.476-0.397c17.496-16.2,39.754-39.811,39.754-39.811l-3.749-4.753c0,0-17.66,9.697-37.05,26.246
				c-4.03,3.437-8.144,7.182-12.19,11.185l0.001,0.01L388.827,341.588z"/>
			<path style="opacity:0.8;fill:#263238;enable-background:new    ;" d="M388.827,341.588c1.728,4.908,7.496,7.068,11.528,4.023
				c0.167-0.126,0.326-0.258,0.476-0.397c17.496-16.2,39.754-39.811,39.754-39.811l-3.749-4.753c0,0-17.66,9.697-37.05,26.246
				c-4.03,3.437-8.144,7.182-12.19,11.185l0.001,0.01L388.827,341.588z"/>
		</g>
		<path style="fill:#263238;" d="M434.571,301.226c0.25-0.809,0.689-1.539,1.277-2.126c2.099-2.186,7.777-7.826,7.777-7.826
			l0.514,0.507c0,0-2.56,3.004-3.663,4.716c-1.104,1.715,0.352,0.802,2.647,0.154c2.294-0.648,5.944,0.14,9.37,3.36
			c4.025,3.788,5.46,5.534,3.426,5.37c-2.033-0.163-5.217-2.116-5.217-2.116s-8.674,1.595-12.196,5.305
			c-3.776,3.986-4.595-4.668-6.035-5.137C432.212,303.041,434.425,301.727,434.571,301.226z"/>
		<g>
			<g>
				<g>
					<path style="fill:#FFB573;" d="M374.509,205.921c1.884,2.239,3.343,4.946,0.838,8.253c-0.53,0.699-0.858,1.556-0.818,2.436
						c0.063,1.411,0.964,2.727,5.319-0.289c6.3-4.358,5.443-8.728,5.443-8.728c-3.522-0.819-6.082-7.968-7.162-12.071
						L374.509,205.921z"/>
					<path style="opacity:0.2;enable-background:new    ;" d="M378.187,201.79c0.627,1.741-1.048,4.701-2.389,5.924
						c-0.372-0.638-0.801-1.24-1.283-1.797l2.143-6.157C377.3,200.324,377.821,201.015,378.187,201.79z"/>
					<path style="fill:#263238;" d="M359.475,186.832c-1.677,6.526,0.826,13.691,5.439,18.611c4.66-5.109,13.466-4.034,18.366-8.879
						c3.278-3.24,3.882-8.686,1.854-12.823c-2.188-4.464-8.625-8.761-13.702-8.058C365.735,176.473,360.889,181.331,359.475,186.832
						z"/>
					<path style="fill:#FFB573;" d="M378.888,184.609c-2.855-4.189-8.551-5.265-12.735-2.409
						c-5.914,3.986-4.811,13.981-2.176,19.645c2.904,6.328,11.369,6.582,15.325,0.381c2.648-4.127,2.085-6.951,1.105-13.652
						C380.215,187.151,379.695,185.793,378.888,184.609z"/>
					<path style="fill:#ED893E;" d="M367.323,198.613c-0.626,0.305-1.353,0.32-1.99,0.04c0.577-1.223,0.983-2.52,1.206-3.852
						L367.323,198.613z"/>
					<path style="fill:#263238;" d="M372.453,198.031c0.033-0.084-0.008-0.179-0.091-0.212c-0.083-0.033-0.177,0.008-0.21,0.092
						c-0.596,1.26-1.758,2.154-3.122,2.404c-0.083,0.023-0.135,0.105-0.121,0.191c0.001,0.003,0.001,0.006,0.002,0.008
						c0.018,0.083,0.099,0.135,0.181,0.117c0.258-0.048,0.511-0.117,0.757-0.206C371,200.009,371.938,199.147,372.453,198.031z"/>
				</g>
				<g>
					<path style="fill:#263238;" d="M367.702,179.154c-0.524,0.847-0.875,1.796-0.991,2.794c7.81,1.805,13.574,9.983,15.784,17.771
						c2.115-2.777,6.259-6.177,7.861-9.518c1.797-3.747-0.598-8.041-4.199-10.103c-2.466-1.412-7.18-3.032-9.898-3.91
						C373.068,175.157,369.469,176.294,367.702,179.154z"/>
				</g>
				<path style="fill:#FFB573;" d="M383.35,192.612c-0.244-1.202-1.411-1.979-2.607-1.737c-1.648,0.366-2.251,2.673-2.152,4.15
					c0.134,1.633,1.406,2.76,2.808,1.743c1.048-0.781,1.747-1.946,1.946-3.242C383.41,193.225,383.412,192.914,383.35,192.612z"/>
			</g>
			<g>
				<path style="fill:#263238;" d="M370.483,191.948c0.175,0.653-0.032,1.278-0.464,1.398c-0.432,0.12-0.912-0.32-1.082-0.985
					c-0.17-0.665,0.032-1.277,0.456-1.394C369.816,190.851,370.304,191.288,370.483,191.948z"/>
				<path style="fill:#263238;" d="M364.522,194.087c0.174,0.653-0.034,1.279-0.458,1.396c-0.424,0.117-0.912-0.321-1.089-0.983
					c-0.177-0.662,0.035-1.279,0.458-1.395C363.856,192.988,364.352,193.421,364.522,194.087z"/>
				<path style="fill:#263238;" d="M363.63,193.09l-1.69-0.029C361.94,193.061,363.073,194.072,363.63,193.09z"/>
				<path style="fill:#263238;" d="M371.736,188.987c0.051-0.028,0.095-0.067,0.128-0.114c0.099-0.154,0.056-0.359-0.097-0.458
					c-0.002-0.001-0.004-0.002-0.006-0.003c-1.038-0.71-2.356-0.867-3.533-0.421c-0.162,0.079-0.234,0.272-0.164,0.439
					c0.074,0.163,0.264,0.238,0.429,0.168c0.977-0.352,2.063-0.212,2.919,0.376C371.51,189.034,371.633,189.039,371.736,188.987z"/>
				<path style="fill:#263238;" d="M361.686,192.568c0.044-0.038,0.078-0.086,0.1-0.14c0.364-0.973,1.169-1.714,2.165-1.993
					c0.179-0.033,0.298-0.206,0.266-0.386c0-0.002-0.001-0.003-0.001-0.004c-0.04-0.18-0.215-0.294-0.395-0.259
					c-1.216,0.324-2.204,1.216-2.654,2.398c-0.075,0.167-0.001,0.363,0.165,0.438C361.451,192.674,361.589,192.653,361.686,192.568
					L361.686,192.568z"/>
				<path style="fill:#263238;" d="M369.589,190.953l-1.689-0.029C367.9,190.923,369.035,191.933,369.589,190.953z"/>
			</g>
			<path style="fill:#263238;" d="M360.772,196.264c0.766,4.103,4.1,9.775,7.653,11.952c-2.393,1.814-6.678-0.239-9.2-1.846
				c-2.519-1.605-4.07-4.483-4.509-7.451c-0.438-2.963,0.141-6.005,1.18-8.811c1.711-4.62,4.963-8.294,8.789-11.364
				c0.767-0.615,2.068-1.109,2.568-0.265c0.343,0.58-0.05,1.306-0.432,1.863C363.126,185.724,360.227,189.476,360.772,196.264z"/>
			<g>
				<path style="fill:#263238;" d="M379.334,203.771c-0.02,0-0.04-0.003-0.06-0.007c-0.134-0.033-0.216-0.169-0.183-0.303
					c2.669-10.795-8.903-19.034-12.514-21.301c-0.117-0.074-0.152-0.228-0.079-0.345c0.075-0.117,0.23-0.151,0.345-0.079
					c3.682,2.313,15.483,10.724,12.733,21.845C379.548,203.695,379.446,203.771,379.334,203.771z"/>
			</g>
			<polygon style="fill:#407BFF;" points="381.362,195.949 381.142,199.765 382.159,200.601 382.658,199.431 			"/>
		</g>
		<g>
			<g>
				<path style="fill:#407BFF;" d="M398.207,207.395c-1.621-0.388-3.366,0.053-4.516,1.261c-1.266,1.331-2.06,3.192-2.299,5.055
					c-0.368,2.883,0.353,5.795,1.139,8.606c0.787,2.816,1.654,5.676,1.576,8.606c3.063-1.678,7.512-5.021,11.793-5.441
					c-0.591-6.816-1.379-11.351-2.702-13.607c-0.759-1.295-1.544-2.62-2.708-3.558C399.973,207.899,399.06,207.6,398.207,207.395z"
					/>
			</g>
			<g style="opacity:0.1;">
				<path style="fill:#FFFFFF;" d="M398.207,207.395c-1.621-0.388-3.366,0.053-4.516,1.261c-1.266,1.331-2.06,3.192-2.299,5.055
					c-0.368,2.883,0.353,5.795,1.139,8.606c0.787,2.816,1.654,5.676,1.576,8.606c3.063-1.678,7.512-5.021,11.793-5.441
					c-0.591-6.816-1.379-11.351-2.702-13.607c-0.759-1.295-1.544-2.62-2.708-3.558C399.973,207.899,399.06,207.6,398.207,207.395z"
					/>
			</g>
		</g>
		<g>
			<path style="fill:#FFB573;" d="M325.331,239.501c0,0-7.55,1.248-7.646,1.589c-0.096,0.341-0.063,4.589-0.063,4.589l6.782-2.568
				L325.331,239.501z"/>
			<polygon style="fill:#FFB573;" points="317.622,245.679 311.244,239.668 314.094,238.841 318.824,241.407 			"/>
		</g>
	</g>
</g>
<g id="Character_1">
	<g>
		<g>
			<polygon style="fill:#F7978D;" points="125.011,398.179 132.138,397.79 132.766,414.675 125.638,415.065 			"/>
			<path style="fill:#263238;" d="M134.524,413.15c2.212,1.375,5.423,2.574,11.277,3.162c1.294,0.132,1.723,3.103-1.292,3.428
				s-8.263,0.801-10.438,1.039c-3.547,0.382-4.869,0.697-7.673,1.048c-0.698,0.069-1.32-0.438-1.393-1.135l-0.303-6.42
				c-0.019-0.283,0.193-0.529,0.476-0.551l8.062-0.881C133.69,412.802,134.141,412.91,134.524,413.15z"/>
			<polygon style="opacity:0.2;enable-background:new    ;" points="125.33,406.887 132.466,406.5 132.136,397.799 125.009,398.188 
							"/>
			<path style="fill:#407BFF;" d="M137.989,413.75c0.199-0.265,0.241-0.617,0.11-0.921c-0.063-0.212-0.234-0.374-0.448-0.425
				c-0.91-0.249-2.789,1.355-3,1.546c-0.042,0.047-0.056,0.112-0.036,0.172c0.021,0.065,0.076,0.113,0.143,0.125
				c0.642,0.086,1.292,0.1,1.937,0.042C137.178,414.276,137.639,414.084,137.989,413.75z M135.189,413.951
				c0.764-0.575,1.902-1.354,2.391-1.213c0.104,0.028,0.184,0.11,0.21,0.214c0.1,0.198,0.079,0.435-0.054,0.612
				c-0.298,0.381-1.234,0.522-2.55,0.404L135.189,413.951z"/>
			<path style="fill:#407BFF;" d="M134.88,414.206c0.674-0.509,1.573-2.122,1.328-2.883c-0.093-0.282-0.366-0.464-0.662-0.442
				c-0.265-0.01-0.52,0.103-0.688,0.308c-0.647,0.779-0.222,2.833-0.239,2.915c0.009,0.055,0.046,0.102,0.096,0.124l0.081,0.017
				L134.88,414.206z M135.511,411.224c0.247-0.004,0.363,0.115,0.344,0.205c-0.02,0.869-0.374,1.698-0.99,2.312
				c-0.174-0.781-0.097-1.598,0.22-2.333c0.086-0.108,0.213-0.173,0.35-0.181L135.511,411.224z"/>
			<polygon style="fill:#F7978D;" points="68.663,390.688 75.731,392.185 70.58,408.177 63.521,406.683 			"/>
			<path style="fill:#263238;" d="M72.495,408.186c1.658,1.985,5.078,4.428,10.459,6.804c1.199,0.537,0.669,3.485-2.295,2.857
				c-2.965-0.628-8.828-2.105-10.979-2.56c-3.489-0.739-4.843-0.855-7.611-1.385h0c-0.688-0.151-1.123-0.831-0.972-1.518l1.71-6.202
				c0.073-0.273,0.351-0.437,0.626-0.368l7.936,1.68C71.809,407.594,72.205,407.838,72.495,408.186z"/>
			<polygon style="opacity:0.2;enable-background:new    ;" points="66.01,398.937 73.07,400.432 75.73,392.194 68.661,390.697 			
				"/>
			<g>
				<path style="fill:#407BFF;" d="M113.547,240.986c0,0,7.525,65.076,8.098,89.402c0.526,22.408,0.153,72.002,0.153,72.002
					l12.97-0.606c0,0,5.407-46.078,6.958-68.66c1.421-20.673-3.007-86.809-3.007-86.809L113.547,240.986z"/>
				<path style="opacity:0.2;enable-background:new    ;" d="M116.638,266.666c1.166,13.465,2.741,30.788,4.181,45.278
					c2.974-8.385,4.8-29.48,1.241-42.415C119.909,261.661,117.956,263.393,116.638,266.666z"/>
				<polygon style="fill:#263238;" points="119.673,399.797 136.441,398.521 135.67,404.034 121.56,405.202 				"/>
				<path style="fill:#407BFF;" d="M98.832,243.508c0,0-12.14,59.89-16.336,83.857c-3.863,22.083-19.029,68.909-19.029,68.909
					l12.934,2.738c0,0,21.438-47.368,27.381-69.237c5.428-19.976,19.02-81.192,19.02-81.192L98.832,243.508z"/>
				<polygon style="fill:#263238;" points="63.151,391.882 80.532,394.759 78.715,399.502 62.943,396.163 				"/>
			</g>
			<path style="fill:#407BFF;" d="M74.965,409.19c0.278-0.194,0.428-0.525,0.39-0.862c0.009-0.22-0.097-0.429-0.28-0.55
				c-0.788-0.516-3.083,0.424-3.342,0.53c-0.056,0.034-0.093,0.093-0.1,0.158c0,0.066,0.039,0.127,0.1,0.153
				c0.584,0.282,1.196,0.5,1.826,0.651C74.022,409.414,74.521,409.385,74.965,409.19z M72.285,408.463
				c0.924-0.352,2.226-0.7,2.607-0.402c0.088,0.063,0.137,0.166,0.131,0.273c0.026,0.217-0.066,0.432-0.242,0.563
				c-0.403,0.255-1.342,0.094-2.547-0.416L72.285,408.463z"/>
			<path style="fill:#407BFF;" d="M71.892,408.625c0.775-0.27,2.153-1.518,2.155-2.33c-0.002-0.296-0.204-0.552-0.491-0.623
				c-0.249-0.089-0.525-0.057-0.746,0.088c-0.859,0.536-1.116,2.597-1.135,2.687c-0.01,0.054,0.011,0.11,0.054,0.144
				c0.025,0.014,0.053,0.02,0.081,0.017C71.836,408.622,71.864,408.628,71.892,408.625z M73.455,405.972
				c0.236,0.088,0.286,0.212,0.265,0.311c0.001,0.529-0.941,1.501-1.665,1.886c0.075-0.796,0.403-1.547,0.936-2.144
				c0.116-0.075,0.258-0.1,0.392-0.068L73.455,405.972z"/>
		</g>
		<g>
			<g>
				<g>
					<g>
						<path style="fill:#407BFF;" d="M75.135,256.87c1.689-1.682,1.931-3.522,2.976-5.471c0.713-1.33-0.931-0.813,0.711-0.638
							c0.588,0.063,1.211,0.405,1.755,0.613c1.423,0.545,2.796,1.225,4.232,1.736c1.233,0.439,3.445,0.236,4.489,0.847
							c1.704,0.997,0.068,5.404-0.284,6.826c-0.425,1.721,2.201,2.617,2.63,0.881c0.613-2.479,2.197-6.906,0.283-9.235
							c-1.186-1.444-3.016-1.154-4.662-1.476c-3.104-0.607-6.286-3.441-9.551-3.104c-1.109,0.115-1.75,0.604-2.208,1.609
							c-0.519,1.141-0.214,2.409-0.894,3.608c-0.35,0.617-0.802,1.214-1.305,1.715C72.048,256.038,73.869,258.131,75.135,256.87
							L75.135,256.87z"/>
					</g>
					<g style="opacity:0.3;">
						<path d="M75.135,256.87c1.689-1.682,1.931-3.522,2.976-5.471c0.713-1.33-0.931-0.813,0.711-0.638
							c0.588,0.063,1.211,0.405,1.755,0.613c1.423,0.545,2.796,1.225,4.232,1.736c1.233,0.439,3.445,0.236,4.489,0.847
							c1.704,0.997,0.068,5.404-0.284,6.826c-0.425,1.721,2.201,2.617,2.63,0.881c0.613-2.479,2.197-6.906,0.283-9.235
							c-1.186-1.444-3.016-1.154-4.662-1.476c-3.104-0.607-6.286-3.441-9.551-3.104c-1.109,0.115-1.75,0.604-2.208,1.609
							c-0.519,1.141-0.214,2.409-0.894,3.608c-0.35,0.617-0.802,1.214-1.305,1.715C72.048,256.038,73.869,258.131,75.135,256.87
							L75.135,256.87z"/>
					</g>
				</g>
			</g>
			<g>
				<path style="fill:#407BFF;" d="M92.259,300.942l-45.55-15.263c-2.925-0.98-4.501-4.146-3.521-7.071l8.966-26.758
					c0.569-1.698,2.406-2.613,4.104-2.044l49.994,16.752c1.698,0.569,2.613,2.406,2.044,4.104l-8.966,26.758
					C98.349,300.345,95.184,301.922,92.259,300.942z"/>
				<path style="opacity:0.3;fill:#FFFFFF;" d="M92.259,300.942l-45.55-15.263c-2.925-0.98-4.501-4.146-3.521-7.071l8.966-26.758
					c0.569-1.698,2.406-2.613,4.104-2.044l49.994,16.752c1.698,0.569,2.613,2.406,2.044,4.104l-8.966,26.758
					C98.349,300.345,95.184,301.922,92.259,300.942z"/>
				<g>
					<g>
						
							<rect x="63.027" y="281.349" transform="matrix(0.3303 -0.9439 0.9439 0.3303 -215.8463 259.4943)" style="fill:#407BFF;" width="23.819" height="0.999"/>
						<g style="opacity:0.3;">
							
								<rect x="63.027" y="281.349" transform="matrix(0.3303 -0.9439 0.9439 0.3303 -215.8463 259.4943)" width="23.819" height="0.999"/>
						</g>
					</g>
				</g>
				<path style="opacity:0.2;" d="M105.372,269.817l-50.458-16.908c-1.57-0.526-3.268,0.32-3.794,1.89l-0.349,1.043
					c-1.481,4.421,0.902,9.206,5.322,10.687l40.133,13.448c4.421,1.481,9.206-0.902,10.687-5.322l0.35-1.043
					C107.788,272.041,106.942,270.342,105.372,269.817z"/>
				<path style="fill:#407BFF;" d="M106.484,266.636l-50.458-16.908c-1.569-0.526-3.268,0.32-3.794,1.89l-0.35,1.043
					c-1.481,4.421,0.902,9.206,5.323,10.687l40.133,13.448c4.421,1.481,9.206-0.902,10.687-5.322l0.35-1.043
					C108.899,268.861,108.053,267.162,106.484,266.636z"/>
				<g>
					<path style="fill:#407BFF;" d="M106.484,266.636l-50.458-16.908c-1.569-0.526-3.268,0.32-3.794,1.89l-0.35,1.043
						c-1.481,4.421,0.902,9.206,5.323,10.687l40.133,13.448c4.421,1.481,9.206-0.902,10.687-5.322l0.35-1.043
						C108.899,268.861,108.053,267.162,106.484,266.636z"/>
					<path style="opacity:0.5;fill:#FFFFFF;" d="M106.484,266.636l-50.458-16.908c-1.569-0.526-3.268,0.32-3.794,1.89l-0.35,1.043
						c-1.481,4.421,0.902,9.206,5.323,10.687l40.133,13.448c4.421,1.481,9.206-0.902,10.687-5.322l0.35-1.043
						C108.899,268.861,108.053,267.162,106.484,266.636z"/>
				</g>
				<path style="fill:#407BFF;" d="M62.38,272.301l-1.673-0.56c-1.021-0.342-1.571-1.447-1.229-2.468l2.543-7.59
					c0.342-1.021,1.447-1.571,2.467-1.229l1.673,0.561c1.021,0.342,1.571,1.447,1.229,2.467l-2.543,7.59
					C64.505,272.093,63.4,272.643,62.38,272.301z"/>
				<path style="fill:#407BFF;" d="M89.555,281.407l-1.673-0.56c-1.021-0.342-1.571-1.447-1.229-2.467l2.543-7.59
					c0.342-1.021,1.447-1.571,2.467-1.229l1.673,0.561c1.021,0.342,1.571,1.447,1.229,2.467l-2.543,7.589
					C91.68,281.199,90.576,281.749,89.555,281.407z"/>
				<path style="fill:#FFFFFF;" d="M62.38,272.301l-1.673-0.56c-1.021-0.342-1.571-1.447-1.229-2.468l2.543-7.59
					c0.342-1.021,1.447-1.571,2.467-1.229l1.673,0.561c1.021,0.342,1.571,1.447,1.229,2.467l-2.543,7.59
					C64.505,272.093,63.4,272.643,62.38,272.301z"/>
				<path style="fill:#FFFFFF;" d="M89.555,281.407l-1.673-0.56c-1.021-0.342-1.571-1.447-1.229-2.467l2.543-7.59
					c0.342-1.021,1.447-1.571,2.467-1.229l1.673,0.561c1.021,0.342,1.571,1.447,1.229,2.467l-2.543,7.589
					C91.68,281.199,90.576,281.749,89.555,281.407z"/>
			</g>
		</g>
		<g>
			<g>
				<path style="fill:#263238;" d="M147.862,192.298c0.448,0.888,1.017,1.949,1.538,2.926c0.521,0.977,1.103,1.976,1.671,2.954
					c1.146,1.948,2.315,3.874,3.561,5.696c1.199,1.767,2.495,3.467,3.883,5.091c1.119,1.366,2.442,2.551,3.922,3.513l0.204,0.126
					c0.062,0.013,0,0,0.044,0.009l0.044,0.009c0,0,0.097,0.021,0.247,0.052c0.558-0.01,1.107-0.139,1.611-0.378
					c1.719-0.816,3.308-1.881,4.717-3.16c1.674-1.421,3.249-2.954,4.715-4.589c0.758-0.835,1.524-1.669,2.252-2.538
					c0.728-0.869,1.476-1.79,2.125-2.593l0.126-0.158c1.198-1.782,3.614-2.255,5.396-1.056c1.777,1.195,2.253,3.602,1.064,5.384
					c-2.475,4.529-5.499,8.735-9.004,12.523c-1.976,2.125-4.262,3.938-6.781,5.378c-1.611,0.901-3.378,1.491-5.208,1.737
					c-1.107,0.131-2.228,0.096-3.325-0.105c-0.576-0.102-1.143-0.253-1.693-0.451c-0.274-0.058-0.581-0.215-0.791-0.315
					l-0.597-0.274c-2.696-1.397-5.14-3.236-7.23-5.44c-1.873-1.886-3.602-3.91-5.172-6.055c-1.544-2.07-2.971-4.17-4.304-6.323
					c-0.696-1.069-1.321-2.124-1.94-3.25c-0.619-1.127-1.21-2.165-1.84-3.414c-1.505-2.969-0.318-6.596,2.651-8.101
					c2.969-1.505,6.596-0.318,8.101,2.651l0,0L147.862,192.298z"/>
				<path style="fill:#F7978D;" d="M181.734,202.419l5.668,2.057l-0.396-6.621c0,0-5.893-2.086-6.676,1.049l-0.002,1.447
					C180.316,201.267,180.878,202.093,181.734,202.419z"/>
				<polygon style="fill:#F7978D;" points="193.23,202.907 194.427,197.25 187.006,197.855 187.402,204.476 				"/>
			</g>
			<g id="Character--inject-2_1_">
				<path style="opacity:0.3;enable-background:new    ;" d="M149.544,215.497c-0.669-0.765-1.302-1.522-1.922-2.296
					c-1.934-2.479-3.681-5.1-5.225-7.839c-1.516-2.666-2.883-5.415-4.093-8.233c-0.171-0.395-0.332-0.797-0.492-1.2
					c3.037-1.812,9.478-0.921,11.569,7.492C150.218,207.398,150.274,211.499,149.544,215.497z"/>
				<path style="fill:#FFFFFF;" d="M136.55,251.493l-37.718-7.985c0.442-3.429,3.516-14.243,5.923-28.333
					c1.497-9.72,2.362-19.527,2.589-29.36c0.001-0.028,0.002-0.056,0.004-0.084c0.144-2.547,2.326-4.495,4.873-4.351l0.081,0.017
					c2.348,0.148,5.277,0.409,8.108,0.867c5.411,0.829,10.77,1.963,16.052,3.398c1.74,0.566,3.442,1.242,5.096,2.023
					c2.364,1.022,3.978,3.256,4.207,5.82C146.427,201.757,146.11,217.886,136.55,251.493z"/>
				<path style="fill:#407BFF;" d="M131.79,191.1l-1.08,2.16c-0.2,0.4-0.52,0.63-0.83,0.6l-1.87-0.16
					c-0.27-0.01-0.49-0.24-0.59-0.59l-0.76-2.59l2.8-1.74L131.79,191.1z"/>
				<path style="fill:#263238;" d="M120.004,181.592c-2.977-0.479-6.073-0.757-8.551-0.913l-0.081-0.017
					c-0.049-0.003-0.097-0.005-0.146-0.007c-2.677-0.089-4.92,2.008-5.01,4.686c-0.23,7.109-0.786,19.637-2.719,30.956
					c-3.663,26.297-7.296,31.524-7.296,31.524L113.033,251c5.084-23.883,9.008-56.502,8.596-69.187L120.004,181.592z"/>
				<path style="opacity:0.3;enable-background:new    ;" d="M104.067,212.669c1.22-8.486,1.754-17.251,2.021-23.644
					c0.078-0.088,0.164-0.168,0.258-0.238c2.119-1.799,7.381,2.516,5.948,10.58C110.936,207.031,107.211,211.644,104.067,212.669z"
					/>
				<path style="fill:#263238;" d="M139.388,256.963l-10.163-2.719c6.381-44.754,7.871-56.646,6.44-69.186
					c2.517,0.662,4.996,1.458,7.428,2.385c2.587,1.254,4.326,3.773,4.582,6.636C148.531,201.098,143.212,219.014,139.388,256.963z"
					/>
				<path style="fill:#263238;" d="M127.682,238.512c1.058-0.53,2.346-0.102,2.877,0.956c0.001,0.002,0.002,0.004,0.003,0.006
					c0.534,1.062,0.105,2.356-0.957,2.89c-1.062,0.534-2.356,0.105-2.89-0.957c-0.534-1.062-0.105-2.356,0.957-2.89
					C127.675,238.515,127.679,238.514,127.682,238.512z"/>
				<path style="fill:#FFFFFF;" d="M126.411,241.6c-0.634-1.235-0.147-2.749,1.088-3.383l0,0c0.594-0.305,1.286-0.356,1.919-0.142
					c1.271,0.381,2.025,1.687,1.718,2.978c-0.32,1.345-1.67,2.176-3.015,1.856C127.383,242.751,126.756,242.27,126.411,241.6z"/>
				<path style="fill:#F7978D;" d="M129.71,188.831c-8.046-1.25-9.93-6.626-9.93-6.626c4.227-2.75,4.884-12.452,4.785-17.874
					l3.539,4.47l4.82,6.092c-0.336,0.745-0.627,1.51-0.872,2.29c-0.986,3.096-0.776,6.163,3.655,8.253
					C135.708,185.436,136.573,189.869,129.71,188.831z"/>
				<path style="fill:#FFFFFF;" d="M118.279,181.265l2.641-0.385c2.107,3.218,4.933,5.902,8.256,7.839
					c-1.757,0.71-3.264,1.926-4.328,3.494C116.988,187.545,118.279,181.265,118.279,181.265z"/>
				<path style="fill:#FFFFFF;" d="M135.774,184.987l-2.185-0.963c0,0-1.928,4.559-4.42,4.73c3.767,2.459,4.016,4.628,4.016,4.628
					C139.491,192.725,135.774,184.987,135.774,184.987z"/>
				<path style="opacity:0.2;enable-background:new    ;" d="M132.309,176.454l-4.618-5.802c-0.206,0.733-0.334,1.483-0.382,2.239
					c-0.149,2.299,2.24,5.207,4.325,6.128L132.309,176.454z"/>
				<path style="fill:#263238;" d="M137.378,165.858c0,0,0.248,3.603,4.005,2.227c0.161-3.838,1.421-3.543,2.718-5.79
					c1.721-2.531,1.913-5.802,0.5-8.516l-2.389-1.205C132.888,149.684,137.378,165.858,137.378,165.858z"/>
				<path style="opacity:0.6;fill:#FFFFFF;" d="M137.378,165.858c0,0,0.248,3.603,4.005,2.227c0.161-3.838,1.421-3.543,2.718-5.79
					c1.721-2.531,1.913-5.802,0.5-8.516l-2.389-1.205C132.888,149.684,137.378,165.858,137.378,165.858z"/>
				<path style="fill:#F7978D;" d="M127.636,151.301c3.474-3.896,9.449-4.237,13.344-0.763c5.812,4.932,3.768,15.435,0.497,21.117
					c-0.914,1.659-2.311,3-4.005,3.846c-4.611,2.302-10.215,0.431-12.517-4.18c-2.403-4.664-1.12-8.67,0.484-15.668
					C125.778,154.035,126.535,152.535,127.636,151.301z"/>
				<path style="fill:#263238;" d="M124.299,162.02c0,0,0.937,3.113,4.34,1.449c-0.591-3.363,0.693-3.273,1.53-5.398
					c1.199-2.436,0.757-5.331-1.152-7.539l-2.57-0.751C114.228,148.611,124.299,162.02,124.299,162.02z"/>
				<path style="opacity:0.6;fill:#FFFFFF;" d="M124.299,162.02c0,0,0.937,3.113,4.34,1.449c-0.591-3.363,0.693-3.273,1.53-5.398
					c1.199-2.436,0.757-5.331-1.152-7.539l-2.57-0.751C114.228,148.611,124.299,162.02,124.299,162.02z"/>
				<g>
					<path style="fill:#263238;" d="M136.432,142.81c-1.25-0.475-2.752-0.207-3.762,0.67c-0.668,0.581-1.324,1.471-2.192,1.296
						c-0.441-0.089-0.77-0.442-1.137-0.702c-1.407-0.998-3.44-0.575-4.801,0.483c-1.361,1.058-2.224,2.614-3.121,4.086
						c-0.898,1.472-1.932,2.963-3.469,3.745c2.761,1.335,6.101,1.417,8.924,0.218c-0.794,0.967-1.909,1.666-3.125,1.959
						c2.791,0.813,5.878,0.563,8.502-0.687c1.489-0.71,2.869-1.74,4.495-2.019c1.626-0.279,3.637,0.6,3.787,2.243
						c0.227-0.864,1.409-1.154,2.215-0.77c0.806,0.383,1.306,1.197,1.741,1.977c0.434,0.78,0.884,1.609,1.649,2.07
						c0.764,0.461,1.946,0.36,2.339-0.442c-1.188-0.054-2.244-1.114-2.293-2.303c0.869,0.488,1.912,0.657,2.89,0.467
						c-1.306-0.086-3.854-4.729-4.249-5.977c-0.395-1.247-0.991-2.508-2.071-3.248c-1.215-0.833-2.443,0.62-3.594,0.004
						C138.072,145.298,137.731,143.303,136.432,142.81z"/>
					<g>
						<path style="fill:#263238;" d="M134.81,168.065c-0.928-0.764-1.531-1.911-1.635-3.109c0.678,0.267,1.356,0.533,2.035,0.8
							c0.847,0.333,3.291,1.36,2.748,2.706C137.448,169.726,135.463,168.603,134.81,168.065z"/>
						<path style="fill:#263238;" d="M140.551,170.267c1.202-0.02,2.389-0.542,3.216-1.414c-0.697-0.214-1.393-0.428-2.09-0.641
							c-0.87-0.267-3.421-0.986-3.835,0.405C137.453,169.923,139.705,170.281,140.551,170.267z"/>
					</g>
				</g>
				<path style="fill:#FF5652;" d="M137.784,167.955c0.82,0.522,1.828,0.656,2.755,0.366c-0.667-1.82-1.083-3.723-1.239-5.655
					L137.784,167.955z"/>
				<path style="fill:#F7978D;" d="M124.701,157.178c1.7,0.577,2.364,3.419,2.288,5.206c-0.091,1.992-1.401,3.226-2.872,1.97
					c-1.133-1.066-1.863-2.492-2.064-4.035C121.794,158.375,123,156.6,124.701,157.178z"/>
				<path style="fill:#263238;" d="M135.996,160.343c0.361,0.124,0.506,0.73,0.352,1.236c-0.154,0.506-0.579,0.86-0.941,0.745
					c-0.363-0.115-0.475-0.658-0.354-1.227C135.218,160.537,135.635,160.219,135.996,160.343z"/>
				<path style="fill:#263238;" d="M142.315,162.077c0.361,0.124,0.52,0.667,0.354,1.227c-0.166,0.56-0.592,0.923-0.953,0.799
					c-0.361-0.124-0.518-0.676-0.352-1.236C141.527,162.317,141.954,161.954,142.315,162.077z"/>
				<path style="fill:#263238;" d="M137.149,171.089c0.094,0.015,0.183-0.048,0.201-0.142c0.01-0.093-0.051-0.179-0.142-0.2
					c-1.473-0.201-2.77-1.074-3.511-2.363c-0.041-0.084-0.142-0.12-0.226-0.079c-0.084,0.041-0.12,0.142-0.079,0.226
					c0.659,1.197,1.78,2.07,3.102,2.416C136.702,171.003,136.932,171.028,137.149,171.089z"/>
				<path style="fill:#263238;" d="M142.087,159.672c0.028,0.11,0.106,0.201,0.211,0.245c0.847,0.262,1.528,0.898,1.848,1.725
					c0.046,0.178,0.227,0.285,0.405,0.24c0.005-0.001,0.011-0.003,0.016-0.005c0.178-0.056,0.281-0.241,0.235-0.421l0,0
					c-0.375-1.045-1.219-1.854-2.279-2.183c-0.18-0.057-0.372,0.039-0.436,0.216C142.074,159.549,142.074,159.611,142.087,159.672z"
					/>
				<path style="fill:#263238;" d="M134.802,157.889c0.09,0.07,0.207,0.094,0.317,0.064c0.829-0.314,1.757-0.232,2.518,0.224
					c0.145,0.112,0.354,0.085,0.467-0.06c0.003-0.005,0.007-0.009,0.01-0.014c0.106-0.153,0.073-0.362-0.074-0.477l0,0
					c-0.938-0.593-2.101-0.712-3.14-0.32c-0.176,0.066-0.269,0.259-0.211,0.438C134.717,157.8,134.755,157.849,134.802,157.889z"/>
				<g>
					<path style="fill:#F7978D;" d="M80.747,244.903l-1.297-0.146c-3.059,1.473,0.263,7.132,0.263,7.132l9.003-1.098l-2.61-3.055
						C84.739,246.151,82.826,245.139,80.747,244.903z"/>
					<path style="fill:#F7978D;" d="M88.988,254.669l-0.297-3.892l-9.003,1.098l0.504,4.614c0.007,0.068,0.02,0.134,0.037,0.2
						c0.191,0.731,0.938,1.168,1.669,0.977l6.064-1.589C88.597,255.915,89.028,255.324,88.988,254.669z"/>
				</g>
				<path style="fill:#407BFF;" d="M133.18,228.59c0,0-3.13,7.53-4.51,6.49c-1.38-1.04-4.56-6.8-4.57-6.92
					c0-0.2,3.91-34.46,3.91-34.46l1.87,0.16C129.11,197.71,133.18,228.59,133.18,228.59z"/>
			</g>
		</g>
		<path style="fill:#263238;" d="M81.636,209.973c-3.735,5.351-4.631,30.449-3.655,36.901c1.514-1.824,4.489-2.197,6.406-0.803
			c0.088-4.418,3.675-20.21,5.214-26.8c0.434-1.858,1.524-3.485,3.069-4.606c6.597-4.786,18.547-14.244,19.864-17.965
			c2.132-6.023,0.301-18.303-4.998-14.519C102.539,185.749,84.614,205.708,81.636,209.973z"/>
	</g>
</g>
<g id="Birds">
	<g>
		<g>
			<g>
				<path style="fill:#407BFF;" d="M380.851,83.453c0,0-0.839-0.174-2.09-0.679c-1.257-0.491-2.876-1.322-4.559-2.135
					c-1.676-0.806-3.277-1.223-4.465-1.338c-1.187-0.133-1.994-0.029-2.108-0.312c-0.111-0.239,0.587-0.891,2.037-1.157
					c1.434-0.282,3.496-0.009,5.432,0.93c1.926,0.937,3.271,2.227,4.228,3.139C380.275,82.83,380.851,83.453,380.851,83.453z"/>
			</g>
			<g>
				<path style="fill:#407BFF;" d="M388.192,77.544c0,0-0.594,0.232-1.513,0.59c-0.901,0.367-2.037,0.883-3.304,1.439
					c-2.527,1.112-4.682,2.272-5.034,1.77c-0.164-0.232,0.17-0.799,0.895-1.505c0.724-0.701,1.86-1.55,3.319-2.177
					c1.458-0.641,2.976-0.708,4.005-0.561c0.521,0.079,0.929,0.182,1.207,0.284C388.045,77.48,388.192,77.544,388.192,77.544z"/>
			</g>
		</g>
		<g>
			<g>
				<path style="fill:#407BFF;" d="M367.232,87.859c0,0-0.15-0.091-0.415-0.251c-0.258-0.167-0.644-0.387-1.112-0.642
					c-0.939-0.515-2.238-1.098-3.702-1.608c-2.942-1.054-5.575-0.823-5.656-1.269c-0.037-0.199,0.604-0.538,1.742-0.699
					c1.13-0.163,2.757-0.082,4.424,0.493c1.671,0.582,2.943,1.618,3.681,2.475c0.374,0.429,0.637,0.803,0.795,1.077
					C367.144,87.707,367.232,87.859,367.232,87.859z"/>
			</g>
			<g>
				<path style="fill:#407BFF;" d="M370.116,81.777c0,0-0.421,0.252-1.054,0.608c-0.625,0.351-1.452,0.814-2.35,1.318
					c-1.775,0.971-3.142,2.111-3.48,1.805c-0.154-0.145,0-0.614,0.453-1.232c0.45-0.614,1.234-1.369,2.279-1.942
					c1.05-0.571,2.145-0.724,2.911-0.707C369.647,81.64,370.116,81.777,370.116,81.777z"/>
			</g>
		</g>
		<g>
			<g>
				<path style="fill:#407BFF;" d="M364.795,78.316c0,0-0.996-0.35-2.522-0.995c-1.531-0.635-3.575-1.549-5.818-2.29
					c-2.238-0.738-4.367-0.923-5.9-0.817c-1.538,0.088-2.517,0.382-2.658,0.107c-0.132-0.225,0.674-1.041,2.395-1.554
					c1.7-0.527,4.257-0.56,6.808,0.287c2.546,0.847,4.447,2.3,5.718,3.382C364.092,77.536,364.795,78.316,364.795,78.316z"/>
			</g>
			<g>
				<path style="fill:#407BFF;" d="M371.552,69.73c0,0-0.204,0.058-0.567,0.161c-0.361,0.09-0.876,0.247-1.489,0.441
					c-1.234,0.387-2.83,1.009-4.523,1.782c-3.419,1.529-5.619,3.8-6.097,3.434c-0.215-0.167,0.069-1,0.939-2.082
					c0.86-1.078,2.356-2.352,4.29-3.243c1.943-0.888,3.917-1.05,5.279-0.925c0.686,0.059,1.23,0.163,1.599,0.268
					C371.348,69.671,371.552,69.73,371.552,69.73z"/>
			</g>
		</g>
	</g>
	<g>
		<g>
			<g>
				<path style="fill:#407BFF;" d="M139.926,108.706c0,0-0.839-0.174-2.09-0.679c-1.257-0.491-2.876-1.322-4.559-2.135
					c-1.676-0.806-3.277-1.223-4.465-1.338c-1.187-0.133-1.994-0.029-2.108-0.312c-0.111-0.239,0.587-0.89,2.037-1.157
					c1.434-0.282,3.496-0.009,5.432,0.93c1.926,0.937,3.271,2.227,4.228,3.139C139.35,108.083,139.926,108.706,139.926,108.706z"/>
			</g>
			<g>
				<path style="fill:#407BFF;" d="M147.267,102.797c0,0-0.594,0.232-1.513,0.59c-0.901,0.367-2.037,0.883-3.304,1.439
					c-2.527,1.112-4.682,2.272-5.034,1.77c-0.164-0.232,0.17-0.799,0.895-1.505c0.724-0.701,1.86-1.55,3.319-2.177
					c1.457-0.641,2.976-0.708,4.005-0.561c0.521,0.079,0.929,0.182,1.207,0.284C147.12,102.733,147.267,102.797,147.267,102.797z"/>
			</g>
		</g>
		<g>
			<g>
				<path style="fill:#407BFF;" d="M126.307,113.112c0,0-0.15-0.091-0.415-0.251c-0.258-0.167-0.644-0.387-1.112-0.642
					c-0.938-0.515-2.238-1.097-3.702-1.608c-2.942-1.054-5.575-0.823-5.656-1.269c-0.037-0.199,0.604-0.538,1.742-0.699
					c1.13-0.163,2.757-0.082,4.424,0.493c1.671,0.582,2.943,1.618,3.681,2.475c0.374,0.429,0.637,0.803,0.795,1.077
					C126.219,112.96,126.307,113.112,126.307,113.112z"/>
			</g>
			<g>
				<path style="fill:#407BFF;" d="M129.192,107.03c0,0-0.421,0.252-1.054,0.608c-0.625,0.351-1.452,0.814-2.35,1.318
					c-1.775,0.971-3.142,2.111-3.48,1.805c-0.155-0.145,0-0.614,0.453-1.232c0.45-0.614,1.234-1.369,2.279-1.942
					c1.05-0.571,2.145-0.724,2.911-0.707C128.723,106.893,129.192,107.03,129.192,107.03z"/>
			</g>
		</g>
	</g>
</g>
</svg>
