<?xml version="1.0" encoding="utf-8"?>
<!-- Generator: Adobe Illustrator 27.5.0, SVG Export Plug-In . SVG Version: 6.00 Build 0)  -->
<svg version="1.1" xmlns="http://www.w3.org/2000/svg" xmlns:xlink="http://www.w3.org/1999/xlink" x="0px" y="0px"
	 viewBox="0 0 500 500" style="enable-background:new 0 0 500 500;" xml:space="preserve">
<g id="Background_Complete">
	<g>
		<rect y="382.4" style="fill:#EBEBEB;" width="500" height="0.25"/>
		<rect x="150.04" y="388.78" style="fill:#EBEBEB;" width="23.18" height="0.25"/>
		<rect x="402.1" y="394.14" style="fill:#EBEBEB;" width="56.67" height="0.25"/>
		<rect x="42.72" y="394.14" style="fill:#EBEBEB;" width="56.67" height="0.25"/>
		<path style="fill:#EBEBEB;" d="M237,337.8H43.91c-3.15-0.005-5.7-2.56-5.7-5.71V60.66c0.027-3.13,2.57-5.655,5.7-5.66H237
			c3.153,0,5.71,2.556,5.71,5.71l0,0v271.38C242.71,335.243,240.153,337.8,237,337.8z M43.91,55.2
			c-3.012,0.006-5.45,2.448-5.45,5.46v271.43c0,3.012,2.438,5.454,5.45,5.46H237c3.013-0.005,5.454-2.447,5.46-5.46V60.66
			c-0.006-3.013-2.447-5.454-5.46-5.46H43.91z"/>
		<path style="fill:#EBEBEB;" d="M453.31,337.8h-193.1c-3.151-0.005-5.704-2.559-5.71-5.71V60.66c0.033-3.132,2.578-5.655,5.71-5.66
			h193.1c3.126,0.011,5.663,2.534,5.69,5.66v271.43C459,335.236,456.456,337.789,453.31,337.8z M260.21,55.2
			c-3.013,0.006-5.454,2.447-5.46,5.46v271.43c0.005,3.013,2.447,5.454,5.46,5.46h193.1c3.013-0.005,5.454-2.447,5.46-5.46V60.66
			c-0.005-3.013-2.447-5.454-5.46-5.46H260.21z"/>
	</g>
	<g>
		<g>
			<rect x="291.98" y="303.026" style="fill:#E6E6E6;" width="23.091" height="79.914"/>
			<rect x="275.63" y="303.026" style="fill:#E6E6E6;" width="23.091" height="79.914"/>
			<polygon style="fill:#F0F0F0;" points="294.338,382.941 298.721,382.941 298.721,370.462 289.732,370.462 			"/>
			<rect x="159.563" y="303.026" style="fill:#E6E6E6;" width="23.091" height="79.914"/>
			<rect x="178.825" y="303.026" style="fill:#F0F0F0;" width="119.896" height="73.772"/>
			<path style="fill:#E0E0E0;" d="M291.257,360.2h-46.959c-2.52-0.005-4.562-2.047-4.568-4.568v-44.909
				c0.005-2.52,2.047-4.562,4.568-4.568h46.95c2.521,0.005,4.562,2.047,4.568,4.568v44.909
				C295.81,358.148,293.774,360.189,291.257,360.2z M244.298,307.176c-1.961,0-3.552,1.587-3.557,3.547v44.909
				c-0.021,1.964,1.554,3.574,3.518,3.596c0.013,0,0.026,0,0.039,0h46.95c1.964,0.016,3.57-1.563,3.586-3.527
				c0-0.023,0-0.046,0-0.068v-44.909c-0.005-1.961-1.596-3.547-3.557-3.547H244.298z"/>
			<path style="fill:#E0E0E0;" d="M233.238,360.2h-46.95c-2.52-0.005-4.562-2.047-4.568-4.568v-44.909
				c0.005-2.52,2.047-4.562,4.568-4.568h46.95c2.523,0,4.568,2.045,4.568,4.568v0v44.909
				C237.806,358.155,235.761,360.2,233.238,360.2L233.238,360.2z M186.289,307.176c-1.959,0-3.547,1.588-3.547,3.547v44.909
				c0,1.959,1.588,3.547,3.547,3.547h46.95c1.961,0,3.552-1.587,3.557-3.547v-44.909c-0.005-1.961-1.596-3.547-3.557-3.547H186.289z
				"/>
			<path style="fill:#FAFAFA;" d="M228.885,320.354c-2.437,0.005-4.416-1.966-4.422-4.402c-0.005-2.437,1.966-4.417,4.402-4.422
				c2.437-0.005,4.416,1.966,4.422,4.402c0,0.007,0,0.013,0,0.019C233.282,318.381,231.314,320.349,228.885,320.354z"/>
			<path style="fill:#FAFAFA;" d="M248.662,320.354c-2.437,0.016-4.425-1.946-4.441-4.383c-0.016-2.437,1.946-4.425,4.383-4.441
				c2.437-0.016,4.425,1.946,4.441,4.383c0,0.023,0,0.045,0,0.068C253.029,318.393,251.074,320.344,248.662,320.354z"/>
			<polygon style="fill:#F0F0F0;" points="183.208,382.941 178.825,382.941 178.825,370.462 187.815,370.462 			"/>
			<rect x="152.206" y="303.026" style="fill:#E6E6E6;" width="23.091" height="79.914"/>
			<polygon style="fill:#F0F0F0;" points="170.914,382.941 175.297,382.941 175.297,370.462 166.308,370.462 			"/>
			<rect x="55.402" y="303.026" style="fill:#F0F0F0;" width="119.896" height="73.772"/>
			<path style="fill:#E0E0E0;" d="M167.834,360.2h-46.959c-2.524,0-4.572-2.043-4.577-4.568v-44.909
				c0.005-2.524,2.053-4.568,4.577-4.568h46.95c2.52,0.005,4.562,2.047,4.568,4.568v44.909
				C172.386,358.148,170.35,360.189,167.834,360.2z M120.874,307.176c-1.961,0-3.552,1.587-3.557,3.547v44.909
				c-0.021,1.964,1.554,3.574,3.518,3.596c0.013,0,0.026,0,0.039,0h46.95c1.964,0.016,3.57-1.563,3.586-3.527
				c0-0.023,0-0.046,0-0.068v-44.909c-0.005-1.957-1.59-3.542-3.547-3.547H120.874z"/>
			<path style="fill:#E0E0E0;" d="M109.815,360.2h-46.95c-2.523,0-4.568-2.045-4.568-4.568l0,0v-44.909
				c0-2.523,2.045-4.568,4.568-4.568l0,0h46.95c2.52,0.005,4.562,2.047,4.568,4.568v44.909
				C114.377,358.152,112.335,360.194,109.815,360.2z M62.865,307.176c-1.961,0-3.552,1.587-3.557,3.547v44.909
				c-0.021,1.964,1.554,3.574,3.518,3.596c0.013,0,0.026,0,0.039,0h46.95c1.961,0,3.552-1.587,3.557-3.547v-44.957
				c-0.005-1.961-1.596-3.547-3.557-3.547H62.865z"/>
			<path style="fill:#FAFAFA;" d="M105.461,320.354c-2.437,0.005-4.416-1.966-4.422-4.402c-0.005-2.437,1.966-4.417,4.402-4.422
				c2.437-0.005,4.416,1.966,4.422,4.402c0,0.007,0,0.013,0,0.019C109.863,318.383,107.892,320.354,105.461,320.354z"/>
			<path style="fill:#FAFAFA;" d="M125.238,320.354c-2.437,0.016-4.425-1.946-4.441-4.383c-0.016-2.437,1.946-4.425,4.383-4.441
				c2.437-0.016,4.425,1.946,4.441,4.383c0,0.023,0,0.045,0,0.068C129.605,318.393,127.65,320.344,125.238,320.354z"/>
			<polygon style="fill:#F0F0F0;" points="59.785,382.941 55.402,382.941 55.402,370.462 64.381,370.462 			"/>
		</g>
		<g>
			<rect x="224.321" y="81.52" style="fill:#EBEBEB;" width="42.964" height="42.964"/>
			<rect x="267.286" y="81.527" style="fill:#E0E0E0;" width="1.904" height="42.965"/>
			<rect x="230.147" y="87.345" style="fill:#FFFFFF;" width="31.321" height="31.321"/>
			<path style="fill:#F5F5F5;" d="M251.047,108.244L251.047,108.244c-2.895,2.895-7.588,2.895-10.483,0v0
				c-2.895-2.895-2.895-7.588,0-10.483l0,0c2.895-2.895,7.588-2.895,10.483,0v0C253.941,100.656,253.941,105.35,251.047,108.244z"/>
			<g>
				<rect x="174.826" y="136.758" style="fill:#EBEBEB;" width="50.372" height="50.372"/>
				<rect x="225.198" y="136.766" style="fill:#E0E0E0;" width="2.232" height="50.372"/>
				<rect x="181.656" y="143.588" style="fill:#FFFFFF;" width="36.721" height="36.721"/>
				<rect x="192.181" y="154.114" style="fill:#F5F5F5;" width="15.66" height="15.66"/>
			</g>
		</g>
		<g>
			<rect x="423.227" y="120.563" style="fill:#E6E6E6;" width="27.271" height="6.373"/>
			<rect x="310.349" y="120.563" style="fill:#F5F5F5;" width="112.878" height="6.373"/>
			<rect x="342.714" y="86.737" style="fill:#E0E0E0;" width="31.777" height="33.827"/>
			<rect x="334.575" y="86.737" style="fill:#F0F0F0;" width="8.14" height="33.827"/>
			<rect x="358.953" y="81.52" style="fill:#E6E6E6;" width="23.87" height="39.043"/>
			<rect x="352.062" y="81.52" style="fill:#F0F0F0;" width="6.901" height="39.043"/>
			<rect x="365.986" y="86.737" style="fill:#F0F0F0;" width="20.125" height="33.827"/>
			<rect x="361.388" y="86.737" style="fill:#FAFAFA;" width="4.598" height="33.827"/>
			<rect x="382.458" y="92.461" style="fill:#E6E6E6;" width="26.398" height="28.103"/>
			<rect x="375.699" y="92.461" style="fill:#FAFAFA;" width="6.759" height="28.103"/>
			<rect x="395.946" y="88.127" style="fill:#E6E6E6;" width="19.831" height="32.436"/>
			<rect x="390.222" y="88.127" style="fill:#F0F0F0;" width="5.734" height="32.436"/>
			<rect x="401.792" y="92.461" style="fill:#F0F0F0;" width="19.263" height="28.103"/>
			<rect x="397.966" y="92.461" style="fill:#FAFAFA;" width="3.816" height="28.103"/>
		</g>
		<g>
			<path style="fill:#E6E6E6;" d="M407.091,309.423c8.542-11.166,28.873-15.316,35.9-22.352c9.203-9.233,9.155-23.081,1.322-28.077
				c-6.803-4.344-29.359,25.025-31.896,28.3c-8.746,11.283-11.273,19.66-12.916,27.766c0.185-6.89,0.369-13.227,0.515-18.105
				c0.476-15.938,1.069-21.06,1.341-22.634c0.972-0.777,2.06-1.672,2.702-2.148c5.462-4.072,17.561-8.921,23.616-14.83
				c8.834-8.64,7.405-18.98,1.205-22.828c-6.473-4.023-17.93,5.491-24.014,14.918c-6.084,9.427-3.479,18.465-5.18,26.24
				c-0.36,1.536-0.729,7.367-1.069,15.462c-1.438-7.972-5.845-15.102-12.333-19.952c-8.377-6.686-15.608-14.82-22.508-13.771
				c-6.9,1.05-3.149,11.817,2.274,19.378c4.859,6.735,28.854,13.45,32.382,18.863c-0.418,10.962-0.787,24.85-1.05,37.785
				c-1.895-6.676-0.593-7.24-8.338-17.493c-4.607-6.084-23.499-13.606-25.744-9.407c-2.245,4.198,1.166,12.08,8.299,17.61
				c5.753,4.461,18.465,4.451,21.468,7.221c0.69,0.641,2.964,3.12,4.266,4.548c-0.311,15.783-0.447,29.719-0.292,34.471l1.234,0.049
				c-0.058-1.224,0.087-9.252,0.33-19.884c3.1-5.656,23.965-8.96,30.409-14.84c6.745-6.152,11.584-13.334,8.698-18.144
				c-2.41-4.014-21.38,1.438-29.155,8.086c-5.141,4.422-8.28,9.145-9.718,15.491c0.175-7.24,0.379-15.015,0.573-22.352
				C400.958,316.984,404.525,312.767,407.091,309.423z"/>
			<path style="fill:#F0F0F0;" d="M408.908,382.729h-21.662c-1.186,0-2.206-1.535-2.439-3.683l-1.535-14.014h29.612l-1.536,14.014
				C411.104,381.194,410.094,382.729,408.908,382.729z"/>
			<path style="fill:#F0F0F0;" d="M413.505,370.465h-30.856c-0.739,0-1.361-1.02-1.438-2.381l-0.632-10.36
				c-0.097-1.594,0.573-2.983,1.438-2.983h32.119c0.865,0,1.535,1.39,1.438,2.983l-0.632,10.36
				C414.865,369.444,414.243,370.465,413.505,370.465z"/>
		</g>
		<line style="fill:#EBEBEB;" x1="48.544" y1="394.14" x2="103.618" y2="394.14"/>
	</g>
	<g id="Shadow--inject-62">
		<ellipse id="path--inject-62" style="fill:#F5F5F5;" cx="250" cy="416.24" rx="193.89" ry="11.32"/>
	</g>
</g>
<g id="Background_Simple" style="display:none;">
	<path style="display:inline;fill:#407BFF;" d="M183.88,211.87c54.38-26.4,166.7-145.92,216.65-50.58
		c41.8,79.78-50.65,154.62-106,182c-72,35.63-177.83,21.56-234.8-45.79c-24.5-29-33.34-70,9.4-77.63c14.42-2.58,38.9,6.82,55.2,6
		C145.22,224.82,165.68,220.7,183.88,211.87z"/>
	<path style="display:inline;opacity:0.9;fill:#FFFFFF;enable-background:new    ;" d="M183.88,211.87
		c54.38-26.4,166.7-145.92,216.65-50.58c41.8,79.78-50.65,154.62-106,182c-72,35.63-177.83,21.56-234.8-45.79
		c-24.5-29-33.34-70,9.4-77.63c14.42-2.58,38.9,6.82,55.2,6C145.22,224.82,165.68,220.7,183.88,211.87z"/>
</g>
<g id="Coin">
	<g>
		<g>
			<path style="fill:#407BFF;" d="M214.492,155.682c-2.214,5.367-15.22,5.007-28.856-0.618
				c-13.636-5.625-22.896-14.536-20.682-19.902c0.513-1.244,1.944-5.889,3.478-6.536c5.082-2.143,14.746,2.683,25.221,7.004
				c9.75,4.022,20.893,6.607,22.624,11.904C217.325,150.746,215.123,154.153,214.492,155.682z"/>
			<path style="opacity:0.2;" d="M216.28,147.533c0.828,4.211-0.996,6.227-1.789,8.148c-0.815,1.981-3.096,3.178-6.328,3.623
				c-0.389,0.064-0.798,0.103-1.218,0.135c-2.167,0.161-4.68,0.035-7.416-0.387c-0.351-0.043-0.698-0.109-1.055-0.171
				c-2.676-0.462-5.536-1.201-8.487-2.183c-0.319-0.106-0.641-0.222-0.962-0.338c-1.117-0.393-2.256-0.82-3.389-1.292
				c-1.129-0.462-2.227-0.956-3.299-1.469c-0.309-0.141-0.612-0.295-0.911-0.439c-2.686-1.332-5.125-2.776-7.273-4.263
				c-0.283-0.191-0.548-0.389-0.819-0.574c-2.235-1.627-4.119-3.305-5.539-4.945c-0.248-0.277-0.474-0.55-0.691-0.826
				c-2.153-2.727-3-5.322-2.149-7.388c0.552-1.337,1.759-5.887,3.471-6.541c1.715-0.644,3.922-0.555,6.477-0.011
				c0.329,0.072,0.669,0.15,1.014,0.237c5.046,1.277,11.299,4.127,17.731,6.781c7.586,3.13,16.557,6.376,20.948,10.128
				c0.274,0.226,0.519,0.462,0.755,0.7C215.709,146.815,216.013,147.168,216.28,147.533z"/>
			<g style="opacity:0.2;">
				<path d="M176.38,128.014l-0.464,0.835l-8.121,14.529c-0.248-0.277-0.474-0.55-0.691-0.826l7.798-13.939l0.604-1.081
					L176.38,128.014z"/>
			</g>
			<g style="opacity:0.2;">
				<path d="M182.52,133.931l-8.367,14.967c-0.283-0.191-0.548-0.389-0.819-0.574l8.32-14.888L182.52,133.931z"/>
			</g>
			<g style="opacity:0.2;">
				<path d="M197.909,142.528l-7.923,14.169c-0.319-0.106-0.641-0.222-0.962-0.338l8.009-14.324L197.909,142.528z"/>
			</g>
			<g style="opacity:0.2;">
				<path d="M190.755,138.532l-8.419,15.068c-0.309-0.141-0.612-0.295-0.911-0.439l8.454-15.121L190.755,138.532z"/>
			</g>
			<g style="opacity:0.2;">
				<path d="M207.24,145.267l-7.712,13.785c-0.351-0.043-0.698-0.109-1.055-0.171l7.891-14.106L207.24,145.267z"/>
			</g>
			<path style="fill:#407BFF;" d="M216.22,150.962c-2.214,5.367-15.063,5.157-28.699-0.468s-22.896-14.535-20.683-19.902
				c2.214-5.367,15.063-5.157,28.699,0.468C209.173,136.686,218.433,145.596,216.22,150.962z"/>
			<path style="opacity:0.2;fill:#FFFFFF;" d="M211.584,149.05c-1.564,3.792-11.58,3.257-22.372-1.195
				c-10.792-4.452-18.272-11.134-16.708-14.926c1.564-3.792,11.58-3.257,22.372,1.195
				C205.668,138.576,213.148,145.258,211.584,149.05z"/>
		</g>
		<g>
			<path style="fill:#407BFF;" d="M283.413,107.144c3.555,4.59-3.227,15.694-14.889,24.726
				c-11.662,9.032-23.998,12.633-27.553,8.044c-0.824-1.064-4.142-4.616-3.94-6.268c0.669-5.475,9.662-11.458,18.621-18.396
				c8.339-6.458,16.124-14.839,21.58-13.706C280.54,102.231,282.4,105.836,283.413,107.144z"/>
			<path style="opacity:0.2;" d="M277.232,101.539c4.065,1.376,4.906,3.962,6.178,5.605c1.313,1.693,1.217,4.267-0.004,7.292
				c-0.138,0.37-0.308,0.743-0.489,1.124c-0.939,1.96-2.298,4.078-4.025,6.242c-0.212,0.283-0.442,0.552-0.673,0.83
				c-1.732,2.091-3.795,4.206-6.116,6.277c-0.251,0.224-0.511,0.445-0.772,0.667c-0.896,0.774-1.834,1.549-2.806,2.297
				c-0.963,0.75-1.937,1.456-2.915,2.131c-0.276,0.198-0.56,0.384-0.834,0.572c-2.492,1.668-4.958,3.065-7.316,4.189
				c-0.307,0.151-0.61,0.282-0.905,0.425c-2.523,1.13-4.916,1.93-7.045,2.345c-0.363,0.078-0.713,0.138-1.06,0.188
				c-3.436,0.511-6.109-0.044-7.478-1.81c-0.886-1.144-4.232-4.455-3.948-6.265c0.294-1.808,1.469-3.678,3.212-5.624
				c0.225-0.249,0.463-0.507,0.71-0.762c3.617-3.742,9.2-7.75,14.702-12.009c6.488-5.025,13.766-11.192,19.206-13.136
				c0.332-0.125,0.659-0.221,0.983-0.306C276.325,101.678,276.783,101.589,277.232,101.539z"/>
			<g style="opacity:0.2;">
				<path d="M240.453,126.445l0.494,0.818l8.564,14.272c-0.363,0.078-0.713,0.138-1.06,0.188l-8.214-13.698l-0.637-1.062
					L240.453,126.445z"/>
			</g>
			<g style="opacity:0.2;">
				<path d="M248.64,124.061l8.822,14.703c-0.307,0.151-0.61,0.282-0.905,0.425l-8.778-14.623L248.64,124.061z"/>
			</g>
			<g style="opacity:0.2;">
				<path d="M263.753,114.987l8.351,13.921c-0.251,0.224-0.511,0.445-0.772,0.667l-8.442-14.073L263.753,114.987z"/>
			</g>
			<g style="opacity:0.2;">
				<path d="M256.727,119.206l8.884,14.798c-0.276,0.198-0.56,0.384-0.834,0.572l-8.913-14.855L256.727,119.206z"/>
			</g>
			<g style="opacity:0.2;">
				<path d="M270.77,108.255l8.123,13.547c-0.212,0.283-0.442,0.552-0.673,0.83l-8.313-13.862L270.77,108.255z"/>
			</g>
			
				<ellipse transform="matrix(0.7906 -0.6123 0.6123 0.7906 -19.0214 183.6765)" style="fill:#407BFF;" cx="259.061" cy="119.651" rx="26.709" ry="10.511"/>
			<path style="opacity:0.2;fill:#FFFFFF;" d="M276.213,106.368c2.511,3.243-2.935,11.666-12.164,18.814
				c-9.229,7.148-18.747,10.313-21.259,7.07c-2.511-3.243,2.934-11.666,12.164-18.814
				C264.184,106.29,273.701,103.125,276.213,106.368z"/>
		</g>
		<g>
			<path style="fill:#407BFF;" d="M235.135,85.64c-1.171,6.581-15.892,9.373-32.616,6.397c-16.723-2.977-29.331-10.725-28.16-17.307
				c0.272-1.526,0.74-7.104,2.306-8.208c5.19-3.66,17.249-0.605,30.095,1.681c11.957,2.128,25.129,2.298,28.377,7.832
				C237.109,79.39,235.469,83.764,235.135,85.64z"/>
			<path style="opacity:0.2;" d="M235.144,76.032c1.966,4.534,0.41,7.25-0.01,9.606c-0.43,2.429-2.702,4.336-6.228,5.631
				c-0.422,0.168-0.872,0.312-1.337,0.451c-2.399,0.713-5.257,1.189-8.439,1.387c-0.405,0.038-0.812,0.049-1.229,0.067
				c-3.124,0.138-6.523,0.01-10.085-0.37c-0.385-0.041-0.775-0.092-1.166-0.144c-1.353-0.167-2.74-0.368-4.129-0.621
				c-1.384-0.243-2.74-0.528-4.072-0.841c-0.382-0.083-0.761-0.181-1.133-0.27c-3.349-0.838-6.448-1.864-9.23-3.009
				c-0.366-0.146-0.712-0.303-1.062-0.445c-2.915-1.28-5.446-2.705-7.446-4.202c-0.347-0.25-0.669-0.502-0.98-0.76
				c-3.092-2.538-4.683-5.249-4.234-7.783c0.292-1.64,0.533-7.055,2.298-8.211c1.771-1.146,4.275-1.588,7.283-1.604
				c0.387,0,0.79,0.004,1.199,0.017c5.99,0.197,13.726,1.865,21.614,3.271c9.304,1.656,20.194,3.103,26.056,6.245
				c0.364,0.187,0.697,0.392,1.021,0.603C234.325,75.365,234.754,75.687,235.144,76.032z"/>
			<g style="opacity:0.2;">
				<path d="M185.459,63.88l-0.316,1.053l-5.566,18.341c-0.347-0.25-0.669-0.502-0.98-0.76l5.347-17.598l0.414-1.365L185.459,63.88z
					"/>
			</g>
			<g style="opacity:0.2;">
				<path d="M193.82,69.027l-5.735,18.894c-0.366-0.146-0.712-0.303-1.062-0.445l5.701-18.794L193.82,69.027z"/>
			</g>
			<g style="opacity:0.2;">
				<path d="M213.246,74.917l-5.431,17.888c-0.385-0.041-0.775-0.092-1.166-0.144l5.49-18.083L213.246,74.917z"/>
			</g>
			<g style="opacity:0.2;">
				<path d="M204.216,72.179l-5.768,19.02c-0.382-0.083-0.761-0.181-1.133-0.27l5.794-19.089L204.216,72.179z"/>
			</g>
			<g style="opacity:0.2;">
				<path d="M224.417,75.705l-5.288,17.403c-0.405,0.038-0.812,0.049-1.229,0.067l5.411-17.809L224.417,75.705z"/>
			</g>
			
				<ellipse transform="matrix(0.1752 -0.9845 0.9845 0.1752 96.2406 263.914)" style="fill:#407BFF;" cx="205.638" cy="74.515" rx="12.104" ry="30.757"/>
			<path style="opacity:0.2;fill:#FFFFFF;" d="M230.234,78.893c-0.828,4.65-12.227,6.51-25.462,4.154
				c-13.235-2.356-23.292-8.035-22.465-12.685s12.227-6.51,25.462-4.155C221.004,68.564,231.062,74.243,230.234,78.893z"/>
		</g>
	</g>
</g>
<g id="Wallet">
	<g>
		<g>
			<path style="fill:#407BFF;" d="M322.44,253.628l-102.908,5.987c-3.648,0.212-7.229,1.086-10.563,2.579L97.187,312.232
				c-4.058,1.816-6.302,6.169-5.393,10.461l18.494,87.341c1.269,5.993,7.95,9.148,13.503,6.375l110.33-55.078l101.874-3.444
				c5.352-0.181,9.346-4.966,8.497-10.179l-13.636-83.639C330.152,259.749,326.875,253.497,322.44,253.628z"/>
			<path style="opacity:0.1;" d="M322.44,253.628l-102.908,5.987c-3.648,0.212-7.229,1.086-10.563,2.579L97.187,312.232
				c-4.058,1.816-6.302,6.169-5.393,10.461l18.494,87.341c1.269,5.993,7.95,9.148,13.503,6.375l110.33-55.078l101.874-3.444
				c5.352-0.181,9.346-4.966,8.497-10.179l-13.636-83.639C330.152,259.749,326.875,253.497,322.44,253.628z"/>
		</g>
		<g>
			<g>
				<g>
					
						<rect x="100.6" y="202.728" transform="matrix(0.7353 -0.6777 0.6777 0.7353 -149.5028 165.6597)" style="fill:#407BFF;" width="73.45" height="142.987"/>
					<polygon style="opacity:0.5;fill:#FAFAFA;" points="212.78,301.903 158.773,351.68 61.869,246.548 97.31,213.878 
						115.876,196.762 118.972,200.118 					"/>
				</g>
				
					<rect x="105.316" y="207.452" transform="matrix(0.7353 -0.6777 0.6777 0.7353 -149.4701 165.9585)" style="fill:none;stroke:#407BFF;stroke-miterlimit:10;" width="64.814" height="133.754"/>
				
					<ellipse transform="matrix(0.7353 -0.6778 0.6778 0.7353 -149.1328 165.2672)" style="fill:#407BFF;" cx="137.005" cy="273.55" rx="13.456" ry="16.875"/>
			</g>
			<polygon style="opacity:0.1;" points="158.197,309.015 139.007,315.644 97.31,213.878 115.876,196.762 118.972,200.118 			"/>
			<g>
				<g>
					
						<rect x="115.047" y="163.807" transform="matrix(0.9401 -0.3408 0.3408 0.9401 -71.1113 65.8184)" style="fill:#407BFF;" width="73.45" height="142.987"/>
					
						<rect x="115.047" y="163.807" transform="matrix(0.9401 -0.3408 0.3408 0.9401 -71.1113 65.8184)" style="opacity:0.5;fill:#FAFAFA;" width="73.45" height="142.987"/>
				</g>
				
					<rect x="119.69" y="168.676" transform="matrix(0.9401 -0.3408 0.3408 0.9401 -71.178 65.9449)" style="fill:none;stroke:#407BFF;stroke-miterlimit:10;" width="64.814" height="133.754"/>
				
					<ellipse transform="matrix(0.9401 -0.3408 0.3408 0.9401 -70.8599 65.7618)" style="fill:#407BFF;" cx="151.736" cy="234.557" rx="13.456" ry="16.875"/>
			</g>
		</g>
		<path style="fill:#407BFF;" d="M323.111,257.179l-101.5,5.718c-3.598,0.203-7.129,1.067-10.413,2.55l-110.139,49.724
			c-3.998,1.805-6.201,6.15-5.293,10.442l18.47,87.346c1.268,5.994,7.866,9.164,13.337,6.407L236.266,364.6l100.487-3.178
			c5.279-0.167,9.207-4.94,8.355-10.152l-13.668-83.633C330.735,263.317,327.486,257.059,323.111,257.179z"/>
		
			<line style="opacity:0.2;fill:none;stroke:#000000;stroke-width:2;stroke-linecap:round;stroke-linejoin:round;stroke-miterlimit:10;" x1="225.74" y1="278.203" x2="312.826" y2="272.836"/>
		
			<line style="opacity:0.2;fill:none;stroke:#000000;stroke-width:2;stroke-linecap:round;stroke-linejoin:round;stroke-miterlimit:10;" x1="215.307" y1="280.453" x2="231.221" y2="353.533"/>
		<g>
			<path style="opacity:0.2;fill:#FAFAFA;" d="M109.23,346.429l11.219,56.216C120.449,402.645,129.05,380.338,109.23,346.429z"/>
			<path style="opacity:0.2;fill:#FAFAFA;" d="M110.702,347.09c0.385,1.025,99.654-41.597,99.654-41.597s2.512,30.639-27.362,47.396
				C153.12,369.645,110.702,347.09,110.702,347.09z"/>
			<circle style="fill:#407BFF;" cx="176.642" cy="344.447" r="4.3"/>
			<path style="opacity:0.2;" d="M210.408,305.493c0,0,12.312,18.523,9.334,50.09"/>
		</g>
		<g style="opacity:0.2;">
			<g>
				
					<line style="fill:none;stroke:#FAFAFA;stroke-linecap:round;stroke-linejoin:round;" x1="104.48" y1="324.35" x2="106.767" y2="323.339"/>
				
					<line style="fill:none;stroke:#FAFAFA;stroke-linecap:round;stroke-linejoin:round;stroke-dasharray:5.1975,5.1975;" x1="111.521" y1="321.238" x2="204.221" y2="280.264"/>
				
					<line style="fill:none;stroke:#FAFAFA;stroke-linecap:round;stroke-linejoin:round;" x1="206.598" y1="279.213" x2="208.884" y2="278.203"/>
			</g>
		</g>
		<g>
			
				<line style="opacity:0.2;fill:none;stroke:#000000;stroke-width:2;stroke-linecap:round;stroke-linejoin:round;stroke-miterlimit:10;" x1="228.661" y1="294.629" x2="315.747" y2="289.262"/>
			
				<line style="opacity:0.2;fill:none;stroke:#000000;stroke-width:2;stroke-linecap:round;stroke-linejoin:round;stroke-miterlimit:10;" x1="232.58" y1="315.116" x2="319.666" y2="309.75"/>
		</g>
	</g>
</g>
<g id="Character">
	<g>
		<path style="fill:#B97964;" d="M300.583,169.557c0,0-2.193,23.334-10.859,25.344c-8.667,2.01-15.992-1.597-15.992-1.597
			l-7.047-5.422l-3.44,11.988c0,0,3.761,5.112,11.607,1.568c0,0,13.991,6.167,21.737,0s10.224-23.056,10.224-23.056L300.583,169.557
			z"/>
		<path style="fill:#263238;" d="M307.552,158.256c0,0-6.048-10.309-3.299-29.003c2.749-18.694,18.419-21.03,24.467-19.656
			c6.048,1.374,10.996,7.166,15.12,18.222c4.124,11.055,5.636,13.942,12.508,12.018c6.873-1.924,25.154-7.972,30.24-2.612
			c5.086,5.361,3.436,11.409,3.436,11.409s25.429-6.185,23.229,16.494c-2.199,22.68-38.899,43.848-73.812,21.443
			C304.528,164.166,307.552,158.256,307.552,158.256z"/>
		<path style="fill:#263238;" d="M307.269,213.147c0,0-6.911,59.433-6.681,87.307c0.23,27.874,10.136,93.527,10.136,93.527h12.209
			c0,0-1.613-52.522-1.382-70.491s3.455-47.685,3.455-47.685s3.916,26.722,8.523,36.167c4.607,9.445,30.177,42.847,47.915,53.214
			l8.293-7.602c0,0-18.429-22.806-25.34-34.094c-6.911-11.288-13.131-14.513-15.665-35.476c-2.534-20.963,1.843-54.596-5.529-74.867
			H307.269z"/>
		<path style="opacity:0.2;" d="M325.007,275.806l-5.31-37.67c0,0-4.189,22.649,4.067,50.299L325.007,275.806z"/>
		<polygon style="fill:#B97964;" points="313.228,397.33 313.637,409.001 321.827,409.683 322.237,408.591 322.237,396.511 		"/>
		<polygon style="fill:#407BFF;" points="309.338,392.894 310.088,397.262 324.148,397.603 325.035,392.348 		"/>
		<polygon style="fill:#407BFF;" points="377.588,366.004 390.623,353.855 393.49,358.428 382.297,368.665 		"/>
		<polygon style="fill:#B97964;" points="383.867,366.004 392.466,373.238 397.994,366.754 390.93,359.452 		"/>
		<path style="fill:#263238;" d="M399.661,366.248l5.201,3.204c1.011,0.623,1.218,2.005,0.429,2.893
			c-3.775,4.254-13.403,15.073-14.361,15.84c-1.194,0.956-2.628-0.682-2.969-2.184c0,0,2.73-3.617,2.969-5.938
			c0.176-1.707,0.093-4.19,0.037-5.383c-0.021-0.451,0.131-0.888,0.424-1.231l5.814-6.814
			C397.816,365.918,398.859,365.754,399.661,366.248z"/>
		<path style="fill:#263238;" d="M323.827,409.984l1.082,6.012c0.21,1.169-0.682,2.245-1.87,2.25
			c-5.688,0.025-20.17,0.067-21.38-0.136c-1.509-0.253-1.244-2.413-0.353-3.669c0,0,4.516-0.378,6.404-1.748
			c1.389-1.008,3.184-2.725,4.036-3.563c0.322-0.316,0.749-0.494,1.2-0.505l8.954-0.213
			C322.843,408.389,323.66,409.056,323.827,409.984z"/>
		<path style="fill:#407BFF;" d="M344.515,180.192l12.48-8.763c0,0-3.319-13.277-8.232-13.94c-4.912-0.664-29.341-5.311-44.875,0
			c0,0-5.576,1.593-7.302,17.26l6.638,2.124c0,0,2.39,29.341,3.85,33.855h35.448C342.524,210.728,342.922,185.503,344.515,180.192z"
			/>
		<path style="fill:#B97964;" d="M347.211,178.299c0,0,4.724,13.502,5.57,20.757c0,0-11.245-4.474-14.146-6.529l-2.192-7.9
			l-7.481-3.587l-2.171,5.925l6.161,7.738c0,0,16.924,15.839,25.51,12.212c8.586-3.627-3.396-34.131-3.396-34.131L347.211,178.299z"
			/>
		<path style="fill:#B97964;" d="M315.456,119.186c0,0-4.323,8.645-3.962,15.669c0.36,7.024,3.872,9.906,10.626,10.897
			c0,0,2.882,9.005-4.683,9.906c-0.575,0.068-0.783,2.363-0.733,2.731c0.196,1.463,1.644,2.259,2.953,2.6
			c1.402,0.366,2.894,0.432,4.336,0.479c3.238,0.105,5.905-1.202,8.065-3.589c0.166-0.183,1.68-2.13,1.68-2.13
			c0,0-3.604-1.788-2.341-13.508c0,0,2.431-1.351,3.782-4.683c0,0,2.341-1.171,2.882-3.512c0.54-2.341-1.531-5.583-5.313-2.341
			c0,0-7.114-3.602-9.816-16.21C322.931,115.494,320.139,118.646,315.456,119.186z"/>
		<path style="fill:#A24E3F;" d="M317.488,132.943l0.616-4.623l-3.275,3.622C314.829,131.941,315.87,133.135,317.488,132.943z"/>
		<path style="fill:none;stroke:#222221;stroke-width:0.75;stroke-linecap:round;stroke-linejoin:round;stroke-miterlimit:10;" d="
			M319.39,136.324c0,0,3.453,0.528,5.109-1.687"/>
		<path style="fill:none;stroke:#222221;stroke-linecap:round;stroke-linejoin:round;stroke-miterlimit:10;" d="M322.843,121.847
			c0,0,2.196-0.848,4.469,1.194"/>
		<path style="fill:none;stroke:#222221;stroke-linecap:round;stroke-linejoin:round;stroke-miterlimit:10;" d="M316.871,120.845
			c0,0-1.965-0.31-2.889,0.827"/>
		<path style="fill:#222221;" d="M324.232,127.928c-0.091,0.697-0.54,1.212-1.003,1.152c-0.464-0.06-0.766-0.674-0.675-1.37
			c0.09-0.697,0.54-1.212,1.003-1.152C324.02,126.619,324.322,127.232,324.232,127.928z"/>
		<path style="fill:#222221;" d="M316.266,126.399c-0.09,0.697-0.54,1.212-1.003,1.152c-0.464-0.06-0.766-0.674-0.675-1.37
			c0.09-0.697,0.54-1.212,1.003-1.152C316.054,125.089,316.357,125.702,316.266,126.399z"/>
		<path style="fill:#222221;" d="M323.556,126.558l-1.578-0.688C321.978,125.871,322.303,127.294,323.556,126.558z"/>
		<path style="fill:#222221;" d="M315.722,125.079l-1.578-0.688C314.144,124.391,314.469,125.815,315.722,125.079z"/>
		<g>
			<polygon style="fill:#407BFF;" points="305.843,209.168 305.843,213.337 344.235,213.662 343.212,208.696 			"/>
			<polygon style="opacity:0.4;fill:#FFFFFF;" points="305.843,209.168 305.843,213.337 344.235,213.662 343.212,208.696 			"/>
		</g>
	</g>
</g>
<g id="Target">
	<g>
		<g>
			<g>
				<path style="fill:#407BFF;" d="M306.308,188.927l-21.113,73.467c-1.491,5.193-5.975,8.709-11.022,9.212
					c-1.569,0.153-3.199,0.023-4.819-0.44l-40.407-11.612c-6.793-1.958-10.721-9.05-8.772-15.841l21.121-73.479
					c1.135-3.93,3.981-6.905,7.512-8.329c2.555-1.037,5.468-1.257,8.332-0.434l40.404,11.602
					C304.337,175.032,308.264,182.124,306.308,188.927z"/>
				<path style="opacity:0.2;" d="M306.308,188.927l-21.113,73.467c-1.491,5.193-5.975,8.709-11.022,9.212
					c-1.569,0.153-3.199,0.023-4.819-0.44l-40.407-11.612c-6.793-1.958-10.721-9.05-8.772-15.841l21.121-73.479
					c1.135-3.93,3.981-6.905,7.512-8.329c2.555-1.037,5.468-1.257,8.332-0.434l40.404,11.602
					C304.337,175.032,308.264,182.124,306.308,188.927z"/>
			</g>
			<path style="fill:#407BFF;" d="M302.795,189.801l-21.113,73.467c-1.133,3.94-3.989,6.917-7.509,8.339
				c-1.569,0.153-3.199,0.023-4.819-0.44l-40.407-11.612c-6.793-1.958-10.721-9.05-8.772-15.841l21.121-73.479
				c1.135-3.93,3.981-6.905,7.512-8.329c1.569-0.153,3.199-0.023,4.819,0.44l40.404,11.602
				C300.824,175.906,304.751,182.998,302.795,189.801z"/>
			<path style="opacity:0.5;fill:#FAFAFA;" d="M302.795,189.801l-21.113,73.467c-1.133,3.94-3.989,6.917-7.509,8.339
				c-1.569,0.153-3.199,0.023-4.819-0.44l-40.407-11.612c-6.793-1.958-10.721-9.05-8.772-15.841l21.121-73.479
				c1.135-3.93,3.981-6.905,7.512-8.329c1.569-0.153,3.199-0.023,4.819,0.44l40.404,11.602
				C300.824,175.906,304.751,182.998,302.795,189.801z"/>
		</g>
		
			<rect x="233.845" y="194.352" transform="matrix(0.9625 0.2712 -0.2712 0.9625 69.337 -55.6734)" style="fill:#FAFAFA;" width="4.492" height="57.336"/>
		<polygon style="fill:#FAFAFA;" points="236.667,252.985 232.349,251.744 247.895,196.569 252.213,197.81 		"/>
		<polygon style="fill:#FAFAFA;" points="242.949,254.791 238.632,253.55 254.178,198.375 258.496,199.616 		"/>
		
			<rect x="271.485" y="205.164" transform="matrix(0.9625 0.2712 -0.2712 0.9625 73.6804 -65.4767)" style="opacity:0.5;" width="4.492" height="57.336"/>
		<path style="fill:#FAFAFA;" d="M283.1,191.25l-2.15,7.49l-2.56-0.72c-2.58-0.73-4.08-3.41-3.36-5.99l1.4-4.97l5.17,1.48
			C282.76,188.88,283.43,190.09,283.1,191.25z"/>
		<path style="fill:#FAFAFA;" d="M281.87,187.58l-5.17-1.48l1.55-5.48c0.72-2.58,3.41-4.08,5.99-3.36l2.66,0.75l-2.32,8.07
			C284.25,187.25,283.04,187.92,281.87,187.58z"/>
		<path style="fill:#FAFAFA;" d="M286.77,190.03l5.2,1.49l-1.38,4.89c-0.72,2.58-3.4,4.09-5.98,3.36l-2.7-0.76l2.15-7.48
			C284.39,190.37,285.6,189.7,286.77,190.03z"/>
		<path style="fill:#FAFAFA;" d="M293.81,185l-1.57,5.56l-5.2-1.49c-1.16-0.34-1.83-1.55-1.5-2.71l2.32-8.07l2.59,0.73
			C293.03,179.74,294.53,182.42,293.81,185z"/>
	</g>
</g>
</svg>
