<?xml version="1.0" encoding="utf-8"?>
<!-- Generator: Adobe Illustrator 27.5.0, SVG Export Plug-In . SVG Version: 6.00 Build 0)  -->
<svg version="1.1" xmlns="http://www.w3.org/2000/svg" xmlns:xlink="http://www.w3.org/1999/xlink" x="0px" y="0px"
	 viewBox="0 0 500 500" style="enable-background:new 0 0 500 500;" xml:space="preserve">
<g id="Background_complete">
	<g>
		<path style="fill:#F0F0F0;" d="M404.371,81.923c-0.179-0.528-0.395-1.042-0.648-1.539l0,0
			c-3.624-7.469-12.617-10.585-20.086-6.961c-3.001,1.456-5.432,3.869-6.911,6.859c-1.034,2.104-1.565,4.419-1.55,6.763
			c-0.093,8.301,6.562,15.106,14.863,15.198s15.106-6.562,15.198-14.863c0.002-0.181,0.001-0.363-0.004-0.544
			C405.226,85.162,404.935,83.5,404.371,81.923z"/>
		<path style="fill:#E0E0E0;" d="M390.072,92.549c-2.497,0-4.768-1.262-5.636-3.139c-0.097-0.212-0.007-0.462,0.203-0.564
			c0.207-0.101,0.457-0.016,0.558,0.191c0.002,0.004,0.004,0.008,0.006,0.012c0.75,1.589,2.717,2.655,4.892,2.655
			c2.176,0,4.143-1.065,4.892-2.655c0.099-0.211,0.351-0.303,0.562-0.204c0.001,0,0.001,0,0.002,0.001
			c0.21,0.102,0.3,0.352,0.203,0.564C394.84,91.286,392.569,92.549,390.072,92.549z"/>
		<path style="fill:#E0E0E0;" d="M395.708,83.478c0.738,0,1.336,0.598,1.336,1.336c0,0.738-0.598,1.336-1.336,1.336
			c-0.738,0-1.336-0.598-1.336-1.336C394.372,84.076,394.97,83.478,395.708,83.478z"/>
		<path style="fill:#E0E0E0;" d="M385.772,84.814c0,0.738-0.598,1.336-1.336,1.336c-0.738,0-1.336-0.598-1.336-1.336
			s0.598-1.336,1.336-1.336l0,0C385.172,83.481,385.769,84.078,385.772,84.814z"/>
	</g>
	<g>
		<g>
			<g>
				<g>
					<g>
						<path style="fill:#E0E0E0;" d="M443.92,312.187H263.174c-3.232,0-5.862-2.63-5.862-5.862V43.051
							c0-3.232,2.63-5.862,5.862-5.862H443.92c3.232,0,5.862,2.629,5.862,5.862v263.273
							C449.783,309.557,447.153,312.187,443.92,312.187z M263.174,37.439c-3.095,0-5.612,2.518-5.612,5.612v263.273
							c0,3.095,2.518,5.612,5.612,5.612H443.92c3.095,0,5.612-2.518,5.612-5.612V43.051c0-3.094-2.518-5.612-5.612-5.612H263.174z"
							/>
					</g>
				</g>
				<g>
					<g>
						<path style="fill:#E0E0E0;" d="M235.493,312.187H54.746c-3.232,0-5.862-2.63-5.862-5.862V43.051
							c0-3.232,2.629-5.862,5.862-5.862h180.747c3.232,0,5.862,2.629,5.862,5.862v263.273
							C241.355,309.557,238.725,312.187,235.493,312.187z M54.746,37.439c-3.094,0-5.612,2.518-5.612,5.612v263.273
							c0,3.095,2.518,5.612,5.612,5.612h180.747c3.095,0,5.612-2.518,5.612-5.612V43.051c0-3.094-2.518-5.612-5.612-5.612H54.746z"
							/>
					</g>
				</g>
			</g>
			<g>
				<g>
					<rect x="0" y="373.256" style="fill:#E0E0E0;" width="500" height="0.25"/>
				</g>
			</g>
		</g>
		<rect x="51.672" y="387.521" style="fill:#E0E0E0;" width="16.06" height="0.25"/>
		<rect x="170.352" y="384.811" style="fill:#E0E0E0;" width="53.53" height="0.25"/>
		<rect x="68.732" y="396.811" style="fill:#E0E0E0;" width="36.25" height="0.25"/>
		<rect x="378.352" y="384.681" style="fill:#E0E0E0;" width="43.19" height="0.25"/>
		<rect x="430.452" y="384.681" style="fill:#E0E0E0;" width="6.33" height="0.25"/>
		<rect x="316.212" y="390.911" style="fill:#E0E0E0;" width="53.89" height="0.25"/>
	</g>
	<g>
		
			<ellipse transform="matrix(0.7305 -0.6829 0.6829 0.7305 -64.4155 268.758)" style="fill:#E0E0E0;" cx="308.31" cy="215.994" rx="13.811" ry="13.811"/>
		<path style="fill:#F5F5F5;" d="M300.336,225.574c0.265-0.57,2.759-4.939,8.32-4.94c6.169-0.001,8.404,4.384,8.404,4.384
			s-3.482,3.129-8.195,3.37C304.297,228.623,300.336,225.574,300.336,225.574z"/>
		<path style="fill:#F5F5F5;" d="M314.037,213.758c0,3.027-2.454,5.482-5.482,5.482s-5.482-2.454-5.482-5.482
			s2.454-5.482,5.482-5.482S314.037,210.731,314.037,213.758z"/>
	</g>
	<g>
		
			<ellipse transform="matrix(0.1602 -0.9871 0.9871 0.1602 -295.1246 345.8006)" style="fill:#E0E0E0;" cx="55.658" cy="346.339" rx="13.811" ry="13.811"/>
		<path style="fill:#F5F5F5;" d="M47.683,355.919c0.265-0.571,2.759-4.939,8.32-4.94c6.169-0.001,8.404,4.384,8.404,4.384
			s-3.482,3.129-8.195,3.37C51.645,358.968,47.683,355.919,47.683,355.919z"/>
		<path style="fill:#F5F5F5;" d="M61.385,344.103c0,3.028-2.454,5.482-5.482,5.482c-3.027,0-5.482-2.454-5.482-5.482
			c0-3.027,2.454-5.482,5.482-5.482C58.931,338.622,61.385,341.076,61.385,344.103z"/>
	</g>
	<g>
		<circle style="fill:#E0E0E0;" cx="320.538" cy="374.006" r="24.165"/>
		<path style="fill:#F5F5F5;" d="M306.587,390.768c0.464-0.998,4.827-8.641,14.557-8.642c10.793-0.001,14.704,7.67,14.704,7.67
			s-6.092,5.474-14.338,5.897C313.517,396.103,306.587,390.768,306.587,390.768z"/>
		<circle style="fill:#F5F5F5;" cx="320.968" cy="370.095" r="9.591"/>
	</g>
	<g>
		
			<ellipse transform="matrix(0.7071 -0.7071 0.7071 0.7071 35.0501 222.2303)" style="fill:#E0E0E0;" cx="285.781" cy="68.806" rx="13.34" ry="13.34"/>
		<path style="fill:#F5F5F5;" d="M278.079,78.06c0.256-0.551,2.664-4.771,8.036-4.771c5.959-0.001,8.117,4.234,8.117,4.234
			s-3.363,3.022-7.915,3.255C281.905,81.004,278.079,78.06,278.079,78.06z"/>
		<path style="fill:#F5F5F5;" d="M291.313,66.647c0,2.924-2.371,5.295-5.295,5.295c-2.924,0-5.295-2.371-5.295-5.295
			c0-2.924,2.37-5.295,5.295-5.295C288.942,61.352,291.313,63.723,291.313,66.647z"/>
	</g>
	<g>
		<path style="fill:#E0E0E0;" d="M440.617,280.573c-0.333-0.96-0.731-1.896-1.191-2.803l0,0
			c-6.607-13.597-22.984-19.263-36.581-12.657c-13.597,6.606-19.263,22.984-12.657,36.581c6.606,13.597,22.984,19.264,36.581,12.657
			c9.493-4.613,15.488-14.272,15.408-24.826C442.169,286.474,441.641,283.447,440.617,280.573z"/>
		<path style="fill:#FAFAFA;" d="M433.076,281.853c-1.678-2.612-4.765-1.532-6.334,0.555c-1.645-2.024-4.782-2.974-6.349-0.3
			c-2.658,4.515,3.084,8.53,5.779,10.089l0.773,0.443l0.752-0.475C430.338,290.498,435.91,286.26,433.076,281.853z"/>
		<path style="fill:#FAFAFA;" d="M409.494,282.296c-1.643-2.637-4.744-1.606-6.34,0.453c-1.621-2.041-4.739-3.046-6.355-0.399
			c-2.721,4.475,2.949,8.581,5.636,10.185l0.754,0.453l0.767-0.463C406.614,290.902,412.262,286.743,409.494,282.296z"/>
		<path style="fill:#EBEBEB;" d="M413.406,305.017c-5.205-1.195-7.074-7.121-7.32-10.347c0.009-0.421,0.389-0.755,0.848-0.747
			c0.403,0.007,0.742,0.278,0.805,0.643c0,0.094,0.78,8.974,7.372,9.181c6.591,0.207,7.669-9.247,7.68-9.35
			c0.043-0.414,0.444-0.717,0.895-0.678c0.003,0,0.005,0.001,0.008,0.001c0.447,0.033,0.779,0.392,0.742,0.801
			c-0.001,0.009-0.002,0.018-0.003,0.026c0,0.452-1.253,10.978-9.374,10.714C414.5,305.235,413.946,305.153,413.406,305.017z"/>
		<path style="fill:#F5F5F5;" d="M432.671,293.314c-0.534,0.544-1.17,0.801-1.417,0.554c-0.246-0.246,0-0.883,0.513-1.437
			c0.513-0.554,1.16-0.79,1.417-0.554C433.441,292.113,433.205,292.77,432.671,293.314z"/>
		<path style="fill:#F5F5F5;" d="M434.929,293.581c-0.534,0.554-1.17,0.801-1.417,0.554s0-0.883,0.513-1.427
			c0.513-0.544,1.16-0.801,1.407-0.554S435.474,293.037,434.929,293.581z"/>
		<path style="fill:#F5F5F5;" d="M398.246,293.684c0.585,0.493,1.242,0.667,1.458,0.4c0.216-0.267-0.072-0.873-0.657-1.365
			c-0.585-0.493-1.242-0.667-1.468-0.4C397.353,292.585,397.651,293.201,398.246,293.684z"/>
		<path style="fill:#F5F5F5;" d="M396.018,294.197c0.585,0.493,1.242,0.667,1.468,0.4s-0.072-0.883-0.667-1.366
			c-0.595-0.482-1.242-0.667-1.458-0.4C395.145,293.098,395.433,293.704,396.018,294.197z"/>
	</g>
	<g>
		<path style="fill:#EBEBEB;" d="M93.546,92.114c-0.333-0.96-0.731-1.897-1.191-2.803l0,0C85.748,75.715,69.37,70.048,55.773,76.655
			c-13.597,6.606-19.264,22.984-12.657,36.581c6.606,13.597,22.984,19.263,36.581,12.657c9.493-4.612,15.488-14.272,15.408-24.826
			C95.097,98.016,94.57,94.988,93.546,92.114z"/>
		<path style="fill:#FAFAFA;" d="M86.004,93.394c-1.678-2.612-4.765-1.532-6.334,0.555c-1.645-2.024-4.782-2.974-6.349-0.3
			c-2.658,4.515,3.084,8.53,5.779,10.089l0.773,0.442l0.752-0.475C83.267,102.04,88.838,97.802,86.004,93.394z"/>
		<path style="fill:#FAFAFA;" d="M62.422,93.838c-1.643-2.636-4.744-1.606-6.34,0.453c-1.621-2.041-4.739-3.046-6.355-0.399
			c-2.721,4.475,2.949,8.581,5.636,10.185l0.754,0.453l0.767-0.463C59.542,102.444,65.19,98.285,62.422,93.838z"/>
		<path style="fill:#E0E0E0;" d="M66.334,116.558c-5.205-1.195-7.074-7.121-7.32-10.347c0.009-0.421,0.389-0.755,0.848-0.747
			c0.403,0.007,0.742,0.278,0.805,0.643c0,0.094,0.78,8.974,7.372,9.181c6.591,0.207,7.669-9.247,7.68-9.35
			c0.043-0.414,0.444-0.717,0.895-0.678c0.003,0,0.006,0.001,0.008,0.001c0.447,0.034,0.779,0.392,0.742,0.801
			c-0.001,0.009-0.002,0.018-0.003,0.026c0,0.451-1.253,10.978-9.374,10.714C67.428,116.776,66.874,116.695,66.334,116.558z"/>
		<path style="fill:#F5F5F5;" d="M85.599,104.855c-0.534,0.544-1.17,0.801-1.417,0.554s0-0.883,0.513-1.437
			c0.513-0.554,1.16-0.791,1.417-0.554C86.369,103.654,86.133,104.311,85.599,104.855z"/>
		<path style="fill:#F5F5F5;" d="M87.858,105.122c-0.534,0.555-1.17,0.801-1.417,0.555c-0.246-0.247,0-0.883,0.513-1.427
			c0.513-0.544,1.16-0.801,1.407-0.554C88.607,103.942,88.402,104.578,87.858,105.122z"/>
		<path style="fill:#F5F5F5;" d="M51.174,105.225c0.585,0.493,1.242,0.667,1.458,0.4c0.216-0.267-0.072-0.873-0.657-1.365
			c-0.585-0.493-1.242-0.667-1.468-0.4C50.281,104.126,50.579,104.743,51.174,105.225z"/>
		<path style="fill:#F5F5F5;" d="M48.946,105.738c0.585,0.493,1.242,0.667,1.468,0.401c0.226-0.267-0.072-0.883-0.667-1.366
			c-0.596-0.483-1.242-0.667-1.458-0.4C48.074,104.64,48.361,105.245,48.946,105.738z"/>
	</g>
</g>
<g id="Background_simple" style="display:none;">
	<g style="display:inline;">
		<path style="fill:#407BFF;" d="M190.722,36.094c-21.564,4.017-42.358,12.57-60.801,25.986
			c-21.737,15.812-43.946,40.445-37.386,72.665c12.11,59.483,70.206,60.566,58.607,100.561
			c-13.139,45.303-4.328,98.444,54.63,113.222c111.982,28.068,247.351-136.163,209.331-226.407
			C391.433,65.939,305.223,14.764,190.722,36.094z"/>
		<path style="opacity:0.9;fill:#FFFFFF;" d="M190.722,36.094c-21.564,4.017-42.358,12.57-60.801,25.986
			c-21.737,15.812-43.946,40.445-37.386,72.665c12.11,59.483,70.206,60.566,58.607,100.561
			c-13.139,45.303-4.328,98.444,54.63,113.222c111.982,28.068,247.351-136.163,209.331-226.407
			C391.433,65.939,305.223,14.764,190.722,36.094z"/>
	</g>
</g>
<g id="Shadow">
	<g>
		<g>
			<path style="fill:#F5F5F5;" d="M463.596,440.162c0,3.387-93.517,6.132-208.875,6.132s-208.875-2.746-208.875-6.132
				c0-3.387,93.516-6.132,208.875-6.132S463.596,436.775,463.596,440.162z"/>
		</g>
	</g>
</g>
<g id="Plant">
	<g id="freepik--Plant--inject-111_00000109017586659150370920000017944658609152142772_">
		<polygon style="fill:#263238;" points="421.517,415.618 417.212,439.241 391.738,439.241 387.174,415.618 		"/>
		<path style="fill:#407BFF;" d="M401.512,413.224c-0.713-8.983-5.643-18.071-13.574-24.24c-1.981-1.536-6.141-4.581-2.768-6.189
			c3.853-1.84,11.245,6.752,12.281,8.341c-2.188-6.845-8.817-11.802-16.01-14.642c-3.555-1.403-6.945-2.734-3.157-4.819
			c3.787-2.085,11.983,2.972,13.881,5.143c-4.492-5.011-10.168-10.028-15.986-13.027c-6.422-3.31-3.522-8.83,3.099-4.561
			c4.102,2.648,10.848,9.267,10.848,9.267s-10.599-17.005-7.4-18.534c4.143-1.986,11.403,21.182,13.408,25.75
			c-0.539-3.786-1.044-12.948,2.486-13.345c3.224-0.357,2.436,22.453,3.182,26.478c0.472,1.754,0.688,2.648,1.061,4.415
			c0.348-3.038,2.486-11.048,5.685-10.121c2.718,0.781,1.036,6.778,0.331,9.625c-1.707,6.891-3.431,13.557-3.447,20.626
			L401.512,413.224z"/>
		<path style="fill:#407BFF;" d="M398.862,414.445c2.578-4.58,3.904-9.524,5.323-14.608c0.587-2.1,1.694-6.596,3.739-6.106
			c2.409,0.572,0.859,6.537-0.028,8.63c0.889-1.007,1.355-1.506,2.303-2.468c1.956-2.331,9.8-17.378,11.755-15.966
			c2.139,1.55-1.543,7.292-3.278,9.544c2.97-2.221,16.151-14.552,18.105-11.75c1.51,2.161-11.575,9.282-11.575,9.282
			s6.789-1.813,10.412-2.023c5.848-0.338,5.702,4.296,0.335,4.086c-4.862-0.19-10.372,0.977-15.113,2.574
			c2.023-0.71,9.178-0.98,10.864,1.755c1.687,2.736-0.993,2.356-3.808,1.962c-5.694-0.797-11.799-0.017-15.721,3.61
			c1.252-0.648,9.181-3.501,11-0.899c1.593,2.276-2.214,2.722-4.057,2.991c-7.39,1.087-13.909,5.162-17.659,10.713L398.862,414.445z
			"/>
		<g>
			<path style="fill:#407BFF;" d="M407.342,416.53c0.829-13.342,6.688-26.842,16.101-35.999c2.345-2.279,7.276-6.804,3.315-9.19
				c-4.566-2.726-13.342,10.027-14.56,12.381c2.586-10.16,10.458-17.519,18.985-21.737c4.218-2.088,8.237-4.052,3.746-7.152
				c-4.492-3.099-14.221,4.417-16.458,7.632c5.328-7.458,12.058-14.917,18.952-19.342c7.616-4.906,4.143-13.11-3.671-6.771
				c-4.914,3.928-12.903,13.732-12.903,13.732s12.563-25.242,8.768-27.562c-4.873-2.983-13.516,31.49-15.894,38.228
				c0.63-5.619,1.226-19.226-3-19.814c-3.82-0.53-2.884,33.33-3.771,39.314c-0.563,2.61-0.829,3.92-1.251,6.555
				c-0.423-4.508-2.934-16.4-6.754-15.024c-3.215,1.16-1.227,10.06-0.39,14.287c2.03,10.226,4.077,20.129,4.086,30.62
				L407.342,416.53z"/>
			<path style="fill:#407BFF;" d="M407.342,416.53c0.829-13.342,6.688-26.842,16.101-35.999c2.345-2.279,7.276-6.804,3.315-9.19
				c-4.566-2.726-13.342,10.027-14.56,12.381c2.586-10.16,10.458-17.519,18.985-21.737c4.218-2.088,8.237-4.052,3.746-7.152
				c-4.492-3.099-14.221,4.417-16.458,7.632c5.328-7.458,12.058-14.917,18.952-19.342c7.616-4.906,4.143-13.11-3.671-6.771
				c-4.914,3.928-12.903,13.732-12.903,13.732s12.563-25.242,8.768-27.562c-4.873-2.983-13.516,31.49-15.894,38.228
				c0.63-5.619,1.226-19.226-3-19.814c-3.82-0.53-2.884,33.33-3.771,39.314c-0.563,2.61-0.829,3.92-1.251,6.555
				c-0.423-4.508-2.934-16.4-6.754-15.024c-3.215,1.16-1.227,10.06-0.39,14.287c2.03,10.226,4.077,20.129,4.086,30.62
				L407.342,416.53z"/>
			<path style="opacity:0.2;fill:#FFFFFF;enable-background:new    ;" d="M407.342,416.53c0.829-13.342,6.688-26.842,16.101-35.999
				c2.345-2.279,7.276-6.804,3.315-9.19c-4.566-2.726-13.342,10.027-14.56,12.381c2.586-10.16,10.458-17.519,18.985-21.737
				c4.218-2.088,8.237-4.052,3.746-7.152c-4.492-3.099-14.221,4.417-16.458,7.632c5.328-7.458,12.058-14.917,18.952-19.342
				c7.616-4.906,4.143-13.11-3.671-6.771c-4.914,3.928-12.903,13.732-12.903,13.732s12.563-25.242,8.768-27.562
				c-4.873-2.983-13.516,31.49-15.894,38.228c0.63-5.619,1.226-19.226-3-19.814c-3.82-0.53-2.884,33.33-3.771,39.314
				c-0.563,2.61-0.829,3.92-1.251,6.555c-0.423-4.508-2.934-16.4-6.754-15.024c-3.215,1.16-1.227,10.06-0.39,14.287
				c2.03,10.226,4.077,20.129,4.086,30.62L407.342,416.53z"/>
		</g>
		<polygon style="opacity:0.2;enable-background:new    ;" points="388.378,420.406 387.432,416.644 421.323,416.644 420.469,420.1 
					"/>
		
			<rect x="383.632" y="408.805" transform="matrix(-1 -1.224647e-16 1.224647e-16 -1 808.2261 825.492)" style="fill:#263238;" width="40.962" height="7.882"/>
	</g>
</g>
<g id="Device">
	<g>
		<g>
			<rect x="74.912" y="127.999" style="fill:#407BFF;" width="6.267" height="38.518"/>
			<rect x="74.912" y="127.999" style="opacity:0.2;enable-background:new    ;" width="6.267" height="38.518"/>
		</g>
		<g>
			<rect x="256.504" y="127.999" style="fill:#407BFF;" width="6.267" height="38.518"/>
			<rect x="256.504" y="127.999" style="opacity:0.2;enable-background:new    ;" width="6.267" height="38.518"/>
		</g>
		<g>
			<rect x="256.011" y="172.326" style="fill:#407BFF;" width="6.267" height="39.351"/>
			<rect x="256.011" y="172.326" style="opacity:0.2;enable-background:new    ;" width="6.267" height="39.351"/>
		</g>
		<g>
			<path style="fill:#407BFF;" d="M236.725,440.162H98.074c-10.114,0-18.313-8.199-18.313-18.313V108.726
				c0-15.58,12.63-28.211,28.211-28.211h122.037c15.58,0,28.211,12.631,28.211,28.211v309.941
				C258.22,430.538,248.597,440.162,236.725,440.162z"/>
			<path style="fill:#FFFFFF;" d="M237.825,432.866H100.157c-7.284,0-13.188-5.905-13.188-13.188V109.062
				c0-11.754,9.528-21.282,21.282-21.282h121.48c11.754,0,21.282,9.528,21.282,21.282v310.616
				C251.013,426.961,245.108,432.866,237.825,432.866z"/>
		</g>
		<path style="fill:#407BFF;" d="M143.423,85.915c0,0.207,4.26,6.269,6.368,9.406c0.775,1.153,2.074,1.84,3.463,1.84h41.475
			c1.498,0,2.877-0.795,3.622-2.094c1.881-3.281,5.325-9.252,5.415-9.151C203.889,86.054,143.423,85.915,143.423,85.915z"/>
		<g>
			<circle style="fill:#E0E0E0;" cx="209.9" cy="137.223" r="20.147"/>
			<path style="fill:#F5F5F5;" d="M198.268,151.199c0.386-0.832,4.024-7.205,12.137-7.206c8.999-0.001,12.259,6.395,12.259,6.395
				s-5.08,4.564-11.954,4.916C204.046,155.646,198.268,151.199,198.268,151.199z"/>
			<circle style="fill:#F5F5F5;" cx="210.258" cy="133.962" r="7.997"/>
		</g>
	</g>
</g>
<g id="Character_4">
	<g>
		<g>
			<g>
				<circle style="fill:#407BFF;" cx="396.911" cy="212.292" r="37.709"/>
			</g>
			<path style="fill:none;stroke:#407BFF;stroke-linecap:round;stroke-linejoin:round;stroke-miterlimit:10;" d="M435.305,229.905
				c5.388-11.824,4.277-27.412-2.707-37.985"/>
		</g>
		<g>
			<path style="fill:#263238;" d="M419.395,225.462c-0.104,0.197-0.216,0.396-0.339,0.59c4.195,2.977,0.235,7.303-0.989,8.001
				c-0.929,0.545-1.935,0.956-2.985,1.22c-4.952,1.287-9.351-1.169-11.706-2.373c-3.387-1.737-3.523-8.404-5.556-11.776
				c-2.658-4.412-7.288-15.393-3.905-23.926c1.625-4.016,3.223-5.628,3.223-5.628c1.964-2.091,5.071-2.546,7.849-1.781
				c2.779,0.765,5.143,2.626,7.239,4.707c3.785,3.685,6.603,8.182,8.234,13.135c1.492,4.689,0.041,6.32-0.862,9.371
				c0,0,0.015,0.06,0.023,0.094C420.576,219.828,420.692,223.01,419.395,225.462z"/>
			<path style="fill:#407BFF;" d="M422.131,238.046c-1.954-2.487-19.652-4.499-19.652-4.499l-10.874,1.249
				c0,0-14.232,2.54-18.852,5.026c-0.326,0.176-0.636,0.384-0.936,0.61c6.666,5.949,15.455,9.569,25.093,9.569
				c10.143,0,19.344-4.012,26.121-10.527C422.71,238.888,422.404,238.394,422.131,238.046z"/>
			<path style="opacity:0.4;fill:#FFFFFF;" d="M422.131,238.046c-1.954-2.487-19.652-4.499-19.652-4.499l-10.874,1.249
				c0,0-14.232,2.54-18.852,5.026c-0.326,0.176-0.636,0.384-0.936,0.61c6.666,5.949,15.455,9.569,25.093,9.569
				c10.143,0,19.344-4.012,26.121-10.527C422.71,238.888,422.404,238.394,422.131,238.046z"/>
			<path style="fill:#B97964;" d="M406.06,227.535c-1.281,2.916-1.271,5.73,0.482,8.404c0,0,6.6,6.701,2.015,6.977
				c-4.585,0.277-13.157-4.027-15.016-7.764c0,0,2.496-4.049,1.805-9.32c-0.691-5.271-1.455-7.354-1.455-7.354L406.06,227.535z"/>
			<path style="opacity:0.2;enable-background:new    ;" d="M404.303,222.896l-5.286-1.313c-1.491-0.899-3.428-0.424-4.333,1.063
				c-0.325,0.537-0.486,1.157-0.464,1.784c2.795,3.062,6.892,6.115,10.936,7.029c0.016-1.4,0.296-2.715,0.904-3.923
				C406.029,227.461,404.309,222.976,404.303,222.896z"/>
			<path style="fill:#B97964;" d="M389.41,206.911c0.591,8.986,0.641,12.789,5.125,17.488c6.752,7.057,17.443,4.634,19.542-4.3
				c1.824-8.041,0.598-21.36-8.06-25.121C397.358,191.218,388.826,197.914,389.41,206.911z"/>
			<path style="fill:#263238;" d="M392.687,207c1.857,0.835,1.931,9.303-2.419,9.136C385.917,215.969,386.595,204.261,392.687,207z"
				/>
			<g>
				<path style="fill:#B97964;" d="M385.76,214.787c0.994,1.902,2.685,3.141,4.263,3.606c2.374,0.7,3.771-3.105,3.051-5.541
					c-0.648-2.193-2.946-3.722-5.299-3.347C385.456,209.876,384.624,212.612,385.76,214.787z"/>
				
					<path style="opacity:0.2;fill:none;stroke:#000000;stroke-width:0.5;stroke-linecap:round;stroke-linejoin:round;stroke-miterlimit:10;" d="
					M390.848,214.513c-0.022-0.861-0.397-1.707-1.02-2.301c-0.623-0.594-1.486-0.928-2.347-0.909"/>
			</g>
			<path style="fill:#263238;" d="M406.901,196.148c-0.841-2.537-3.722-4.611-8.869-5.512l-0.248-0.044
				c-4.906-0.809-10.19-2.151-12.032,3.303c-4.832,14.236-12.907,12.658-10.981,16.874c0.597,1.089,1.774,1.731,3.013,1.643
				c0.31-0.014,0.614-0.089,0.895-0.219c-0.344,0.34-0.75,0.696-1.114,1.07c-1.999,2.066-3.921,4.483-4.625,7.342
				c-0.163,0.47-0.237,0.967-0.22,1.464c0.078,2.234,1.951,3.981,4.185,3.904c-0.178,0.205-2.213,2.508-2.527,3.088
				c-3.465,6.383-0.736,13.401,8.199,10.479c0,0,6.029,2.189,8.676-3.821c0,0,4.311-0.343,5.697-4.268c0,0,0,0,0,0
				c0.047-0.09,0.087-0.182,0.122-0.277c1.317-2.858,1.291-6.153-0.07-8.99c-0.782-1.602-1.638-3.157-2.42-4.759
				c-0.533-0.958-0.86-2.004-1.018-3.077c0.162-0.345,0.319-0.695,0.492-1.028l0.212-0.375c1.207-2.332,3.021-4.295,5.25-5.682
				C405.473,203.911,408.14,199.574,406.901,196.148z"/>
			<path style="fill:#263238;" d="M401.295,210.277c0.005,0.961,0.492,1.769,1.087,1.806c0.595,0.037,1.074-0.712,1.068-1.672
				c-0.005-0.96-0.492-1.769-1.087-1.806C401.769,208.568,401.29,209.316,401.295,210.277z"/>
			<path style="fill:#263238;" d="M410.232,210.618c0.007,0.931,0.494,1.715,1.087,1.752c0.593,0.037,1.069-0.688,1.062-1.619
				c-0.007-0.931-0.494-1.715-1.087-1.752C410.701,208.962,410.225,209.687,410.232,210.618z"/>
			<path style="fill:#263238;" d="M399.542,206.86c0.115,0.018,0.233-0.011,0.327-0.09c1.449-1.235,3.002-0.717,3.02-0.71
				c0.23,0.077,0.471-0.045,0.534-0.28c0.063-0.235-0.075-0.491-0.308-0.572c-0.081-0.028-2.03-0.68-3.828,0.853
				c-0.179,0.153-0.194,0.436-0.034,0.632C399.33,206.786,399.434,206.844,399.542,206.86z"/>
			<path style="fill:#263238;" d="M413.424,206.195c0.093-0.027,0.171-0.092,0.215-0.189c0.091-0.202,0.001-0.467-0.201-0.591
				c-2.023-1.249-3.595-0.428-3.661-0.391c-0.187,0.101-0.241,0.356-0.122,0.571c0.119,0.214,0.367,0.306,0.553,0.207
				c0.061-0.033,1.29-0.65,2.899,0.344C413.213,206.209,413.326,206.223,413.424,206.195z"/>
			<path style="fill:#A24E3F;" d="M407.819,210.076c0,0,1.278,3.45,2.79,5.63c0.264,0.381,0.069,0.913-0.372,1.056
				c-1.136,0.366-2.43-0.061-2.43-0.061L407.819,210.076z"/>
			<path style="fill:#263238;" d="M402.021,208.63l2.1-0.406C404.121,208.225,402.92,209.729,402.021,208.63z"/>
			<path style="fill:#263238;" d="M411.079,209.012l2.1-0.406C413.179,208.606,411.978,210.11,411.079,209.012z"/>
			<g>
				<path style="fill:#263238;" d="M407.133,219.242c-0.71,0.869-1.639,2.601-1.639,2.601c-0.172-0.056-0.344-0.112-0.513-0.176
					c-2.315-0.816-3.12-1.96-3.31-2.98c-0.102-0.558-0.012-1.084,0.114-1.494c0.141-0.476,0.351-0.782,0.351-0.782
					c0.969,1.166,3.069,2.093,4.211,2.541C406.825,219.145,407.133,219.242,407.133,219.242z"/>
				<path style="fill:#FFFFFF;" d="M406.348,218.952l-0.503,0.755c-2.179-0.774-3.609-1.611-4.059-2.513
					c0.141-0.476,0.351-0.782,0.351-0.782C403.106,217.577,405.206,218.504,406.348,218.952z"/>
				<path style="fill:#D7504D;" d="M404.982,221.667c-2.315-0.816-3.12-1.96-3.31-2.98c0.778,0.308,1.682,0.767,2.391,1.416
					C404.607,220.597,404.863,221.153,404.982,221.667z"/>
			</g>
		</g>
	</g>
</g>
<g id="Character_3">
	<g>
		<g>
			
				<ellipse transform="matrix(0.9196 -0.3928 0.3928 0.9196 -85.6497 152.5883)" style="fill:#407BFF;" cx="329.979" cy="285.553" rx="42.712" ry="42.712"/>
			
				<ellipse transform="matrix(0.9196 -0.3928 0.3928 0.9196 -85.6497 152.5883)" style="opacity:0.4;fill:#FFFFFF;" cx="329.979" cy="285.553" rx="42.712" ry="42.712"/>
		</g>
		<path style="fill:#263238;" d="M358.545,314.724c-2.213-2.816-22.344-5.739-22.344-5.739l-12.232,2.058
			c0,0-16.12,2.877-21.353,5.693c-0.37,0.199-0.766,0.818-0.766,0.951c7.551,6.738,17.211,10.579,28.128,10.579
			c11.489,0,21.91-4.545,29.586-11.923C359.2,315.677,358.854,315.118,358.545,314.724z"/>
		<g>
			<path style="fill:none;stroke:#407BFF;stroke-linecap:round;stroke-linejoin:round;stroke-miterlimit:10;" d="M286.012,267.755
				c-6.103,13.393-4.845,31.048,3.066,43.025"/>
			<path style="fill:none;stroke:#407BFF;stroke-linecap:round;stroke-linejoin:round;stroke-miterlimit:10;" d="M287.638,264.189
				c0.089-0.267,2.222-3.861,2.222-3.861"/>
		</g>
		<g>
			<g>
				<path style="fill:#263238;" d="M361.333,310.692c1.127-9.069-7.676-13.411-7.28-26.508c0.678-22.475-20.57-23.57-28.861-22.729
					c-8.29,0.842-8.382,9.867-8.382,9.867s-12.18,4.546-6.44,21.721c5.213,15.6-6.281,8.55-1.877,20.745
					c17.173-4.451,29.001-8.353,43.399-4.115l0.253-6.62l2.542,7.727L361.333,310.692z"/>
			</g>
			<g>
				<g>
					<path style="fill:#FFAF6B;" d="M340.288,320.924c2.366-0.893,0.776-7.861-1.368-9.274c-2.418-1.594-3.643-3.033-3.454-5.501
						c0.09-1.398,0.461-2.865,0.921-4.3l-2.746-1.331l-10.128-8.541c1.577,5.652,2.305,15.799-2.283,19.634
						c0,0,3.464,2.31,8.506,5.924C329.734,317.536,337.311,322.047,340.288,320.924z"/>
				</g>
				<path style="opacity:0.2;" d="M335.437,306.69c-2.69-1.287-5.728-3.666-5.662-6.701c0.036-1.279,0.202-2.502,0.436-3.298
					l5.804,6.404C335.688,304.24,335.599,304.986,335.437,306.69z"/>
				<path style="fill:#FFAF6B;" d="M320.765,281.572c1.729,9.465,2.261,13.496,7.634,18.058c8.082,6.863,19.25,3.309,20.364-6.325
					c1.003-8.672-1.994-22.692-11.722-25.863C327.458,264.318,319.036,272.107,320.765,281.572z"/>
				<path style="fill:#263238;" d="M333.404,283.57c0.137,1.005,0.758,1.785,1.387,1.742c0.629-0.043,1.027-0.893,0.889-1.899
					c-0.137-1.005-0.759-1.785-1.387-1.742C333.665,281.715,333.267,282.565,333.404,283.57z"/>
				<path style="fill:#263238;" d="M342.812,282.698c0.135,0.974,0.753,1.729,1.38,1.686c0.627-0.043,1.025-0.868,0.89-1.842
					c-0.135-0.974-0.753-1.729-1.38-1.686C343.076,280.899,342.677,281.724,342.812,282.698z"/>
				<path style="fill:#263238;" d="M331.097,280.232c0.123,0.003,0.243-0.044,0.33-0.139c1.348-1.493,3.046-1.164,3.066-1.16
					c0.252,0.049,0.487-0.112,0.521-0.367c0.033-0.255-0.146-0.504-0.401-0.557c-0.089-0.018-2.22-0.434-3.893,1.42
					c-0.167,0.185-0.144,0.483,0.051,0.667C330.865,280.184,330.982,280.23,331.097,280.232z"/>
				<path style="fill:#263238;" d="M345.548,277.626c0.093-0.041,0.167-0.12,0.2-0.228c0.068-0.224-0.063-0.489-0.292-0.592
					c-2.291-1.03-3.824,0.047-3.889,0.094c-0.182,0.131-0.204,0.406-0.049,0.615c0.154,0.208,0.426,0.271,0.608,0.141
					c0.059-0.043,1.262-0.858,3.084-0.039C345.328,277.67,345.449,277.669,345.548,277.626z"/>
				<path style="fill:#E97F3F;" d="M340.21,282.463c0,0,1.813,3.438,3.697,5.514c0.329,0.363,0.198,0.947-0.245,1.157
					c-1.139,0.539-2.554,0.27-2.554,0.27L340.21,282.463z"/>
			</g>
			<path style="fill:#263238;" d="M333.938,281.746l2.144-0.714C336.081,281.032,335.03,282.772,333.938,281.746z"/>
			<path style="fill:#263238;" d="M343.479,280.899l2.144-0.714C345.623,280.185,344.572,281.926,343.479,280.899z"/>
			<path style="fill:#263238;" d="M324.373,284.571c0,0,4.258-7.851,3.467-13.829c0,0,9.202-3.301,17.616,6.063
				c1.34,1.492,2.293,4.095,3.571,6.298c0,0,0.171-18.318-16.074-18.362c-16.219-0.044-17.354,22.855-8.824,29.761
				C324.129,294.503,321.74,289.481,324.373,284.571z"/>
			<g>
				<path style="fill:#FFAF6B;" d="M318.575,289.608c1.302,1.856,3.244,2.921,4.961,3.192c2.583,0.407,3.523-3.771,2.434-6.225
					c-0.98-2.208-3.598-3.494-6.011-2.777C317.581,284.504,317.086,287.486,318.575,289.608z"/>
				
					<path style="opacity:0.2;fill:none;stroke:#000000;stroke-width:0.5;stroke-linecap:round;stroke-linejoin:round;stroke-miterlimit:10;" d="
					M323.868,288.621c-0.141-0.898-0.651-1.733-1.385-2.27c-0.734-0.536-1.685-0.768-2.583-0.629"/>
			</g>
			<g>
				<path style="fill:#263238;" d="M340.288,291.485c-0.697,0.938-1.579,2.784-1.579,2.784c-0.182-0.05-0.364-0.1-0.542-0.159
					c-2.447-0.737-3.339-1.888-3.585-2.94c-0.133-0.576-0.065-1.127,0.047-1.56c0.124-0.501,0.327-0.83,0.327-0.83
					c1.064,1.166,3.292,2.029,4.502,2.44C339.962,291.398,340.288,291.485,340.288,291.485z"/>
				<path style="fill:#FFFFFF;" d="M339.458,291.221l-0.487,0.809c-2.303-0.7-3.831-1.502-4.342-2.418
					c0.124-0.501,0.327-0.83,0.327-0.83C336.02,289.947,338.248,290.81,339.458,291.221z"/>
				<path style="fill:#D7504D;" d="M338.167,294.111c-2.447-0.737-3.339-1.888-3.585-2.94c0.824,0.283,1.787,0.717,2.555,1.357
					C337.726,293.016,338.019,293.582,338.167,294.111z"/>
			</g>
		</g>
	</g>
</g>
<g id="Character_2_00000031917292557841314930000014290452367221320086_">
	<g>
		<g>
			
				<ellipse transform="matrix(0.7071 -0.7071 0.7071 0.7071 -0.0819 272.9893)" style="fill:#407BFF;" cx="329.486" cy="136.594" rx="46.531" ry="46.531"/>
			
				<ellipse transform="matrix(0.7071 -0.7071 0.7071 0.7071 -0.0819 272.9893)" style="opacity:0.7;fill:#FFFFFF;" cx="329.486" cy="136.594" rx="46.531" ry="46.531"/>
		</g>
		<path style="fill:#407BFF;" d="M360.606,168.372c-2.411-3.068-22.778-5.301-22.778-5.301l-14.889,1.29
			c0,0-17.561,3.134-23.262,6.202c-0.403,0.217-0.785,0.474-1.155,0.753c8.226,7.34,19.071,11.808,30.963,11.808
			c12.516,0,23.869-4.951,32.232-12.989C361.321,169.411,360.944,168.801,360.606,168.372z"/>
		<g>
			<path style="fill:#263238;" d="M336.481,102.471c-14.501-4.93-19.707,6.95-19.707,6.95c-1.971,0.544-3.172,1.333-3.866,2.22
				c-1.124,0.507-2.308,1.404-3.33,2.981c-3.037,4.689-1.841,10.702-0.046,13.811c1.265,2.19,7.149-2.062,8.654-8.433
				c7.208,2.444,21.169,7.088,23.651,7.261c3.373,0.235,8.673-3.861,9.314-9.347C352.117,109.662,345.621,105.579,336.481,102.471z"
				/>
			<path style="fill:#FFB2A8;" d="M322.54,164.264c0,0,1.675-7.131-1.397-20.044c0.001-0.014,0.686-0.278,0.687-0.292
				c-0.422-1.806-0.883-3.478-1.324-4.929c-0.01-0.042-0.008-0.056-0.008-0.056l16.893,11.613
				c-0.607,4.052,0.471,11.991,1.18,15.356c0,0,1.906,6.125-6.112,5.998C326.601,171.819,322.54,164.264,322.54,164.264z"/>
			<g style="opacity:0.2;">
				<g>
					<path d="M328.312,153.487c2.093,2.396,5.733,3.746,9.069,3.817c-0.048-0.297-0.039-0.743-0.074-1.039
						c-0.057-0.465-0.052-1.176-0.078-1.664c-0.027-0.6-0.037-1.252-0.006-1.873c0.029-0.246,0.128-0.211,0.157-0.457l0.059-0.507
						l-10.106-3.43C326.513,148.932,326.624,151.541,328.312,153.487z"/>
				</g>
			</g>
			<g>
				<g>
					<path style="fill:#FFB2A8;" d="M314.633,128.688c-2.421-10.85,7.004-20.84,18.257-18.23
						c11.421,2.649,15.512,18.675,14.729,28.895c-0.869,11.355-13.594,18.531-23.268,11.399
						C317.921,146.011,317.055,139.538,314.633,128.688L314.633,128.688z"/>
				</g>
			</g>
			<path style="fill:#263238;" d="M322.818,111.236c-4.034,0.818-12.317,8.848-12.317,8.848s0.526,3.115,1.587,4.971
				c-0.453,0.384-0.875,0.796-1.248,1.243c-0.433,0.523-0.81,1.088-1.109,1.705c-0.071,0.14-0.135,0.284-0.198,0.43
				c0.145,0.4,0.333,0.812,0.571,1.235c1.175,2.098,4.904,6.733,8.151,10.632c-0.272-0.546-0.517-1.136-0.747-1.785
				c-0.766-2.164-1.715-5.174-2.699-8.804c0.876,0.027,1.509,0.267,2.083,0.571c4.189,2.22,5.716,4.3,7.479,2.255
				c1.071-1.244-0.275-5.209-1.158-8.582c-0.222-0.885-0.663-2.879-0.69-4.833c-0.036-2.617,2.587-4.764,2.587-4.764
				s0.152-0.186,0.309-0.465c3.588,2.309,9.913,5.175,16.143,2.109C350.866,111.424,330.814,102.36,322.818,111.236z"/>
			<path style="fill:#263238;" d="M330.34,131.087c0.1,1.131,0.781,1.989,1.521,1.917c0.74-0.073,1.259-1.049,1.159-2.18
				c-0.1-1.131-0.781-1.989-1.52-1.917C330.759,128.98,330.24,129.956,330.34,131.087z"/>
			<path style="fill:#263238;" d="M341.305,130.347c0.1,1.131,0.78,1.989,1.52,1.917c0.74-0.073,1.259-1.049,1.159-2.18
				c-0.1-1.131-0.78-1.989-1.52-1.916C341.724,128.24,341.205,129.216,341.305,130.347z"/>
			<path style="fill:#E8675B;" d="M338.042,128.99c0,0,4.077,5.304,5.427,7.491c-1.449,1.561-4.219,1.145-4.219,1.145
				L338.042,128.99z"/>
			<path style="fill:#263238;" d="M327.434,124.97c0.177,0.055,0.378,0.015,0.525-0.122c1.701-1.586,3.483-1.226,3.669-1.185
				c0.285,0.068,0.575-0.107,0.646-0.391c0.071-0.284-0.104-0.57-0.388-0.639c-0.101-0.024-2.493-0.57-4.652,1.445
				c-0.216,0.201-0.228,0.536-0.028,0.749C327.271,124.897,327.35,124.944,327.434,124.97z"/>
			<g>
				<path style="fill:#FFB2A8;" d="M311.605,136.576c1.177,2.87,3.573,4.914,5.946,5.842c3.57,1.397,4.514-2.455,3.871-6.036
					c-0.579-3.224-1.877-7.098-5.627-6.964C312.1,129.551,310.26,133.296,311.605,136.576z"/>
				
					<path style="opacity:0.2;fill:none;stroke:#000000;stroke-width:0.5;stroke-linecap:round;stroke-linejoin:round;stroke-miterlimit:10;" d="
					M313.942,133.177c0.401-0.725,1.32-1.06,2.139-0.933c0.819,0.126,1.535,0.641,2.083,1.262c0.657,0.746,1.115,1.667,1.313,2.641"
					/>
			</g>
			<path style="fill:#263238;" d="M346.257,124.091c0.096-0.03,0.186-0.088,0.254-0.172c0.186-0.228,0.155-0.564-0.07-0.75
				c-2.261-1.866-4.59-1.127-4.699-1.107c-0.279,0.09-0.435,0.39-0.348,0.67c0.087,0.28,0.381,0.434,0.659,0.347
				c0.096-0.035,1.898-0.581,3.712,0.917C345.908,124.113,346.093,124.142,346.257,124.091z"/>
			<g>
				<g>
					<g>
						<path style="fill:#FFFFFF;" d="M331.125,139.994c0,0,2.732,1.698,7.52,1.703c0,0-0.868,3.281-3.938,3.01
							C330.995,144.379,331.125,139.994,331.125,139.994z"/>
					</g>
				</g>
				<g>
					<path style="fill:#263238;" d="M334.585,138.557c1.756,0.053,3.474,0.657,4.779,1.833c0.504,0.454,0.931,0.976,1.106,1.533
						c0.56,1.782-5.763,0.535-8.356-0.459c-2.593-0.994-1.994-2.009-0.531-2.608C332.284,138.568,333.504,138.524,334.585,138.557z"
						/>
				</g>
			</g>
			<path style="opacity:0.3;fill:#FFFFFF;" d="M322.751,121.659c0,0-4.611,2.964-9.224,2.112c-4.613-0.852-5.809-1.87-5.809-1.87
				l0.334,2.51c0,0,3.892,2.292,8.657,2.032c4.765-0.26,6.783-1.45,6.783-1.45L322.751,121.659z"/>
		</g>
		<g>
			<path style="fill:none;stroke:#407BFF;stroke-linecap:round;stroke-linejoin:round;stroke-miterlimit:10;" d="M281.589,117.204
				c-6.648,14.59-5.278,33.825,3.34,46.871"/>
			<path style="fill:none;stroke:#407BFF;stroke-linecap:round;stroke-linejoin:round;stroke-miterlimit:10;" d="M283.36,113.319
				c0.097-0.291,2.421-4.207,2.421-4.207"/>
		</g>
	</g>
</g>
<g id="Character_1">
	<g>
		<g>
			<path style="fill:#407BFF;" d="M187.642,433.02c-1.82-11.54-4.621-27.74-8.889-45c-5.41-21.774-12.173-45.304-17.713-63.74
				c-5.861-19.422-10.305-33.155-10.305-33.155l47.792-3.005c0,0,19.564,96.517,24.154,133.78c0.526,3.647,0.488,7.302,0,10.964
				L187.642,433.02z"/>
			<path style="opacity:0.2;enable-background:new    ;" d="M187.642,433.02c-1.82-11.54-4.621-27.74-8.889-45
				c-5.41-21.774-12.173-45.304-17.713-63.74c-5.861-19.422-10.305-33.155-10.305-33.155l47.792-3.005
				c0,0,19.564,96.517,24.154,133.78c0.526,3.647,0.488,7.302,0,10.964L187.642,433.02z"/>
			<path style="opacity:0.2;enable-background:new    ;" d="M166.437,316.71l-4.471,9.639c4.994,18.435,10.781,38.682,16.463,60.367
				C180.547,365.349,177.178,329.397,166.437,316.71z"/>
			<path style="fill:#407BFF;" d="M161.829,430.538c5.749-35.651,10.917-140.806,10.917-140.806l-46.922,2.976
				c0,0,4.815,90.537,0.66,134.085l-0.66,6.072h35.689L161.829,430.538z"/>
			<path style="opacity:0.2;enable-background:new    ;" d="M161.829,430.538c5.749-35.651,10.917-140.806,10.917-140.806
				l-46.922,2.976c0,0,4.815,90.537,0.66,134.085l-0.66,6.072h35.689L161.829,430.538z"/>
			<path style="opacity:0.2;enable-background:new    ;" d="M172.039,302.217c0,1.156-0.937,2.092-2.092,2.092
				c-1.155,0-2.092-0.937-2.092-2.092c0-1.155,0.937-2.092,2.092-2.092C171.102,300.125,172.039,301.061,172.039,302.217z"/>
		</g>
		
			<path style="opacity:0.2;fill:none;stroke:#000000;stroke-linecap:round;stroke-linejoin:round;stroke-miterlimit:10;enable-background:new    ;" d="
			M128.892,318.151c4.667-0.018,9.297-1.985,12.55-5.331c3.254-3.346,5.09-8.029,4.977-12.695"/>
		
			<path style="opacity:0.2;fill:none;stroke:#000000;stroke-linecap:round;stroke-linejoin:round;stroke-miterlimit:10;enable-background:new    ;" d="
			M174.464,300.125c0,0,0.603,18.603,0,18.844c-0.603,0.241-4.517,0.845-4.517,0.845"/>
		<g style="opacity:0.2;enable-background:new    ;">
			<g>
				<path d="M190.972,301.056c-0.104,0.62,0.086,1.341,0.197,1.946c0.237,1.291,0.585,2.565,1.03,3.799
					c1.108,3.077,2.885,6.125,5.724,7.895c1.826,1.138,3.954,1.575,6.088,1.436c0.479-0.031,0.483-0.781,0-0.75
					c-3.615,0.236-6.726-1.405-8.81-4.327c-1.632-2.288-2.641-5.012-3.21-7.751c-0.098-0.471-0.186-0.946-0.242-1.423
					c-0.017-0.147-0.03-0.294-0.041-0.442c-0.005-0.061,0.014-0.341-0.012-0.185C191.774,300.784,191.052,300.581,190.972,301.056
					L190.972,301.056z"/>
			</g>
		</g>
		<g>
			<g>
				<path style="fill:#8E4B4C;" d="M198.891,210.244l10.246,18.252l22.609-28.402l10.712,3.994c0,0-27.859,48.627-34.867,49.451
					c-7.008,0.825-24.501-31.402-24.501-31.402L198.891,210.244z"/>
				<path style="fill:#263238;" d="M188.873,185.925c7.361,10.902,19.514,31.607,19.514,31.607l-27.904,15.96
					c0,0-18.024-29.709-17.124-41.409C164.346,179.41,181.296,178.74,188.873,185.925z"/>
				<path style="fill:#263238;" d="M129.943,182.894c1.727-0.276,3.498-0.523,5.255-0.74c9.24-1.19,18.541-1.849,27.856-1.974
					c1.152,0.01,2.284,0.053,3.397,0.131c5.26,0.323,10.496,0.968,15.677,1.931c0,0,10.576,48.632,19.565,113.33
					c-29.279,4.497-58.138,5.586-81.021,1.608c-0.581-4.979,3.886-24.213,2.87-43.519c-0.436-8.245-1.132-17.332-2.294-26.84
					c-1.594-13.646-5.073-27.3-8.678-40.558C112.57,186.261,121.161,184.273,129.943,182.894z"/>
			</g>
		</g>
		<polygon style="opacity:0.2;enable-background:new    ;" points="129.224,234.888 130.641,234.658 126.695,212.909 
			137.991,249.689 131.859,251.751 		"/>
		<g>
			<g>
				<g>
					<path style="fill:none;stroke:#407BFF;stroke-width:18;stroke-miterlimit:10;" d="M277.028,247.729l-49.198,10.547
						c-18.222,3.906-36.057-7.216-39.835-24.843v0c-3.779-17.627,7.929-35.083,26.151-38.99l49.198-10.547"/>
					
						<rect x="248.532" y="240.391" transform="matrix(0.9778 -0.2096 0.2096 0.9778 -46.5836 60.6712)" style="opacity:0.7;fill:#FFFFFF;" width="28.778" height="19.398"/>
					<g style="opacity:0.3;">
						<path d="M278.925,256.53l-49.198,10.547c-23.814,5.105-47.238-9.632-52.216-32.852c-4.978-23.221,10.346-46.266,34.16-51.371
							l49.198-10.547l4.371,20.391l-49.198,10.547c-12.57,2.695-20.708,14.632-18.141,26.608
							c2.568,11.977,14.884,19.529,27.454,16.834l49.198-10.547L278.925,256.53z"/>
					</g>
				</g>
				<g>
					<path style="fill:none;stroke:#407BFF;stroke-width:18;stroke-miterlimit:10;" d="M274.844,237.542l-49.198,10.547
						c-18.222,3.906-36.057-7.216-39.835-24.843l0,0c-3.779-17.627,7.929-35.083,26.151-38.99l49.198-10.547"/>
					
						<rect x="246.38" y="231.498" transform="matrix(0.9778 -0.2096 0.2096 0.9778 -44.6265 60.0068)" style="opacity:0.7;fill:#FFFFFF;" width="28.777" height="18.06"/>
					
						<rect x="233.782" y="167.606" transform="matrix(0.9778 -0.2096 0.2096 0.9778 -32.5998 56.0618)" style="opacity:0.7;fill:#FFFFFF;" width="28.777" height="28.428"/>
				</g>
			</g>
			<g>
				<g>
					<path style="fill:#8E4B4C;" d="M232.949,198.139c0,0,1.334-9.57,3.532-11.074c2.198-1.505,2.637,2.271,2.637,2.271
						s-0.228-4.184,1.535-4.521c2.117-0.405,2.56,3.553,2.56,3.553s-0.047-3.424,1.542-3.619c1.648-0.202,2.465,4.23,2.465,4.23
						s0.423-2.417,1.604-1.928c1.181,0.49,3.097,9.861,1.794,12.932c-1.304,3.07-13.424,5.165-16.155,4.992
						c-0.784-0.05-2.104-0.369-3.767-3.57c-0.348-0.671-0.128-1.51,0.511-1.913l1.698-1.069L232.949,198.139z"/>
				</g>
				<g>
					<path style="opacity:0.2;" d="M239.318,189.312c0.001,0.006,0.001,0.011,0.001,0.018l0.049,7.313
						c0,0.098-0.089,0.181-0.2,0.184c-0.111,0.003-0.204-0.077-0.203-0.172l-0.049-7.313c0-0.098,0.089-0.181,0.2-0.184
						C239.222,189.154,239.308,189.222,239.318,189.312z"/>
				</g>
				<g>
					<path style="opacity:0.2;" d="M243.437,188.55c0,0.001,0,0.003,0,0.005l0.606,7.021c0.008,0.098-0.075,0.185-0.185,0.195
						c-0.112,0.01-0.188-0.048-0.217-0.158l-0.606-7.021c-0.008-0.098,0.075-0.185,0.185-0.196
						C243.33,188.386,243.426,188.454,243.437,188.55z"/>
				</g>
				<g>
					<path style="opacity:0.2;" d="M247.448,189.194l0.599,5.204c0.011,0.098-0.069,0.187-0.18,0.199
						c-0.11,0.013-0.209-0.056-0.221-0.153l-0.599-5.204c-0.011-0.098,0.07-0.187,0.18-0.199
						C247.338,189.028,247.437,189.096,247.448,189.194z"/>
				</g>
			</g>
		</g>
		<path style="fill:#8E4B4C;" d="M134.528,182.248c5.8-6.824,2.908-22.685,0.303-31.144l21.859,13.521
			c-0.305,1.053-0.536,2.126-0.693,3.211c-0.352,1.949-0.195,3.957,0.454,5.828c0.602,1.534,3.47,6.516,3.47,6.516
			s5.096,9.388-7.103,10.857C140.732,191.94,134.528,182.248,134.528,182.248z"/>
		<path style="opacity:0.2;enable-background:new    ;" d="M139.689,159.353c0.484,10.284,11.396,13.542,16.773,14.327
			c-0.649-1.872-0.805-3.879-0.454-5.828L139.689,159.353z"/>
		<path style="fill:#263238;" d="M153.895,118.775c10.016-2.076,4.79,6.01,15.822,7.461c0.291,6.706-7.33,14.269-10.234,10.161
			C156.291,131.883,145.563,120.415,153.895,118.775z"/>
		<path style="fill:#8E4B4C;" d="M130.326,144.09c4.295,11.55,6.478,18.15,14.419,22.32c11.945,6.271,25-3.323,24.345-15.965
			c-0.589-11.379-7.514-28.355-20.786-29.407C135.229,120.003,126.03,132.541,130.326,144.09z"/>
		<path style="fill:#263238;" d="M147.079,142c0.363,1.204,1.314,1.979,2.125,1.731c0.809-0.248,1.172-1.426,0.808-2.631
			c-0.363-1.204-1.314-1.979-2.124-1.731C147.078,139.617,146.716,140.795,147.079,142z"/>
		<path style="fill:#263238;" d="M159.422,139.27c0.363,1.205,1.314,1.98,2.124,1.732c0.81-0.248,1.172-1.426,0.809-2.631
			c-0.363-1.204-1.314-1.979-2.124-1.731C159.421,136.888,159.059,138.066,159.422,139.27z"/>
		<path style="fill:#703131;" d="M156.784,139.484c0,0,5.733,4.822,7.727,6.885c-1.27,2.026-4.456,2.209-4.456,2.209
			L156.784,139.484z"/>
		<path style="fill:#263238;" d="M143.96,137.57c0.21,0.019,0.426-0.07,0.559-0.252c1.582-2.16,3.81-2.126,3.833-2.126
			c0.334,0.008,0.618-0.248,0.634-0.572c0.016-0.325-0.243-0.595-0.575-0.605c-0.118-0.004-2.91-0.047-4.872,2.634
			c-0.196,0.267-0.135,0.634,0.135,0.819C143.761,137.528,143.859,137.561,143.96,137.57z"/>
		<path style="fill:#263238;" d="M164.78,132.305c0.101-0.055,0.188-0.138,0.246-0.245c0.157-0.29,0.048-0.648-0.245-0.798
			c-2.94-1.506-5.376-0.171-5.493-0.125c-0.291,0.162-0.399,0.523-0.239,0.807c0.159,0.283,0.522,0.383,0.813,0.225
			c0.099-0.06,1.989-1.065,4.349,0.144C164.395,132.409,164.608,132.398,164.78,132.305z"/>
		<g>
			<path style="fill:#263238;" d="M160.259,152.737c-0.814,1.492-1.518,3.04-2.108,4.634c-0.292-0.057-0.592-0.107-0.881-0.177
				c-3.982-0.823-5.564-2.514-6.09-4.152c-0.243-0.806-0.294-1.657-0.148-2.486c0.071-0.469,0.207-0.926,0.404-1.357
				c1.852,1.699,5.495,2.752,7.471,3.231C159.768,152.596,160.259,152.737,160.259,152.737z"/>
			<path style="fill:#FFFFFF;" d="M158.915,152.429l-0.66,1.351c-3.74-0.782-6.268-1.824-7.215-3.224
				c0.071-0.469,0.207-0.926,0.404-1.357C153.307,150.914,156.938,151.95,158.915,152.429z"/>
			<path style="fill:#D7504D;" d="M157.287,157.28c-3.982-0.823-5.564-2.514-6.09-4.152c1.507,0.34,2.943,0.944,4.24,1.785
				C156.285,155.489,156.931,156.317,157.287,157.28z"/>
		</g>
		<path style="fill:#263238;" d="M165.851,109.479c-8.129-0.784-10.873,0.103-17.574,2.769c0,0,1.676-3.44,0.994-7.461
			c-15.489,13.34-22.224,7.084-29.743,14.719c-4.805,4.877-0.093,11.04-0.093,11.04s-12.492,8.111,6.34,22.152
			c0.597,1.543,0.756,3.031,0.145,4.003c-1.13,1.795-3.204,2.721-5.157,3.547c3.194,0.908,6.698,0.681,9.748-0.633
			c-0.56,1.977-1.626,3.808-3.067,5.272c4.232,0.275,8.543-1.78,10.995-5.24l-3.116-8.497c0.723-0.077,1.494-0.078,2.337,0.058
			c0.565-2.867,0.727-5.798,0.479-8.71c-0.417-2.277-1.134-4.488-2.134-6.576c0,0,6.953-4.108,7.113-9.058
			c0,0,12.426,3.658,19.06-1.931C168.809,119.348,162.454,111.947,165.851,109.479z"/>
		<g>
			<path style="fill:#8E4B4C;" d="M128.497,155.32c1.883,2.743,4.904,4.354,7.659,4.801c4.144,0.673,4.335-3.567,2.873-7.174
				c-1.315-3.246-3.545-7.015-7.556-6.046C127.522,147.858,126.344,152.184,128.497,155.32z"/>
			
				<path style="opacity:0.2;fill:none;stroke:#000000;stroke-width:0.5;stroke-linecap:round;stroke-linejoin:round;stroke-miterlimit:10;" d="
				M130.285,151.246c0.277-0.847,1.195-1.401,2.104-1.45c0.909-0.048,1.791,0.331,2.514,0.861c0.868,0.636,1.559,1.498,1.982,2.475"
				/>
		</g>
		<g>
			<path style="fill:#8E4B4C;" d="M104.038,225.051c0,0,10.729,42.013,17.909,46.563c7.18,4.55,58.536-17.337,58.536-17.337
				l-6.16-9.982l-41.693,6.192c-1.335-1.453-6.523-34.133-6.523-34.133L104.038,225.051z"/>
			<path style="fill:#263238;" d="M125.251,203.682c2.197,15.014,5.39,30.976,5.39,30.976l-28.414,4.605
				c0,0-3.651-47.435,10.625-53.002C117.749,186.261,122.86,187.324,125.251,203.682z"/>
			<path style="fill:#8E4B4C;" d="M192.581,242.187l0.757-1.467c0.877-2.443-1.422-4.095-1.422-4.095
				c0.127-2.079-1.819-4.321-2.606-4.848c-0.786-0.527-9.055,6.016-9.055,6.016l-1.979-5.098c-0.329,0.119-3.63,3.791-5.098,6.653
				l-4.403,6.97c1.227,5.737,4.053,7.37,7.157,8.69c0.524,0.223,7.141-1.237,10.319-2.101c2.905-0.79,7.351-3.068,8.335-6.926
				C195.569,242.122,192.581,242.187,192.581,242.187z"/>
			<polygon style="opacity:0.2;enable-background:new    ;" points="132.63,250.485 128.897,259.916 136.059,249.976 			"/>
		</g>
	</g>
</g>
<g id="Emojis">
	<g>
		<path style="fill:#407BFF;" d="M458.043,126.898c-0.33-0.951-0.724-1.878-1.179-2.775l0,0
			c-6.541-13.461-22.755-19.071-36.216-12.531c-13.461,6.541-19.072,22.755-12.531,36.217c6.541,13.461,22.755,19.071,36.216,12.531
			c9.398-4.566,15.334-14.13,15.255-24.578C459.579,132.741,459.057,129.744,458.043,126.898z"/>
		<path style="opacity:0.5;fill:#FFFFFF;enable-background:new    ;" d="M459.588,135.741c-0.011-3.014-0.534-6.004-1.545-8.843
			c-0.33-0.951-0.724-1.878-1.179-2.775l0,0c-6.541-13.461-22.755-19.071-36.216-12.531c-13.461,6.541-19.072,22.755-12.531,36.217
			c6.541,13.461,22.755,19.071,36.216,12.531c9.398-4.566,15.334-14.13,15.255-24.578V135.741z"/>
		<path style="fill:#407BFF;" d="M450.267,127.752c-1.83-2.47-4.808-1.199-6.221,0.966c-1.758-1.891-4.92-2.623-6.292,0.122
			c-2.328,4.635,3.608,8.223,6.373,9.585l0.793,0.386l0.711-0.518C448.133,136.473,453.357,131.919,450.267,127.752z"/>
		<path style="fill:#407BFF;" d="M427.458,128.941c-1.484-2.694-4.604-1.84-6.292,0.112c-1.494-2.104-4.523-3.263-6.261-0.732
			c-2.927,4.279,2.46,8.64,5.031,10.368l0.722,0.488l0.783-0.417C424.155,137.296,429.959,133.485,427.458,128.941z"/>
		<path style="fill:#263238;" d="M432.901,147.197c-3.437-0.674-4.874-4.827-5.153-7.114c-0.01-0.3,0.225-0.55,0.525-0.56
			c0.263-0.008,0.494,0.173,0.548,0.43c0.004,0.067,0.84,6.358,5.144,6.282c4.304-0.076,4.658-6.838,4.661-6.912
			c0.013-0.296,0.263-0.525,0.559-0.513c0.002,0,0.004,0,0.005,0c0.292,0.009,0.522,0.253,0.513,0.545c0,0.006,0,0.013-0.001,0.019
			c0.017,0.321-0.411,7.852-5.714,7.939C433.622,147.315,433.258,147.275,432.901,147.197z"/>
		<path style="fill:#407BFF;" d="M450.176,139.512c-0.529,0.539-1.159,0.793-1.403,0.549c-0.244-0.244,0-0.874,0.508-1.423
			c0.508-0.549,1.149-0.783,1.403-0.549C450.938,138.323,450.704,138.973,450.176,139.512z"/>
		<path style="fill:#407BFF;" d="M452.412,139.777c-0.529,0.549-1.159,0.793-1.403,0.549c-0.244-0.244,0-0.874,0.508-1.413
			c0.508-0.539,1.149-0.793,1.393-0.549C453.154,138.608,452.951,139.238,452.412,139.777z"/>
		<path style="fill:#407BFF;" d="M416.094,139.878c0.579,0.488,1.23,0.661,1.443,0.396s-0.071-0.864-0.651-1.352
			c-0.579-0.488-1.23-0.661-1.453-0.396C415.21,138.791,415.505,139.4,416.094,139.878z"/>
		<path style="fill:#407BFF;" d="M413.889,140.386c0.579,0.488,1.23,0.661,1.453,0.396c0.224-0.264-0.071-0.874-0.661-1.352
			c-0.589-0.478-1.23-0.661-1.443-0.396C413.025,139.299,413.309,139.898,413.889,140.386z"/>
	</g>
	<g>
		<path style="fill:#407BFF;" d="M110.364,274.199c-0.352-1.086-0.779-2.148-1.277-3.176l0,0
			c-7.36-15.389-25.802-21.897-41.191-14.537c-6.19,2.961-11.218,7.898-14.291,14.034c-0.585,1.189-1.098,2.411-1.534,3.662
			c-5.72,16.078,2.677,33.748,18.755,39.468c16.078,5.72,33.748-2.677,39.468-18.755c1.213-3.41,1.818-7.007,1.786-10.627
			C112.085,280.839,111.504,277.434,110.364,274.199z"/>
		<path style="opacity:0.3;fill:#FFFFFF;enable-background:new    ;" d="M110.364,274.199c-0.352-1.086-0.779-2.148-1.277-3.176l0,0
			c-7.36-15.389-25.802-21.897-41.191-14.537c-6.19,2.961-11.218,7.898-14.291,14.034c-0.585,1.189-1.098,2.411-1.534,3.662
			c-5.72,16.078,2.677,33.748,18.755,39.468c16.078,5.72,33.748-2.677,39.468-18.755c1.213-3.41,1.818-7.007,1.786-10.627
			C112.085,280.839,111.504,277.434,110.364,274.199z"/>
		<path style="fill:#263238;" d="M84.487,277.073c0,0,2.029-4.712,5.614-4.949c4.627-0.275,6.401,5.051,6.401,5.051l-1.806,0.067
			c0,0-1.648-4.136-4.43-3.801c-3.463,0.406-4.778,4.037-4.778,4.037L84.487,277.073z"/>
		<path style="fill:#263238;" d="M76.348,277.072c0,0-2.281-4.608-5.896-4.629c-4.636-0.015-6.098,5.391-6.098,5.391l1.807,0.051
			c0,0,1.417-4.225,4.205-4.042c3.471,0.214,4.993,3.769,4.993,3.769L76.348,277.072z"/>
		<path style="fill:#263238;" d="M70.012,282.368c0,0,12.932,1.668,22.334-0.595c0,0-0.514,12.79-11.555,12.054
			C69.75,293.092,70.012,282.368,70.012,282.368z"/>
		<path style="fill:#FFFFFF;" d="M70.34,282.901c0,0,12.319,1.647,21.28-0.6c0,0-0.221,1.486-0.586,1.771
			c-0.499,0.226-1.021,0.397-1.557,0.51c-0.062,0.191-0.178,0.361-0.334,0.487C88.274,285.61,85,285.512,85,285.512
			s-0.041,0.26-0.152,0.341c-0.732,0.548-2.87,0.736-3.63,0.239c-0.194-0.226-0.346-0.485-0.448-0.765c0,0-0.134,0.687-0.304,0.811
			c-0.555,0.43-2.196,0.231-2.794-0.138c-0.196-0.182-0.347-0.406-0.442-0.656c0,0-2.181,0.271-2.809-0.035
			c-0.225-0.196-0.416-0.427-0.566-0.684c0,0-2.431,0.162-3.027-0.309C70.524,284.081,70.34,282.901,70.34,282.901z"/>
		<path style="fill:#407BFF;" d="M81.296,293.352c2.249,0.119,6.802-1.562,7.169-3.097c0.368-1.535-1.414-2.331-3.306-1.864
			c-1.141,0.299-2.212,0.817-3.154,1.526c0,0-3.367-1.732-5.957-0.983C74.422,289.42,74.181,292.974,81.296,293.352z"/>
		<path style="opacity:0.3;fill:#FFFFFF;enable-background:new    ;" d="M65.723,283.04c-0.265,1.768-2.728,2.846-5.505,2.421
			c-2.777-0.425-4.793-2.226-4.54-3.937c0.253-1.712,2.739-2.844,5.492-2.365C63.925,279.638,65.997,281.285,65.723,283.04z"/>
		<path style="opacity:0.3;fill:#FFFFFF;enable-background:new    ;" d="M106.797,279.757c0.546,1.703-1.184,3.76-3.862,4.61
			c-2.678,0.85-5.283,0.128-5.814-1.518c-0.532-1.646,1.196-3.763,3.876-4.553C103.677,277.505,106.265,278.063,106.797,279.757z"/>
	</g>
	<g>
		<path style="fill:#407BFF;" d="M271.346,312.147c-0.208-0.615-0.46-1.214-0.755-1.792l0,0c-4.22-8.697-14.692-12.326-23.39-8.106
			c-3.495,1.696-6.326,4.506-8.048,7.988c-1.204,2.45-1.822,5.146-1.805,7.876c-0.108,9.667,7.641,17.59,17.308,17.698
			c9.667,0.108,17.59-7.641,17.698-17.308c0.002-0.211,0.001-0.422-0.004-0.633C272.342,315.919,272.002,313.984,271.346,312.147z"
			/>
		<path style="opacity:0.6;fill:#FFFFFF;enable-background:new    ;" d="M271.346,312.147c-0.208-0.615-0.46-1.214-0.755-1.792l0,0
			c-4.22-8.697-14.692-12.326-23.39-8.106c-3.495,1.696-6.326,4.506-8.048,7.988c-1.204,2.45-1.822,5.146-1.805,7.876
			c-0.108,9.667,7.641,17.59,17.308,17.698c9.667,0.108,17.59-7.641,17.698-17.308c0.002-0.211,0.001-0.422-0.004-0.633
			C272.342,315.919,272.002,313.984,271.346,312.147z"/>
		<path style="fill:#263238;" d="M254.695,324.521c-2.907,0-5.552-1.47-6.563-3.656c-0.113-0.247-0.008-0.538,0.236-0.656
			c0.241-0.118,0.532-0.018,0.65,0.223c0.002,0.005,0.004,0.009,0.007,0.014c0.873,1.851,3.163,3.091,5.697,3.091
			c2.533,0,4.824-1.241,5.697-3.091c0.115-0.246,0.408-0.352,0.654-0.237c0.001,0,0.001,0.001,0.002,0.001
			c0.244,0.118,0.349,0.41,0.236,0.656C260.247,323.05,257.602,324.521,254.695,324.521z"/>
		<path style="fill:#263238;" d="M261.258,313.958c0.859,0,1.556,0.696,1.556,1.555c0,0.859-0.696,1.556-1.556,1.556
			c-0.859,0-1.555-0.696-1.555-1.556C259.703,314.655,260.399,313.958,261.258,313.958z"/>
		<path style="fill:#263238;" d="M249.687,315.514c0,0.859-0.696,1.556-1.555,1.556c-0.859,0-1.556-0.696-1.556-1.556
			c0-0.859,0.696-1.555,1.556-1.555l0,0C248.989,313.962,249.683,314.656,249.687,315.514z"/>
	</g>
</g>
</svg>
