<?xml version="1.0" encoding="utf-8"?>
<!-- Generator: Adobe Illustrator 27.5.0, SVG Export Plug-In . SVG Version: 6.00 Build 0)  -->
<svg version="1.1" xmlns="http://www.w3.org/2000/svg" xmlns:xlink="http://www.w3.org/1999/xlink" x="0px" y="0px"
	 viewBox="0 0 500 500" style="enable-background:new 0 0 500 500;" xml:space="preserve">
<g id="Background_Complete">
	<g>
		<g>
			<rect y="382.398" style="fill:#EBEBEB;" width="500" height="0.25"/>
			<path style="fill:#EBEBEB;" d="M237.014,337.8H43.915c-3.147,0-5.708-2.561-5.708-5.708V60.66c0-3.147,2.561-5.708,5.708-5.708
				h193.099c3.146,0,5.707,2.561,5.707,5.708v271.432C242.721,335.239,240.16,337.8,237.014,337.8z M43.915,55.203
				c-3.01,0-5.458,2.448-5.458,5.458v271.432c0,3.01,2.448,5.458,5.458,5.458h193.099c3.009,0,5.457-2.448,5.457-5.458V60.66
				c0-3.009-2.448-5.458-5.457-5.458H43.915z"/>
			<path style="fill:#EBEBEB;" d="M453.31,337.8H260.212c-3.147,0-5.707-2.561-5.707-5.708V60.66c0-3.147,2.561-5.708,5.707-5.708
				H453.31c3.148,0,5.708,2.561,5.708,5.708v271.432C459.019,335.239,456.458,337.8,453.31,337.8z M260.212,55.203
				c-3.009,0-5.457,2.448-5.457,5.458v271.432c0,3.01,2.448,5.458,5.457,5.458H453.31c3.01,0,5.458-2.448,5.458-5.458V60.66
				c0-3.009-2.448-5.458-5.458-5.458H260.212z"/>
		</g>
		<rect x="52.459" y="398.494" style="fill:#EBEBEB;" width="33.207" height="0.25"/>
		<rect x="146.333" y="397.501" style="fill:#EBEBEB;" width="54.101" height="0.25"/>
		<rect x="86.667" y="389.208" style="fill:#EBEBEB;" width="19.108" height="0.25"/>
		<rect x="435.118" y="390.888" style="fill:#EBEBEB;" width="14.783" height="0.25"/>
		<rect x="391.471" y="390.888" style="fill:#EBEBEB;" width="34.743" height="0.25"/>
		<rect x="267.333" y="395.111" style="fill:#EBEBEB;" width="45.449" height="0.25"/>
	</g>
	<g>
		<g>
			<g>
				<g>
					<g>
						<rect x="145.056" y="85.619" style="fill:#E6E6E6;" width="59.38" height="135.039"/>
						<rect x="148.684" y="85.619" style="fill:#F5F5F5;" width="59.381" height="135.039"/>
						
							<rect x="116.935" y="129.961" transform="matrix(-1.836970e-16 1 -1 -1.836970e-16 331.5132 -25.2353)" style="fill:#FFFFFF;" width="122.879" height="46.357"/>
						
							<rect x="138.742" y="151.768" transform="matrix(-1.836970e-16 1 -1 -1.836970e-16 353.3203 -47.0424)" style="fill:#E6E6E6;" width="122.879" height="2.743"/>
						<rect x="151.378" y="178.089" style="fill:#F5F5F5;" width="53.993" height="8.163"/>
						<rect x="151.378" y="102.418" style="fill:#F5F5F5;" width="53.993" height="8.163"/>
					</g>
				</g>
			</g>
			<g>
				<g>
					<g>
						<rect x="225.115" y="85.619" style="fill:#E6E6E6;" width="59.38" height="135.039"/>
						<rect x="228.743" y="85.619" style="fill:#F5F5F5;" width="59.38" height="135.039"/>
						
							<rect x="196.994" y="129.961" transform="matrix(-1.836970e-16 1 -1 -1.836970e-16 411.5723 -105.2944)" style="fill:#FFFFFF;" width="122.879" height="46.357"/>
						
							<rect x="218.801" y="151.768" transform="matrix(-1.836970e-16 1 -1 -1.836970e-16 433.3794 -127.1014)" style="fill:#E6E6E6;" width="122.879" height="2.743"/>
						<rect x="231.437" y="178.089" style="fill:#F5F5F5;" width="53.993" height="8.163"/>
						<rect x="231.437" y="102.418" style="fill:#F5F5F5;" width="53.993" height="8.163"/>
					</g>
				</g>
			</g>
			<g>
				<g>
					<g>
						<rect x="64.997" y="85.619" style="fill:#E6E6E6;" width="59.38" height="135.039"/>
						<rect x="68.625" y="85.619" style="fill:#F5F5F5;" width="59.38" height="135.039"/>
						
							<rect x="36.876" y="129.961" transform="matrix(-1.836970e-16 1 -1 -1.836970e-16 251.4542 54.8237)" style="fill:#FFFFFF;" width="122.879" height="46.357"/>
						
							<rect x="58.683" y="151.768" transform="matrix(-1.836970e-16 1 -1 -1.836970e-16 273.2613 33.0167)" style="fill:#E6E6E6;" width="122.879" height="2.743"/>
						<rect x="71.319" y="178.089" style="fill:#F5F5F5;" width="53.993" height="8.163"/>
						<rect x="71.319" y="102.418" style="fill:#F5F5F5;" width="53.993" height="8.163"/>
					</g>
				</g>
			</g>
		</g>
		<g>
			<g>
				<rect x="309.129" y="285.009" style="fill:#E6E6E6;" width="22.686" height="97.389"/>
				<polygon style="fill:#F0F0F0;" points="327.507,382.398 331.815,382.398 331.815,370.142 322.989,370.142 				"/>
				<rect x="195.098" y="285.009" style="fill:#E6E6E6;" width="22.686" height="97.389"/>
				<rect x="214.024" y="285.009" style="fill:#F0F0F0;" width="117.791" height="91.355"/>
				<path style="fill:#E6E6E6;" d="M328.473,288.584h-54.107v70.971h54.107V288.584L328.473,288.584z"/>
				<path style="fill:#E6E6E6;" d="M271.474,288.584h-54.107v70.971h54.107V288.584L271.474,288.584z"/>
				<path style="fill:#FAFAFA;" d="M259.371,297.733c0,2.116,1.715,3.831,3.83,3.831s3.831-1.715,3.831-3.831
					c0-2.115-1.715-3.83-3.831-3.83S259.371,295.618,259.371,297.733z"/>
				<path style="fill:#FAFAFA;" d="M278.807,297.733c0,2.116,1.715,3.831,3.83,3.831s3.831-1.715,3.831-3.831
					c0-2.115-1.715-3.83-3.831-3.83S278.807,295.618,278.807,297.733z"/>
				<polygon style="fill:#F0F0F0;" points="218.333,382.398 214.024,382.398 214.024,370.142 222.85,370.142 				"/>
			</g>
			<g>
				<rect x="179.028" y="247.444" style="fill:#E6E6E6;" width="22.686" height="134.954"/>
				<polygon style="fill:#F0F0F0;" points="197.405,382.398 201.714,382.398 201.714,370.142 192.887,370.142 				"/>
				<rect x="64.997" y="247.444" style="fill:#E6E6E6;" width="22.686" height="134.954"/>
				<rect x="83.923" y="247.444" style="fill:#F0F0F0;" width="117.791" height="127.433"/>
				<path style="fill:#E6E6E6;" d="M198.372,250.79H87.265v24.136h111.106V250.79L198.372,250.79z"/>
				<path style="fill:#E6E6E6;" d="M198.372,277.694h-54.107v81.861h54.107V277.694L198.372,277.694z"/>
				<path style="fill:#E6E6E6;" d="M141.372,277.694H87.265v81.861h54.107V277.694L141.372,277.694z"/>
				<path style="fill:#FAFAFA;" d="M129.27,316.694c0,2.116,1.715,3.831,3.831,3.831c2.115,0,3.83-1.715,3.83-3.831
					s-1.715-3.83-3.83-3.83C130.985,312.864,129.27,314.579,129.27,316.694z"/>
				<path style="fill:#FAFAFA;" d="M148.706,316.694c0,2.116,1.715,3.831,3.831,3.831c2.115,0,3.83-1.715,3.83-3.831
					s-1.715-3.83-3.83-3.83C150.421,312.864,148.706,314.579,148.706,316.694z"/>
				<polygon style="fill:#F0F0F0;" points="88.231,382.398 83.923,382.398 83.923,370.142 92.749,370.142 				"/>
				<path style="fill:#FAFAFA;" d="M139.494,263.033c0,2.116,1.715,3.831,3.83,3.831c2.116,0,3.831-1.715,3.831-3.831
					s-1.715-3.83-3.831-3.83C141.209,259.203,139.494,260.917,139.494,263.033z"/>
			</g>
		</g>
		<g>
			<g>
				<g>
					<g>
						<polygon style="fill:#E6E6E6;" points="315.882,151.995 319.909,151.995 333.722,139.766 317.227,139.766 						"/>
						<polygon style="fill:#F5F5F5;" points="318.218,151.995 322.246,151.995 336.058,139.766 332.023,139.766 						"/>
						<polygon style="fill:#E6E6E6;" points="413.655,151.995 417.683,151.995 431.496,139.766 415.001,139.766 						"/>
						<polygon style="fill:#F5F5F5;" points="415.992,151.995 420.019,151.995 433.832,139.766 429.796,139.766 						"/>
					</g>
					<g>
						
							<rect x="305.916" y="133.481" transform="matrix(-1 -1.224647e-16 1.224647e-16 -1 638.7058 273.2474)" style="fill:#E6E6E6;" width="26.873" height="6.285"/>
						<rect x="332.789" y="133.481" style="fill:#F5F5F5;" width="111.223" height="6.285"/>
					</g>
				</g>
			</g>
			<path style="fill:#E6E6E6;" d="M404.246,95.034h-12.46c0,0,2.163,8.575,2.163,13.621c0,5.046-9.477,24.826,4.067,24.826
				c13.544,0,4.067-19.781,4.067-24.826C402.082,103.609,404.246,95.034,404.246,95.034z"/>
			<path style="fill:#E6E6E6;" d="M421.829,95.034h-12.46c0,0,2.163,8.575,2.163,13.621c0,5.046-9.477,24.826,4.067,24.826
				c13.544,0,4.067-19.781,4.067-24.826C419.666,103.609,421.829,95.034,421.829,95.034z"/>
			<path style="fill:#F0F0F0;" d="M347.406,118.698c0,8.131,8.936,14.784,19.857,14.784h9.858c10.922,0,19.857-6.653,19.857-14.784
				H347.406z"/>
		</g>
		<g>
			<g>
				<g>
					<g>
						<polygon style="fill:#E6E6E6;" points="315.882,207.996 319.909,207.996 333.722,195.767 317.227,195.767 						"/>
						<polygon style="fill:#F5F5F5;" points="318.218,207.996 322.246,207.996 336.058,195.767 332.023,195.767 						"/>
						<polygon style="fill:#E6E6E6;" points="413.655,207.996 417.683,207.996 431.496,195.767 415.001,195.767 						"/>
						<polygon style="fill:#F5F5F5;" points="415.992,207.996 420.019,207.996 433.832,195.767 429.796,195.767 						"/>
					</g>
					<g>
						
							<rect x="305.916" y="189.482" transform="matrix(-1 -1.224647e-16 1.224647e-16 -1 638.7058 385.249)" style="fill:#E6E6E6;" width="26.873" height="6.285"/>
						<rect x="332.789" y="189.482" style="fill:#F5F5F5;" width="111.223" height="6.285"/>
					</g>
				</g>
			</g>
			<path style="fill:#E0E0E0;" d="M354.117,176.297c0,7.251,10.463,13.184,23.251,13.184h11.543
				c12.788,0,23.251-5.933,23.251-13.184H354.117z"/>
			<path style="fill:#F5F5F5;" d="M337.709,152.37h19.393c0,0-3.367,16.779-3.367,20.213c0,3.434,14.751,16.897-6.33,16.897
				c-21.08,0-6.33-13.463-6.33-16.897C341.076,169.149,337.709,152.37,337.709,152.37z"/>
		</g>
		<g>
			<path style="fill:#E6E6E6;" d="M399.569,276.161c5.949,0.783,11.426,5.31,9.564,11.45c-3.081,10.158,11.723,9.214,12.096,25.106
				c0.527,22.435-22.321,7.489-20.746,28.811c1.145,15.513-20.559,30.189-27.193,10.797c-7.264-21.234-13.758-5.106-23.01-28.474
				c-6.398-16.158,15.938-23.188,7.571-26.963c-6.112-2.758-10.983-8.716-5.274-14.613c7.773-8.029-2.618-10.991,2.634-16.559
				c5.18-5.491,8.283,1.016,17.398-4.318c8.152-4.77,18.412,2.764,18.262,8.793C390.73,275.819,393.581,275.373,399.569,276.161z"/>
			<g>
				<path style="fill:#F0F0F0;" d="M411.282,345.664c0,0-0.733,36.733-28.814,36.733c-28.082,0-28.814-36.733-28.814-36.733H411.282
					z"/>
			</g>
		</g>
	</g>
</g>
<g id="Background_Simple" style="display:none;">
	<g style="display:inline;">
		<path style="fill:#407BFF;" d="M164.609,314.415c18.718,5.396,33.169,21.578,50.167,30.543
			c16.983,8.957,36.408,15.458,55.658,16.773c47.102,3.216,65.693-33.106,88.91-67.003c18.461-26.953,64.89-55.67,51.91-92.06
			c-13.145-36.852-63.813-57.43-96.986-70.439c-30.657-12.022-84.147-31.702-113.352-6.453
			c-33.331,28.816,5.109,86.261-44.088,95.564C117.523,228.771,71,248.758,77,295.667
			C83.362,345.405,133.708,305.507,164.609,314.415z"/>
		<path style="opacity:0.9;fill:#FFFFFF;" d="M164.609,314.415c18.718,5.396,33.169,21.578,50.167,30.543
			c16.983,8.957,36.408,15.458,55.658,16.773c47.102,3.216,65.693-33.106,88.91-67.003c18.461-26.953,64.89-55.67,51.91-92.06
			c-13.145-36.852-63.813-57.43-96.986-70.439c-30.657-12.022-84.147-31.702-113.352-6.453
			c-33.331,28.816,5.109,86.261-44.088,95.564C117.523,228.771,71,248.758,77,295.667
			C83.362,345.405,133.708,305.507,164.609,314.415z"/>
	</g>
</g>
<g id="Shadow_1_">
	<ellipse id="_x3C_Path_x3E__70_" style="fill:#F5F5F5;" cx="250" cy="416.238" rx="193.889" ry="11.323"/>
</g>
<g id="Upvote">
	<g>
		<g>
			<path style="fill:#263238;" d="M128.624,218.075l19.272,6.27c2.564,0.834,3.966,3.589,3.132,6.153l-15.725,48.336
				c-0.834,2.564-3.589,3.966-6.153,3.132l-19.272-6.27c-2.564-0.834-3.966-3.589-3.132-6.153l15.725-48.336
				C123.305,218.643,126.06,217.241,128.624,218.075z"/>
			<path style="opacity:0.3;" d="M128.624,218.075l19.272,6.27c2.564,0.834,3.966,3.589,3.132,6.153l-15.725,48.336
				c-0.834,2.564-3.589,3.966-6.153,3.132l-19.272-6.27c-2.564-0.834-3.966-3.589-3.132-6.153l15.725-48.336
				C123.305,218.643,126.06,217.241,128.624,218.075z"/>
			<path style="fill:#263238;" d="M203.145,242.911l-18.772-6.107c0.721,0.231,0.72,0.229,0.719,0.224
				c1.302-2.682,0.82-4.322,2.383-6.861c2.005-3.09,5.283-6.726,7.948-12.608c1.992-4.395,1.741-20.616,1.741-20.616
				s-3.276-1.105-3.879-1.257c-3.792-0.957-5.879,2.693-7.399,8.022c-1.762,6.176-13.413,13.574-20.9,17.391
				c-7.469,3.808-16.164,9.462-16.212,9.496c-0.001,0.001,0,0.001-0.001,0.002l-13.683,43.387c0.001,0.003,0.001,0.005,0.002,0.008
				l5.896,5.659c5.904,5.671,13.967,8.542,13.967,8.542l30.257,9.844L203.145,242.911z"/>
			<path style="fill:#407BFF;" d="M215.138,250.684c0.629-1.934-0.428-4.011-2.362-4.64l-24.064-7.829l-0.004-0.011
				c1.302-2.682,1.543-4.087,3.106-6.625c2.005-3.09,5.283-6.726,7.948-12.608c2.665-5.882,4.138-18.398-0.918-21.291
				c-5.057-2.893-6.857,1.264-8.618,7.44c-1.761,6.176-13.413,13.574-20.9,17.391c-7.469,3.808-16.164,9.462-16.212,9.496
				c-0.001,0.002,0,0.001-0.001,0.003l-13.683,43.387c0.001,0.003,0.001,0.005,0.002,0.008l5.896,5.659
				c5.904,5.671,13.967,8.542,13.967,8.542l33.38,10.859c1.934,0.629,4.011-0.428,4.641-2.362l0.821-2.525
				c0.525-1.615-0.122-3.38-1.567-4.272l-1.116-1.091c-0.644-0.464-0.276-1.482,0.516-1.427l2.871,0.198
				c1.72,0.169,4.05-0.646,4.585-2.29l1.591-4.891c0.519-1.595-0.105-3.338-1.518-4.241l-2.773-1.904
				c-0.635-0.436-0.334-1.429,0.436-1.439l4.516-0.06c1.577-0.021,2.965-1.043,3.453-2.543l1.724-5.301
				c0.503-1.546-0.068-3.239-1.404-4.165l-3.479-2.411c-0.638-0.442-0.321-1.443,0.455-1.438l3.4,0.024
				c1.65,0.069,3.143-0.97,3.654-2.54L215.138,250.684z"/>
			<path style="opacity:0.4;" d="M215.138,250.684c0.629-1.934-0.428-4.011-2.362-4.64l-24.064-7.829l-0.004-0.011
				c1.302-2.682,1.543-4.087,3.106-6.625c2.005-3.09,5.283-6.726,7.948-12.608c2.665-5.882,4.138-18.398-0.918-21.291
				c-5.057-2.893-6.857,1.264-8.618,7.44c-1.761,6.176-13.413,13.574-20.9,17.391c-7.469,3.808-16.164,9.462-16.212,9.496
				c-0.001,0.002,0,0.001-0.001,0.003l-13.683,43.387c0.001,0.003,0.001,0.005,0.002,0.008l5.896,5.659
				c5.904,5.671,13.967,8.542,13.967,8.542l33.38,10.859c1.934,0.629,4.011-0.428,4.641-2.362l0.821-2.525
				c0.525-1.615-0.122-3.38-1.567-4.272l-1.116-1.091c-0.644-0.464-0.276-1.482,0.516-1.427l2.871,0.198
				c1.72,0.169,4.05-0.646,4.585-2.29l1.591-4.891c0.519-1.595-0.105-3.338-1.518-4.241l-2.773-1.904
				c-0.635-0.436-0.334-1.429,0.436-1.439l4.516-0.06c1.577-0.021,2.965-1.043,3.453-2.543l1.724-5.301
				c0.503-1.546-0.068-3.239-1.404-4.165l-3.479-2.411c-0.638-0.442-0.321-1.443,0.455-1.438l3.4,0.024
				c1.65,0.069,3.143-0.97,3.654-2.54L215.138,250.684z"/>
			<path style="fill:#263238;" d="M132.24,219.251l19.272,6.27c2.564,0.834,3.966,3.589,3.132,6.153l-15.725,48.336
				c-0.834,2.564-3.589,3.966-6.153,3.132l-19.272-6.27c-2.564-0.834-3.966-3.589-3.132-6.153l15.725-48.336
				C126.921,219.82,129.676,218.417,132.24,219.251z"/>
		</g>
		<g>
			
				<rect x="170.029" y="292.422" transform="matrix(0.2882 -0.9576 0.9576 0.2882 -161.4927 373.6203)" style="fill:#407BFF;" width="1.06" height="6.024"/>
			
				<rect x="170.029" y="292.422" transform="matrix(0.2882 -0.9576 0.9576 0.2882 -161.4927 373.6203)" style="opacity:0.4;" width="1.06" height="6.024"/>
			
				<rect x="185.295" y="292.831" transform="matrix(0.2883 -0.9575 0.9575 0.2883 -155.0363 391.4775)" style="fill:#407BFF;" width="1.06" height="14.398"/>
			
				<rect x="185.295" y="292.831" transform="matrix(0.2883 -0.9575 0.9575 0.2883 -155.0363 391.4775)" style="opacity:0.4;" width="1.06" height="14.398"/>
		</g>
	</g>
</g>
<g id="Character_1_">
	<g>
		<path style="fill:#263238;" d="M239.269,123.375c-4.903,1.504-8.131,21.006,2.008,27.297c10.139,6.292,32.381-3.132,32.381-3.132
			s-3.365-4.006-2.244-14.629c1.098-10.412,1.547-24.037-15.755-21.048C244.367,113.814,238.493,120.001,239.269,123.375z"/>
		<path style="fill:#FFB573;" d="M282.313,171.341c0.225,2.443,0.518,5.111,0.889,7.661c0.385,2.571,0.747,5.15,1.258,7.691
			c1.007,5.078,2.239,10.104,3.978,14.833l0.672,1.76c0.119,0.329,0.205,0.485,0.302,0.725c0.095,0.223,0.232,0.464,0.344,0.697
			c0.512,0.951,1.159,1.963,1.876,2.955c1.447,1.986,3.108,3.966,4.853,5.893c1.734,1.942,3.548,3.858,5.419,5.727
			c1.854,1.878,3.769,3.759,5.653,5.583l-2.673,3.45c-4.646-2.993-8.964-6.293-13.156-9.959c-2.072-1.857-4.099-3.802-5.997-6.025
			c-0.949-1.116-1.886-2.284-2.737-3.651c-0.21-0.357-0.424-0.69-0.625-1.07c-0.189-0.367-0.427-0.801-0.551-1.1l-0.882-1.961
			c-1.139-2.621-2.103-5.29-2.916-7.977c-0.858-2.682-1.501-5.399-2.11-8.117c-0.594-2.721-1.11-5.449-1.501-8.196
			c-0.382-2.772-0.726-5.447-0.892-8.365L282.313,171.341z"/>
		<path style="fill:#263238;" d="M279.516,161.389c3.552,0.904,6.037,15.523,6.037,15.523l-13.586,9.239
			c0,0-5.589-17.33-2.856-21.235C271.957,160.848,274.332,160.069,279.516,161.389z"/>
		<polygon style="opacity:0.2;" points="279.196,164.654 281.925,179.388 276.423,183.119 		"/>
		<polygon style="fill:#407BFF;" points="271.216,187.653 286.486,176.708 286.176,175.296 270.195,186.053 		"/>
		<polygon style="fill:#FFB573;" points="260.297,407.438 268.916,407.438 269.491,387.478 260.872,387.478 		"/>
		<polygon style="fill:#FFB573;" points="200.692,382.035 208.672,385.293 218.781,367.861 210.802,364.604 		"/>
		<path style="fill:#263238;" d="M210.174,384.097l-8.324-4.946c-0.303-0.18-0.674-0.116-0.892,0.155l-4.862,6.023
			c-0.504,0.625-0.301,1.62,0.405,2.023c2.932,1.675,4.432,2.335,8.093,4.511c2.252,1.338,7.547,5.924,10.657,7.772
			c3.042,1.807,5.103-1.129,3.974-2.177c-5.065-4.699-7.102-9.364-8.082-12.169C210.965,384.783,210.617,384.36,210.174,384.097z"/>
		<path style="fill:#263238;" d="M269.211,406.44h-9.683c-0.352,0-0.638,0.245-0.688,0.589l-1.103,7.661
			c-0.114,0.795,0.569,1.547,1.382,1.533c3.376-0.058,5.003-0.256,9.261-0.256c2.62,0,8.039,0.272,11.656,0.272
			c3.538,0,3.811-3.577,2.304-3.901c-6.755-1.453-9.413-3.456-11.688-5.367C270.242,406.625,269.727,406.44,269.211,406.44z"/>
		<g style="opacity:0.2;">
			<polygon points="269.49,387.483 269.195,397.771 260.572,397.771 260.867,387.483 			"/>
			<polygon points="210.797,364.608 218.78,367.867 213.565,376.85 205.582,373.591 			"/>
		</g>
		<path style="fill:#263238;" d="M279.516,161.389c0,0,4.106,1.446-4.119,52.02c-13.891,0-28.246,0-35.005,0
			c0.588-14.247,0.604-23.032-6.205-52.27c0,0,7.334-1.596,14.865-1.958c5.891-0.284,10.717-0.472,15.895,0.001
			C271.774,159.804,279.516,161.389,279.516,161.389z"/>
		<path style="fill:#FFB573;" d="M250.626,141.282c1.003,5.114,2.003,14.485-1.575,17.898c0,0,4.727,9.07,14.053,13.986
			c7.091-5.667,1.842-13.986,1.842-13.986c-5.703-1.362-5.556-5.593-4.563-9.567L250.626,141.282z"/>
		<path style="opacity:0.2;" d="M254.605,144.682l5.775,4.928c-0.239,0.941-0.424,1.894-0.49,2.821
			c-2.179-0.315-5.605-2.171-6.073-4.54C253.595,146.769,254.419,145.212,254.605,144.682z"/>
		<path style="fill:#FFB573;" d="M242.052,133.067c2.365,8.221,3.19,11.751,8.35,15.093c7.762,5.027,17.342,0.325,17.482-8.437
			c0.125-7.886-3.762-20.005-12.658-21.508C246.462,116.734,239.687,124.847,242.052,133.067z"/>
		<path style="fill:#263238;" d="M246.681,127.45c2.062,2.939-0.214,11.054-3.594,11.756c-2.71,0.563-4.177-3.906-4.653-5.701
			c-0.121-0.458-0.143-0.932-0.072-1.401l0.888-5.828c0.125-0.821,0.54-1.571,1.169-2.114l6.354-5.482
			c0.485-0.419,1.076-0.695,1.709-0.8l9.039-1.493c0.656-0.108,1.329-0.027,1.94,0.235l0,0c2.334,1,2.862,4.084,0.976,5.784
			C257.578,124.981,252.956,127.818,246.681,127.45z"/>
		<g>
			<path style="fill:#407BFF;" d="M275.397,213.409c0,0,6.798,66.394,6.233,92.678c-0.587,27.339-10.606,89.692-10.606,89.692
				H259.37c0,0,1.845-60.755,0.814-87.605c-1.123-29.271-10.421-94.765-10.421-94.765H275.397z"/>
			<path style="opacity:0.4;fill:#FFFFFF;" d="M275.397,213.409c0,0,6.798,66.394,6.233,92.678
				c-0.587,27.339-10.606,89.692-10.606,89.692H259.37c0,0,1.845-60.755,0.814-87.605c-1.123-29.271-10.421-94.765-10.421-94.765
				H275.397z"/>
		</g>
		<polygon style="fill:#263238;" points="258.36,396.197 272.035,396.197 273.038,391.835 257.724,391.301 		"/>
		<path style="opacity:0.2;" d="M260.298,229.928c8.598,17.296,1.726,48.848-1.314,60.586c-1.559-17.63-4.188-39.18-6.237-55.006
			C254.05,226.554,256.333,221.954,260.298,229.928z"/>
		<g>
			<path style="fill:#407BFF;" d="M266.153,213.409c0,0-7.93,69.025-13.918,91.185c-7.109,26.309-35.99,71.199-35.99,71.199
				l-10.882-4.443c0,0,18.651-51.111,24.086-64.971c11.601-29.582,1.671-73.666,10.942-92.97L266.153,213.409z"/>
			<path style="opacity:0.4;fill:#FFFFFF;" d="M266.153,213.409c0,0-7.93,69.025-13.918,91.185
				c-7.109,26.309-35.99,71.199-35.99,71.199l-10.882-4.443c0,0,18.651-51.111,24.086-64.971
				c11.601-29.582,1.671-73.666,10.942-92.97L266.153,213.409z"/>
		</g>
		<polygon style="fill:#263238;" points="203.877,371.407 217.377,376.918 220.547,373.261 204.96,366.062 		"/>
		<path style="fill:#263238;" d="M255.836,132.326c0.151,0.679,0.633,1.149,1.076,1.05c0.444-0.099,0.681-0.729,0.53-1.407
			c-0.151-0.679-0.633-1.149-1.076-1.05C255.922,131.017,255.685,131.647,255.836,132.326z"/>
		<path style="fill:#263238;" d="M263.507,130.621c0.151,0.679,0.633,1.149,1.076,1.05s0.681-0.729,0.53-1.407
			c-0.151-0.679-0.633-1.149-1.076-1.05C263.593,129.312,263.356,129.942,263.507,130.621z"/>
		<path style="fill:#263238;" d="M263.849,129.295l1.526-0.832C265.375,128.462,264.821,129.921,263.849,129.295z"/>
		<path style="fill:#ED893E;" d="M261.413,132.369c0,0,1.801,2.666,3.382,3.793c-0.71,1.035-2.318,0.992-2.318,0.992
			L261.413,132.369z"/>
		<path style="fill:#263238;" d="M259.367,140.635c0.323-0.021,0.662-0.068,1.016-0.147c0.11-0.024,0.18-0.133,0.156-0.243
			c-0.025-0.111-0.135-0.185-0.243-0.155c-2.981,0.657-4.832-1.11-4.85-1.128c-0.081-0.079-0.21-0.078-0.289,0.003
			c-0.079,0.081-0.077,0.21,0.003,0.289C255.232,139.324,256.78,140.805,259.367,140.635z"/>
		<path style="fill:#FFB573;" d="M241.506,141.268c0.983,1.476,2.555,2.361,3.988,2.625c2.156,0.397,3.037-1.579,2.272-3.51
			c-0.688-1.738-2.638-4.04-4.723-3.562C240.991,137.292,240.383,139.58,241.506,141.268z"/>
		<path style="fill:#263238;" d="M252.641,129.33c0.164,0.053,0.349-0.001,0.456-0.148c1.111-1.528,3.543-1.511,3.567-1.511
			c0.225,0.003,0.411-0.177,0.414-0.402c0.004-0.225-0.174-0.411-0.402-0.414c-0.117-0.002-2.882-0.019-4.239,1.847
			c-0.133,0.182-0.092,0.438,0.09,0.57C252.563,129.298,252.601,129.317,252.641,129.33z"/>
		<path style="fill:#263238;" d="M265.103,125.002c0.139-0.009,0.27-0.089,0.338-0.222c0.102-0.201,0.022-0.447-0.179-0.549
			c-2.012-1.024-3.658-0.102-3.726-0.062c-0.195,0.113-0.263,0.363-0.15,0.558c0.112,0.195,0.36,0.261,0.557,0.151
			c0.066-0.037,1.351-0.732,2.949,0.082C264.96,124.993,265.033,125.007,265.103,125.002z"/>
		<path style="fill:#407BFF;" d="M213.481,387.368c0.034-0.004,0.068-0.01,0.102-0.017c0.383-0.079,0.667-0.334,0.845-0.76
			c0.134-0.321,0.044-0.558-0.056-0.7c-0.63-0.902-3.744-0.787-4.096-0.771c-0.088,0.002-0.153,0.055-0.182,0.132
			c-0.029,0.076-0.01,0.162,0.049,0.219C210.941,386.243,212.414,387.491,213.481,387.368z M210.788,385.515
			c1.247-0.009,2.917,0.135,3.249,0.61c0.042,0.06,0.081,0.149,0.014,0.309c-0.124,0.297-0.305,0.467-0.551,0.517
			C212.918,387.08,211.925,386.538,210.788,385.515z"/>
		<path style="fill:#407BFF;" d="M210.599,385.51c1.064-0.123,2.956-0.854,3.253-1.696c0.063-0.179,0.108-0.526-0.3-0.84
			c-0.259-0.199-0.555-0.267-0.882-0.207c-1.229,0.235-2.507,2.362-2.561,2.452c-0.037,0.063-0.038,0.14-0.003,0.204
			c0.035,0.063,0.102,0.103,0.174,0.105C210.374,385.529,210.481,385.523,210.599,385.51z M212.808,383.158
			c0.184-0.021,0.346,0.024,0.495,0.138c0.208,0.161,0.197,0.288,0.164,0.382c-0.2,0.569-1.754,1.271-2.793,1.415
			c0.463-0.686,1.34-1.786,2.073-1.926C212.767,383.164,212.788,383.16,212.808,383.158z"/>
		<path style="fill:#407BFF;" d="M272.447,407.946c0.857,0,1.648-0.133,2.091-0.531c0.281-0.253,0.405-0.587,0.369-0.994
			c-0.022-0.243-0.142-0.431-0.346-0.542c-1.058-0.582-4.492,1.176-4.88,1.378c-0.077,0.04-0.12,0.124-0.108,0.21
			c0.012,0.086,0.077,0.155,0.162,0.172C270.467,407.783,271.498,407.946,272.447,407.946z M273.983,406.162
			c0.158,0,0.288,0.023,0.381,0.074c0.084,0.046,0.126,0.114,0.135,0.222c0.025,0.275-0.052,0.489-0.234,0.653
			c-0.523,0.471-1.941,0.553-3.852,0.235C271.596,406.779,273.167,406.162,273.983,406.162z"/>
		<path style="fill:#407BFF;" d="M269.775,407.642c0.029,0,0.057-0.006,0.084-0.018c1.027-0.464,3.059-2.323,2.9-3.3
			c-0.038-0.231-0.202-0.519-0.767-0.576c-0.415-0.044-0.799,0.076-1.131,0.353c-1.083,0.902-1.282,3.223-1.29,3.321
			c-0.006,0.072,0.027,0.142,0.086,0.184C269.692,407.629,269.733,407.642,269.775,407.642z M271.828,404.148
			c0.04,0,0.081,0.002,0.123,0.006c0.373,0.038,0.397,0.187,0.405,0.236c0.096,0.586-1.284,2.048-2.331,2.683
			c0.101-0.676,0.387-2.067,1.098-2.659C271.337,404.235,271.569,404.148,271.828,404.148z"/>
		<path style="fill:#263238;" d="M256.178,131l1.525-0.832C257.704,130.167,257.151,131.627,256.178,131z"/>
		<g>
			<path style="fill:#407BFF;" d="M239.868,211.355l-0.895,3.133c-0.122,0.243,0.165,0.491,0.57,0.491h36.027
				c0.316,0,0.577-0.155,0.597-0.353l0.316-3.133c0.022-0.217-0.252-0.401-0.597-0.401h-35.448
				C240.177,211.092,239.947,211.198,239.868,211.355z"/>
			<path style="opacity:0.2;" d="M239.868,211.355l-0.895,3.133c-0.122,0.243,0.165,0.491,0.57,0.491h36.027
				c0.316,0,0.577-0.155,0.597-0.353l0.316-3.133c0.022-0.217-0.252-0.401-0.597-0.401h-35.448
				C240.177,211.092,239.947,211.198,239.868,211.355z"/>
		</g>
		<g>
			<g>
				<path style="fill:#407BFF;" d="M244.746,215.318h-0.949c-0.189,0-0.333-0.097-0.32-0.217l0.445-4.071
					c0.013-0.119,0.178-0.217,0.367-0.217h0.949c0.189,0,0.333,0.097,0.32,0.217l-0.445,4.071
					C245.1,215.221,244.935,215.318,244.746,215.318z"/>
				<path style="opacity:0.4;fill:#FFFFFF;" d="M244.746,215.318h-0.949c-0.189,0-0.333-0.097-0.32-0.217l0.445-4.071
					c0.013-0.119,0.178-0.217,0.367-0.217h0.949c0.189,0,0.333,0.097,0.32,0.217l-0.445,4.071
					C245.1,215.221,244.935,215.318,244.746,215.318z"/>
			</g>
			<g>
				<path style="fill:#407BFF;" d="M272.902,215.318h-0.949c-0.189,0-0.333-0.097-0.32-0.217l0.445-4.071
					c0.013-0.119,0.178-0.217,0.367-0.217h0.949c0.189,0,0.333,0.097,0.32,0.217l-0.445,4.071
					C273.257,215.221,273.091,215.318,272.902,215.318z"/>
				<path style="opacity:0.4;fill:#FFFFFF;" d="M272.902,215.318h-0.949c-0.189,0-0.333-0.097-0.32-0.217l0.445-4.071
					c0.013-0.119,0.178-0.217,0.367-0.217h0.949c0.189,0,0.333,0.097,0.32,0.217l-0.445,4.071
					C273.257,215.221,273.091,215.318,272.902,215.318z"/>
			</g>
			<g>
				<path style="fill:#407BFF;" d="M258.882,215.318h-0.949c-0.189,0-0.333-0.097-0.32-0.217l0.445-4.071
					c0.013-0.119,0.178-0.217,0.367-0.217h0.949c0.189,0,0.333,0.097,0.32,0.217l-0.445,4.071
					C259.237,215.221,259.072,215.318,258.882,215.318z"/>
				<path style="opacity:0.4;fill:#FFFFFF;" d="M258.882,215.318h-0.949c-0.189,0-0.333-0.097-0.32-0.217l0.445-4.071
					c0.013-0.119,0.178-0.217,0.367-0.217h0.949c0.189,0,0.333,0.097,0.32,0.217l-0.445,4.071
					C259.237,215.221,259.072,215.318,258.882,215.318z"/>
			</g>
		</g>
		<g>
			<g>
				<path style="fill:#263238;" d="M262.897,190.923l15.563-11.112c2.07-1.478,4.947-0.998,6.426,1.072l27.869,39.032
					c1.478,2.071,0.998,4.948-1.072,6.426l-15.563,11.112c-2.071,1.478-4.948,0.998-6.426-1.072l-27.869-39.033
					C260.346,195.279,260.826,192.402,262.897,190.923z"/>
				<path style="fill:#263238;" d="M323.523,148.289l-15.159,10.824c0.58-0.418,0.578-0.419,0.573-0.42
					c-1.306-2.491-2.82-3.045-3.871-5.654c-1.221-3.254-2.143-7.78-5.113-13.101c-2.219-3.976-14.67-12.879-14.67-12.879
					s-2.675,1.867-3.128,2.239c-2.853,2.342-1.252,5.972,1.94,10.113c3.7,4.799,2.783,17.789,1.482,25.612
					c-1.297,7.804-1.88,17.573-1.882,17.628c0.001,0.001,0.001,0.001,0.001,0.002l25.258,34.708
					c0.002,0.001,0.005,0.002,0.007,0.003l7.6-1.302c7.614-1.301,14.313-5.811,14.313-5.811l24.433-17.445L323.523,148.289z"/>
				<path style="fill:#407BFF;" d="M336.147,143.544c-1.115-1.562-3.285-1.924-4.846-0.809l-19.433,13.875l-0.011-0.003
					c-1.306-2.492-2.237-3.462-3.287-6.071c-1.221-3.254-2.143-7.78-5.113-13.101c-2.97-5.321-11.643-13.455-16.674-11.239
					c-5.03,2.216-2.885,5.913,0.815,10.712c3.7,4.799,2.783,17.789,1.482,25.612c-1.297,7.804-1.88,17.572-1.882,17.628
					c0.001,0.001,0.001,0.001,0.001,0.002l25.257,34.708c0.002,0.001,0.005,0.002,0.007,0.003l7.6-1.302
					c7.614-1.301,14.313-5.811,14.313-5.811l26.955-19.246c1.561-1.115,1.924-3.285,0.809-4.846l-1.456-2.039
					c-0.931-1.304-2.633-1.802-4.12-1.206l-1.454,0.235c-0.714,0.229-1.279-0.621-0.794-1.192l1.76-2.067
					c1.093-1.211,1.78-3.436,0.832-4.763l-2.82-3.95c-0.919-1.288-2.592-1.791-4.07-1.226l-3,1.038
					c-0.686,0.237-1.272-0.548-0.848-1.138l2.487-3.461c0.868-1.208,0.87-2.835,0.006-4.046l-3.056-4.28
					c-0.892-1.249-2.497-1.765-3.949-1.269l-3.78,1.289c-0.693,0.236-1.275-0.565-0.836-1.151l1.924-2.567
					c0.977-1.214,1.027-2.929,0.121-4.197L336.147,143.544z"/>
				<path style="fill:#407BFF;" d="M265.817,188.839l15.563-11.112c2.07-1.478,4.948-0.998,6.426,1.072l27.869,39.033
					c1.478,2.071,0.998,4.948-1.072,6.426l-15.563,11.112c-2.071,1.478-4.948,0.998-6.426-1.072l-27.869-39.033
					C263.266,193.194,263.746,190.317,265.817,188.839z"/>
				<path style="opacity:0.6;" d="M265.817,188.839l15.563-11.112c2.07-1.478,4.948-0.998,6.426,1.072l27.869,39.033
					c1.478,2.071,0.998,4.948-1.072,6.426l-15.563,11.112c-2.071,1.478-4.948,0.998-6.426-1.072l-27.869-39.033
					C263.266,193.194,263.746,190.317,265.817,188.839z"/>
			</g>
			<g>
				
					<rect x="342.276" y="201.965" transform="matrix(0.8007 -0.599 0.599 0.8007 -52.5104 247.0769)" style="fill:#407BFF;" width="5.684" height="1"/>
				
					<rect x="350.372" y="192.956" transform="matrix(0.8008 -0.5989 0.5989 0.8008 -44.72 252.4526)" style="fill:#407BFF;" width="13.585" height="1"/>
			</g>
		</g>
		<polygon style="fill:#FFB573;" points="304.943,228.272 298.518,232.506 299.629,236.512 306.861,231.561 		"/>
		<path style="fill:#FFB573;" d="M254.418,199.771l5.107-7.786l2.506,8.399c0,0-3.883,3.943-7.321,2.933L254.418,199.771z"/>
		<path style="fill:#FFB573;" d="M238.862,172.515c-0.525,5.197-1.151,10.383-1.826,15.564c-0.646,5.184-1.362,10.359-2.12,15.53
			l-0.141,0.97l-0.047,0.329c-0.014,0.056-0.019,0.088-0.021,0.1c-0.017,0.052-0.012-0.008-0.064-0.104
			c-0.044-0.119-0.14-0.306-0.29-0.455c-0.134-0.16-0.288-0.247-0.374-0.273c-0.055-0.029-0.086,0-0.003,0.028
			c0.126,0.07,0.502,0.14,0.932,0.158c0.88,0.045,2.004-0.08,3.141-0.265c1.144-0.189,2.33-0.461,3.519-0.776
			c2.393-0.604,4.816-1.372,7.221-2.222c2.409-0.824,4.844-1.741,7.208-2.65l2.014,3.873c-4.561,2.88-9.241,5.33-14.376,7.376
			c-1.294,0.488-2.619,0.945-4.023,1.33c-1.408,0.386-2.873,0.703-4.606,0.792c-0.873,0.033-1.813,0.024-2.951-0.24
			c-0.554-0.122-1.19-0.348-1.826-0.675c-0.652-0.354-1.32-0.852-1.881-1.508c-0.553-0.664-0.959-1.434-1.2-2.175
			c-0.227-0.725-0.333-1.434-0.348-2.035c-0.016-0.315-0.011-0.608,0.009-0.878l0.046-0.645l0.081-0.976
			c0.427-5.205,0.898-10.406,1.437-15.599c0.511-5.196,1.071-10.386,1.732-15.565L238.862,172.515z"/>
		<path style="fill:#263238;" d="M234.187,161.139c-3.507,1.066-7.719,13.143-7.719,13.143l13.606,9.728
			c0,0,4.962-10.081,3.488-14.614C242.027,164.674,238.189,159.922,234.187,161.139z"/>
		<polygon style="fill:#407BFF;" points="240.194,185.208 225.523,174.592 225.833,173.18 241.467,183.78 		"/>
		<polygon style="fill:#FFB573;" points="266.39,189.663 268.107,196.808 262.031,200.384 259.526,191.985 		"/>
	</g>
</g>
</svg>
